<svg width="21" height="21" viewBox="0 0 21 21" fill="none" xmlns="http://www.w3.org/2000/svg">
<path d="M6.2501 1.5C6.2501 1.30109 6.17108 1.11032 6.03043 0.96967C5.88978 0.829018 5.69901 0.75 5.5001 0.75C5.30119 0.75 5.11042 0.829018 4.96977 0.96967C4.82912 1.11032 4.7501 1.30109 4.7501 1.5V3.08C3.3101 3.195 2.3661 3.477 1.6721 4.172C0.977102 4.866 0.695102 5.811 0.579102 7.25H20.4211C20.3051 5.81 20.0231 4.866 19.3281 4.172C18.6341 3.477 17.6891 3.195 16.2501 3.079V1.5C16.2501 1.30109 16.1711 1.11032 16.0304 0.96967C15.8898 0.829018 15.699 0.75 15.5001 0.75C15.3012 0.75 15.1104 0.829018 14.9698 0.96967C14.8291 1.11032 14.7501 1.30109 14.7501 1.5V3.013C14.0851 3 13.3391 3 12.5001 3H8.5001C7.6611 3 6.9151 3 6.2501 3.013V1.5Z" fill="#79BF42"/>
<path fill-rule="evenodd" clip-rule="evenodd" d="M0.5 11C0.5 10.161 0.5 9.415 0.513 8.75H20.487C20.5 9.415 20.5 10.161 20.5 11V13C20.5 16.771 20.5 18.657 19.328 19.828C18.157 21 16.271 21 12.5 21H8.5C4.729 21 2.843 21 1.672 19.828C0.5 18.657 0.5 16.771 0.5 13V11ZM15.5 13C15.7652 13 16.0196 12.8946 16.2071 12.7071C16.3946 12.5196 16.5 12.2652 16.5 12C16.5 11.7348 16.3946 11.4804 16.2071 11.2929C16.0196 11.1054 15.7652 11 15.5 11C15.2348 11 14.9804 11.1054 14.7929 11.2929C14.6054 11.4804 14.5 11.7348 14.5 12C14.5 12.2652 14.6054 12.5196 14.7929 12.7071C14.9804 12.8946 15.2348 13 15.5 13ZM15.5 17C15.7652 17 16.0196 16.8946 16.2071 16.7071C16.3946 16.5196 16.5 16.2652 16.5 16C16.5 15.7348 16.3946 15.4804 16.2071 15.2929C16.0196 15.1054 15.7652 15 15.5 15C15.2348 15 14.9804 15.1054 14.7929 15.2929C14.6054 15.4804 14.5 15.7348 14.5 16C14.5 16.2652 14.6054 16.5196 14.7929 16.7071C14.9804 16.8946 15.2348 17 15.5 17ZM11.5 12C11.5 12.2652 11.3946 12.5196 11.2071 12.7071C11.0196 12.8946 10.7652 13 10.5 13C10.2348 13 9.98043 12.8946 9.79289 12.7071C9.60536 12.5196 9.5 12.2652 9.5 12C9.5 11.7348 9.60536 11.4804 9.79289 11.2929C9.98043 11.1054 10.2348 11 10.5 11C10.7652 11 11.0196 11.1054 11.2071 11.2929C11.3946 11.4804 11.5 11.7348 11.5 12ZM11.5 16C11.5 16.2652 11.3946 16.5196 11.2071 16.7071C11.0196 16.8946 10.7652 17 10.5 17C10.2348 17 9.98043 16.8946 9.79289 16.7071C9.60536 16.5196 9.5 16.2652 9.5 16C9.5 15.7348 9.60536 15.4804 9.79289 15.2929C9.98043 15.1054 10.2348 15 10.5 15C10.7652 15 11.0196 15.1054 11.2071 15.2929C11.3946 15.4804 11.5 15.7348 11.5 16ZM5.5 13C5.76522 13 6.01957 12.8946 6.20711 12.7071C6.39464 12.5196 6.5 12.2652 6.5 12C6.5 11.7348 6.39464 11.4804 6.20711 11.2929C6.01957 11.1054 5.76522 11 5.5 11C5.23478 11 4.98043 11.1054 4.79289 11.2929C4.60536 11.4804 4.5 11.7348 4.5 12C4.5 12.2652 4.60536 12.5196 4.79289 12.7071C4.98043 12.8946 5.23478 13 5.5 13ZM5.5 17C5.76522 17 6.01957 16.8946 6.20711 16.7071C6.39464 16.5196 6.5 16.2652 6.5 16C6.5 15.7348 6.39464 15.4804 6.20711 15.2929C6.01957 15.1054 5.76522 15 5.5 15C5.23478 15 4.98043 15.1054 4.79289 15.2929C4.60536 15.4804 4.5 15.7348 4.5 16C4.5 16.2652 4.60536 16.5196 4.79289 16.7071C4.98043 16.8946 5.23478 17 5.5 17Z" fill="#79BF42"/>
</svg>
