<svg width="18" height="20" viewBox="0 0 18 20" fill="none" xmlns="http://www.w3.org/2000/svg">
<path d="M9 6.75C8.13805 6.75 7.3114 7.09241 6.7019 7.7019C6.09241 8.3114 5.75 9.13805 5.75 10C5.75 10.862 6.09241 11.6886 6.7019 12.2981C7.3114 12.9076 8.13805 13.25 9 13.25C9.86195 13.25 10.6886 12.9076 11.2981 12.2981C11.9076 11.6886 12.25 10.862 12.25 10C12.25 9.13805 11.9076 8.3114 11.2981 7.7019C10.6886 7.09241 9.86195 6.75 9 6.75Z" fill="#79BF42"/>
<path fill-rule="evenodd" clip-rule="evenodd" d="M9.6799 0.805996C9.4719 0.690415 9.23786 0.629761 8.9999 0.629761C8.76194 0.629761 8.52791 0.690415 8.3199 0.805996L1.1199 4.806C0.901644 4.92727 0.719792 5.10472 0.593194 5.31993C0.466597 5.53515 0.39986 5.78031 0.399902 6.03V13.97C0.399902 14.479 0.675902 14.947 1.1199 15.194L8.3199 19.194C8.52791 19.3096 8.76194 19.3702 8.9999 19.3702C9.23786 19.3702 9.4719 19.3096 9.6799 19.194L16.8799 15.194C17.098 15.0728 17.2798 14.8955 17.4064 14.6805C17.5329 14.4655 17.5998 14.2205 17.5999 13.971V6.03C17.5999 5.78031 17.5332 5.53515 17.4066 5.31993C17.28 5.10472 17.0982 4.92727 16.8799 4.806L9.6799 0.805996ZM4.2499 10C4.2499 8.74022 4.75035 7.53204 5.64115 6.64124C6.53194 5.75044 7.74012 5.25 8.9999 5.25C10.2597 5.25 11.4679 5.75044 12.3587 6.64124C13.2495 7.53204 13.7499 8.74022 13.7499 10C13.7499 11.2598 13.2495 12.468 12.3587 13.3588C11.4679 14.2496 10.2597 14.75 8.9999 14.75C7.74012 14.75 6.53194 14.2496 5.64115 13.3588C4.75035 12.468 4.2499 11.2598 4.2499 10Z" fill="#79BF42"/>
</svg>
