<svg width="20" height="21" viewBox="0 0 20 21" fill="none" xmlns="http://www.w3.org/2000/svg">
<path d="M0.5 2.25C0.5 1.65326 0.737053 1.08097 1.15901 0.65901C1.58097 0.237053 2.15326 0 2.75 0H8.75C9.34674 0 9.91903 0.237053 10.341 0.65901C10.7629 1.08097 11 1.65326 11 2.25V7.5165C10.1762 7.44131 9.34877 7.61555 8.62523 8.01661C7.9017 8.41766 7.31547 9.027 6.94266 9.76549C6.56986 10.504 6.42771 11.3375 6.53468 12.1578C6.64165 12.9781 6.99279 13.7473 7.5425 14.3655C6.76228 14.5804 6.08177 15.0613 5.61882 15.7251C5.15586 16.3888 4.9396 17.1936 5.0075 18H1.25C1.05109 18 0.860322 17.921 0.71967 17.7803C0.579018 17.6397 0.5 17.4489 0.5 17.25V2.25ZM4.25 4.5C4.44891 4.5 4.63968 4.42098 4.78033 4.28033C4.92098 4.13968 5 3.94891 5 3.75C5 3.55109 4.92098 3.36032 4.78033 3.21967C4.63968 3.07902 4.44891 3 4.25 3C4.05109 3 3.86032 3.07902 3.71967 3.21967C3.57902 3.36032 3.5 3.55109 3.5 3.75C3.5 3.94891 3.57902 4.13968 3.71967 4.28033C3.86032 4.42098 4.05109 4.5 4.25 4.5ZM4.25 8.25C4.44891 8.25 4.63968 8.17098 4.78033 8.03033C4.92098 7.88968 5 7.69891 5 7.5C5 7.30109 4.92098 7.11032 4.78033 6.96967C4.63968 6.82902 4.44891 6.75 4.25 6.75C4.05109 6.75 3.86032 6.82902 3.71967 6.96967C3.57902 7.11032 3.5 7.30109 3.5 7.5C3.5 7.69891 3.57902 7.88968 3.71967 8.03033C3.86032 8.17098 4.05109 8.25 4.25 8.25ZM4.25 12C4.44891 12 4.63968 11.921 4.78033 11.7803C4.92098 11.6397 5 11.4489 5 11.25C5 11.0511 4.92098 10.8603 4.78033 10.7197C4.63968 10.579 4.44891 10.5 4.25 10.5C4.05109 10.5 3.86032 10.579 3.71967 10.7197C3.57902 10.8603 3.5 11.0511 3.5 11.25C3.5 11.4489 3.57902 11.6397 3.71967 11.7803C3.86032 11.921 4.05109 12 4.25 12ZM7.25 4.5C7.44891 4.5 7.63968 4.42098 7.78033 4.28033C7.92098 4.13968 8 3.94891 8 3.75C8 3.55109 7.92098 3.36032 7.78033 3.21967C7.63968 3.07902 7.44891 3 7.25 3C7.05109 3 6.86032 3.07902 6.71967 3.21967C6.57902 3.36032 6.5 3.55109 6.5 3.75C6.5 3.94891 6.57902 4.13968 6.71967 4.28033C6.86032 4.42098 7.05109 4.5 7.25 4.5ZM7.25 8.25C7.44891 8.25 7.63968 8.17098 7.78033 8.03033C7.92098 7.88968 8 7.69891 8 7.5C8 7.30109 7.92098 7.11032 7.78033 6.96967C7.63968 6.82902 7.44891 6.75 7.25 6.75C7.05109 6.75 6.86032 6.82902 6.71967 6.96967C6.57902 7.11032 6.5 7.30109 6.5 7.5C6.5 7.69891 6.57902 7.88968 6.71967 8.03033C6.86032 8.17098 7.05109 8.25 7.25 8.25ZM13.25 11.625C13.25 12.3212 12.9734 12.9889 12.4812 13.4812C11.9889 13.9734 11.3212 14.25 10.625 14.25C9.92881 14.25 9.26113 13.9734 8.76884 13.4812C8.27656 12.9889 8 12.3212 8 11.625C8 10.9288 8.27656 10.2611 8.76884 9.76884C9.26113 9.27656 9.92881 9 10.625 9C11.3212 9 11.9889 9.27656 12.4812 9.76884C12.9734 10.2611 13.25 10.9288 13.25 11.625ZM15.5 17.7195C15.5 19.3545 14.2145 21 11 21C7.7855 21 6.5 19.359 6.5 17.718C6.5 16.632 7.364 15.75 8.429 15.75H13.571C14.636 15.75 15.5 16.632 15.5 17.7195ZM16.2155 20.25H16.25C18.929 20.25 20 18.8385 20 17.4375C20 16.506 19.28 15.75 18.3935 15.75H16.394C16.778 16.3125 17 16.9935 17 17.7195C17 18.5925 16.751 19.479 16.2155 20.25ZM18.5 12.375C18.5 12.8723 18.3025 13.3492 17.9508 13.7008C17.5992 14.0525 17.1223 14.25 16.625 14.25C16.1277 14.25 15.6508 14.0525 15.2992 13.7008C14.9475 13.3492 14.75 12.8723 14.75 12.375C14.75 11.8777 14.9475 11.4008 15.2992 11.0492C15.6508 10.6975 16.1277 10.5 16.625 10.5C17.1223 10.5 17.5992 10.6975 17.9508 11.0492C18.3025 11.4008 18.5 11.8777 18.5 12.375Z" fill="#565656"/>
</svg>
