<svg width="12" height="14" viewBox="0 0 12 14" fill="none" xmlns="http://www.w3.org/2000/svg">
<path d="M6.00016 2.33341C9.12976 2.33341 11.6668 4.87047 11.6668 8.00008C11.6668 11.1297 9.12976 13.6667 6.00016 13.6667C2.87055 13.6667 0.333496 11.1297 0.333496 8.00008C0.333496 4.87047 2.87055 2.33341 6.00016 2.33341ZM6.00016 4.33341C5.74703 4.33341 5.53783 4.52151 5.5047 4.76557L5.50016 4.83342V7.83342L5.5047 7.90128C5.53783 8.14528 5.74703 8.33342 6.00016 8.33342C6.2533 8.33342 6.4625 8.14528 6.49563 7.90128L6.50016 7.83342V4.83342L6.49563 4.76557C6.4625 4.52151 6.2533 4.33341 6.00016 4.33341ZM10.7804 2.41515L10.8346 2.45624L11.6007 3.12291C11.809 3.30419 11.8309 3.62001 11.6496 3.82832C11.4834 4.01927 11.2042 4.05359 10.9984 3.91835L10.9442 3.87725L10.1782 3.21059C9.96983 3.0293 9.94796 2.71348 10.1292 2.50517C10.2954 2.31423 10.5746 2.27991 10.7804 2.41515ZM7.50016 0.666748C7.7763 0.666748 8.00016 0.890608 8.00016 1.16675C8.00016 1.41988 7.81203 1.62907 7.56803 1.66218L7.50016 1.66675H4.50016C4.22402 1.66675 4.00016 1.44289 4.00016 1.16675C4.00016 0.913615 4.18826 0.704421 4.43232 0.671315L4.50016 0.666748H7.50016Z" fill="#565656"/>
</svg>
