<svg width="19" height="18" viewBox="0 0 19 18" fill="none" xmlns="http://www.w3.org/2000/svg">
<path d="M16.73 12.26L14.19 11.97C13.8913 11.9349 13.5886 11.968 13.3046 12.0667C13.0205 12.1654 12.7625 12.3273 12.55 12.54L10.71 14.38C7.87118 12.9362 5.56378 10.6288 4.11999 7.79001L5.97 5.94001C6.39999 5.51001 6.60999 4.91001 6.53999 4.30001L6.24999 1.78001C6.1933 1.29219 5.95919 0.842247 5.59223 0.515858C5.22527 0.18947 4.7511 0.00942751 4.26 0.0100112H2.53C1.4 0.0100112 0.459995 0.950011 0.529995 2.08001C1.05999 10.62 7.89 17.44 16.42 17.97C17.55 18.04 18.49 17.1 18.49 15.97V14.24C18.5 13.23 17.74 12.38 16.73 12.26Z" fill="#565656"/>
</svg>
