<svg width="18" height="18" viewBox="0 0 18 18" fill="none" xmlns="http://www.w3.org/2000/svg">
<path fill-rule="evenodd" clip-rule="evenodd" d="M0 7.25C0 3.246 3.246 0 7.25 0H10.75C14.754 0 18 3.246 18 7.25C18 11.254 14.754 14.5 10.75 14.5H10.4V18C10.4 18 0 16.25 0 7.25ZM10.8455 3.241C11.3605 3.583 11.749 4.1375 11.749 4.881C11.749 5.67 11.4305 6.25 10.915 6.605C10.7115 6.74278 10.4869 6.84647 10.25 6.912V7.678C10.25 7.77649 10.2306 7.87402 10.1929 7.96501C10.1552 8.05601 10.1 8.13869 10.0303 8.20833C9.96069 8.27797 9.87801 8.33322 9.78701 8.37091C9.69602 8.4086 9.59849 8.428 9.5 8.428C9.40151 8.428 9.30398 8.4086 9.21299 8.37091C9.12199 8.33322 9.03931 8.27797 8.96967 8.20833C8.90003 8.13869 8.84478 8.05601 8.80709 7.96501C8.7694 7.87402 8.75 7.77649 8.75 7.678V6.2795C8.74996 6.08921 8.82225 5.90602 8.95222 5.76705C9.08219 5.62807 9.26014 5.54369 9.45 5.531C9.727 5.5125 9.937 5.4575 10.064 5.37C10.1153 5.33602 10.1567 5.2891 10.184 5.234C10.214 5.174 10.249 5.067 10.249 4.8805C10.249 4.724 10.1875 4.6045 10.015 4.4895C9.819 4.3595 9.504 4.2635 9.1255 4.2515C8.7515 4.2395 8.388 4.3125 8.1205 4.442C7.8525 4.572 7.7545 4.718 7.7265 4.8255C7.70381 4.92279 7.66192 5.01456 7.60328 5.09543C7.54464 5.17631 7.47043 5.24465 7.38501 5.29645C7.2996 5.34825 7.2047 5.38247 7.10588 5.39709C7.00705 5.41171 6.90631 5.40645 6.80955 5.3816C6.71279 5.35675 6.62198 5.31283 6.54243 5.2524C6.46288 5.19197 6.3962 5.11626 6.34632 5.02972C6.29643 4.94317 6.26433 4.84753 6.25192 4.7484C6.2395 4.64928 6.24701 4.54868 6.274 4.4525C6.446 3.782 6.948 3.344 7.4665 3.0925C7.9865 2.84 8.598 2.7335 9.1735 2.752C9.7445 2.77 10.3545 2.914 10.8455 3.241ZM9.5 11.5C9.76522 11.5 10.0196 11.3946 10.2071 11.2071C10.3946 11.0196 10.5 10.7652 10.5 10.5C10.5 10.2348 10.3946 9.98043 10.2071 9.79289C10.0196 9.60536 9.76522 9.5 9.5 9.5C9.23478 9.5 8.98043 9.60536 8.79289 9.79289C8.60536 9.98043 8.5 10.2348 8.5 10.5C8.5 10.7652 8.60536 11.0196 8.79289 11.2071C8.98043 11.3946 9.23478 11.5 9.5 11.5Z" fill="#565656"/>
</svg>
