<svg width="32" height="32" viewBox="0 0 32 32" fill="none" xmlns="http://www.w3.org/2000/svg">
<rect width="32" height="32" rx="3" fill="#79BF42"/>
<mask id="mask0_315_2130" style="mask-type:alpha" maskUnits="userSpaceOnUse" x="8" y="8" width="16" height="16">
<rect x="8" y="8" width="16" height="16" fill="#D9D9D9"/>
</mask>
<g mask="url(#mask0_315_2130)">
<path d="M9.3335 24V21.3333H22.6668V24H9.3335ZM10.6668 20V17.5L16.7002 11.4666L19.2002 13.9666L13.1668 20H10.6668ZM12.0002 18.6666H12.6002L17.3335 13.9666L16.7002 13.3333L12.0002 18.0666V18.6666ZM19.9502 13.2333L17.4502 10.7333L18.6502 9.53331C18.7724 9.39998 18.9279 9.33609 19.1168 9.34164C19.3057 9.3472 19.4613 9.41109 19.5835 9.53331L21.1502 11.1C21.2724 11.2222 21.3335 11.375 21.3335 11.5583C21.3335 11.7416 21.2724 11.9 21.1502 12.0333L19.9502 13.2333Z" fill="white"/>
</g>
</svg>
