<svg width="16" height="10" viewBox="0 0 16 10" fill="none" xmlns="http://www.w3.org/2000/svg">
<path d="M15.25 4C15.1562 3.84375 14.2309 3.44406 14.2309 3.44406C14.3919 3.36094 14.5019 3.34375 14.5019 3C14.5019 2.625 14.5 2.5 14.25 2.5H13.4019C13.3984 2.4925 13.3947 2.48469 13.3912 2.47687C12.8438 1.28125 12.7703 0.979062 11.9537 0.572187C10.8584 0.0274999 8.805 0 8 0C7.195 0 5.14156 0.0274999 4.04719 0.572187C3.22969 0.978437 3.25 1.1875 2.60969 2.47687C2.60969 2.48031 2.60313 2.48938 2.59719 2.5H1.74812C1.5 2.5 1.49812 2.625 1.49812 3C1.49812 3.34375 1.60812 3.36094 1.76906 3.44406C1.76906 3.44406 0.875 3.875 0.75 4C0.625 4.125 0.5 5 0.5 6.5C0.5 8 0.625 9.5 0.625 9.5H0.998125C0.998125 9.9375 1.0625 10 1.25 10H3.75C3.9375 10 4 9.9375 4 9.5H12C12 9.9375 12.0625 10 12.25 10H14.8125C14.9375 10 15 9.90625 15 9.5H15.375C15.375 9.5 15.5 7.96875 15.5 6.5C15.5 5.03125 15.3438 4.15625 15.25 4ZM3.91438 5.40438C3.34522 5.4666 2.77317 5.49852 2.20062 5.5C1.5625 5.5 1.54062 5.54094 1.49563 5.1425C1.4787 4.96013 1.48405 4.77638 1.51156 4.59531L1.53125 4.5H1.625C2 4.5 2.35219 4.51594 3.01719 4.71187C3.35541 4.81336 3.67354 4.97259 3.9575 5.1825C4.09375 5.28125 4.125 5.375 4.125 5.375L3.91438 5.40438ZM11.6381 7.65438L11.5 8H4.5C4.5 8 4.51219 7.98094 4.34375 7.65063C4.21875 7.40625 4.375 7.25 4.62219 7.16125C5.10094 6.98875 6.5 6.5 8 6.5C9.5 6.5 10.9269 6.92125 11.3906 7.16125C11.5625 7.25 11.7759 7.3125 11.6381 7.65625V7.65438ZM3.60687 3.38781C3.50593 3.39364 3.40476 3.39437 3.30375 3.39C3.38531 3.245 3.43062 3.08344 3.51031 2.91469C3.76031 2.38344 4.04625 1.78219 4.55531 1.52875C5.29094 1.1625 6.81563 0.9975 8 0.9975C9.18437 0.9975 10.7091 1.16125 11.4447 1.52875C11.9538 1.78219 12.2384 2.38375 12.4897 2.91469C12.57 3.085 12.6147 3.24781 12.6984 3.39375C12.6359 3.39719 12.5641 3.39375 12.3925 3.38781H3.60687ZM14.4731 5.14125C14.4062 5.53125 14.4688 5.5 13.7994 5.5C13.2268 5.49852 12.6548 5.4666 12.0856 5.40438C11.9966 5.38844 11.9712 5.23812 12.0425 5.1825C12.325 4.97025 12.6436 4.81081 12.9828 4.71187C13.6478 4.51594 14.0222 4.48969 14.3919 4.50281C14.4167 4.50376 14.4403 4.51386 14.4581 4.53117C14.476 4.54848 14.4868 4.57177 14.4884 4.59656C14.5061 4.77847 14.501 4.96187 14.4731 5.1425V5.14125Z" fill="#565656"/>
</svg>
