<svg width="22" height="14" viewBox="0 0 22 14" fill="none" xmlns="http://www.w3.org/2000/svg">
<path d="M20.9688 5.625C20.8398 5.41016 19.5675 4.86059 19.5675 4.86059C19.7888 4.74629 19.9401 4.72266 19.9401 4.25C19.9401 3.73438 19.9375 3.5625 19.5938 3.5625H18.4276C18.4229 3.55219 18.4177 3.54145 18.413 3.5307C17.6602 1.88672 17.5592 1.47121 16.4364 0.911758C14.9304 0.162812 12.1069 0.125 11 0.125C9.89312 0.125 7.06965 0.162812 5.56488 0.911758C4.44082 1.47035 4.46875 1.75781 3.58832 3.5307C3.58832 3.53543 3.5793 3.54789 3.57113 3.5625H2.40367C2.0625 3.5625 2.05992 3.73438 2.05992 4.25C2.05992 4.72266 2.21117 4.74629 2.43246 4.86059C2.43246 4.86059 1.20312 5.45312 1.03125 5.625C0.859375 5.79688 0.6875 7 0.6875 9.0625C0.6875 11.125 0.859375 13.1875 0.859375 13.1875H1.37242C1.37242 13.7891 1.46094 13.875 1.71875 13.875H5.15625C5.41406 13.875 5.5 13.7891 5.5 13.1875H16.5C16.5 13.7891 16.5859 13.875 16.8438 13.875H20.3672C20.5391 13.875 20.625 13.7461 20.625 13.1875H21.1406C21.1406 13.1875 21.3125 11.082 21.3125 9.0625C21.3125 7.04297 21.0977 5.83984 20.9688 5.625ZM5.38227 7.55602C4.59968 7.64157 3.8131 7.68546 3.02586 7.6875C2.14844 7.6875 2.11836 7.74379 2.05648 7.19594C2.03321 6.94518 2.04057 6.69253 2.0784 6.44355L2.10547 6.3125H2.23438C2.75 6.3125 3.23426 6.33441 4.14863 6.60383C4.61369 6.74338 5.05112 6.96231 5.44156 7.25094C5.62891 7.38672 5.67188 7.51562 5.67188 7.51562L5.38227 7.55602ZM16.0024 10.6498L15.8125 11.125H6.1875C6.1875 11.125 6.20426 11.0988 5.97266 10.6446C5.80078 10.3086 6.01562 10.0938 6.35551 9.97172C7.01379 9.73453 8.9375 9.0625 11 9.0625C13.0625 9.0625 15.0245 9.64172 15.6621 9.97172C15.8984 10.0938 16.1919 10.1797 16.0024 10.6523V10.6498ZM4.95945 4.78324C4.82066 4.79125 4.68155 4.79225 4.54266 4.78625C4.6548 4.58687 4.71711 4.36473 4.82668 4.1327C5.17043 3.40223 5.56359 2.57551 6.26356 2.22703C7.27504 1.72344 9.37148 1.49656 11 1.49656C12.6285 1.49656 14.725 1.72172 15.7364 2.22703C16.4364 2.57551 16.8279 3.40266 17.1733 4.1327C17.2838 4.36688 17.3452 4.59074 17.4604 4.79141C17.3744 4.79613 17.2756 4.79141 17.0397 4.78324H4.95945ZM19.9005 7.19422C19.8086 7.73047 19.8945 7.6875 18.9741 7.6875C18.1869 7.68546 17.4003 7.64157 16.6177 7.55602C16.4953 7.5341 16.4605 7.32742 16.5584 7.25094C16.9469 6.9591 17.3849 6.73987 17.8514 6.60383C18.7657 6.33441 19.2805 6.29832 19.7888 6.31637C19.823 6.31767 19.8554 6.33156 19.8799 6.35536C19.9045 6.37916 19.9193 6.41118 19.9216 6.44527C19.9459 6.69539 19.9388 6.94757 19.9005 7.19594V7.19422Z" fill="#79BF42"/>
</svg>
