<svg width="47" height="47" viewBox="0 0 47 47" fill="none" xmlns="http://www.w3.org/2000/svg">
<g filter="url(#filter0_i_57_4380)">
<circle cx="23.5" cy="23.5" r="23.5" transform="matrix(1 0 0 -1 0 47)" fill="#59862E" fill-opacity="0.03"/>
</g>
<path d="M30.5 21C30.8376 21 31.1641 20.9522 31.473 20.863C31.4909 21.0742 31.5 21.288 31.5 21.5039V25.5024L32.9183 28.6625C32.9732 28.7848 33.0016 28.9174 33.0016 29.0515C33.0016 29.5762 32.5763 30.0015 32.0516 30.0015H15.9522C15.8184 30.0015 15.6861 29.9733 15.564 29.9186C15.0851 29.7042 14.8707 29.1422 15.0851 28.6633L16.5 25.5028L16.5001 21.491L16.5045 21.2411C16.6436 17.2103 19.9559 14.0039 24 14.0039C25.4433 14.0039 26.7915 14.4116 27.9355 15.1181C27.355 15.7429 27 16.58 27 17.5C27 19.433 28.567 21 30.5 21ZM26.9583 31.003C26.7196 32.4211 25.486 33.5015 24 33.5015C22.514 33.5015 21.2804 32.4211 21.0417 31.003H26.9583ZM30.5 20C31.8807 20 33 18.8807 33 17.5C33 16.1193 31.8807 15 30.5 15C29.1193 15 28 16.1193 28 17.5C28 18.8807 29.1193 20 30.5 20Z" fill="white"/>
<defs>
<filter id="filter0_i_57_4380" x="0" y="0" width="47" height="47" filterUnits="userSpaceOnUse" color-interpolation-filters="sRGB">
<feFlood flood-opacity="0" result="BackgroundImageFix"/>
<feBlend mode="normal" in="SourceGraphic" in2="BackgroundImageFix" result="shape"/>
<feColorMatrix in="SourceAlpha" type="matrix" values="0 0 0 0 0 0 0 0 0 0 0 0 0 0 0 0 0 0 127 0" result="hardAlpha"/>
<feMorphology radius="3" operator="dilate" in="SourceAlpha" result="effect1_innerShadow_57_4380"/>
<feOffset/>
<feGaussianBlur stdDeviation="6"/>
<feComposite in2="hardAlpha" operator="arithmetic" k2="-1" k3="1"/>
<feColorMatrix type="matrix" values="0 0 0 0 0 0 0 0 0 0 0 0 0 0 0 0 0 0 0.13 0"/>
<feBlend mode="normal" in2="shape" result="effect1_innerShadow_57_4380"/>
</filter>
</defs>
</svg>
