<svg width="31" height="30" viewBox="0 0 31 30" fill="none" xmlns="http://www.w3.org/2000/svg">
<ellipse opacity="0.29" cx="15.2716" cy="15" rx="15.1163" ry="15" fill="url(#paint0_linear_426_6082)"/>
<path d="M17.175 13.8343V13.8342C17.1744 13.3489 16.9731 12.884 16.6159 12.5415C16.2588 12.199 15.775 12.0067 15.2708 12.0062L15.2708 12.0562V12.0062C14.8946 12.0062 14.5267 12.1131 14.2136 12.3137C13.9005 12.5144 13.6561 12.7997 13.5118 13.134C13.3673 13.4683 13.3295 13.8363 13.4032 14.1914C13.4768 14.5464 13.6585 14.8722 13.925 15.1277C14.1914 15.3832 14.5306 15.557 14.8996 15.6274C15.2686 15.6978 15.6511 15.6617 15.9988 15.5236C16.3465 15.3855 16.644 15.1514 16.8535 14.8508C17.063 14.5501 17.175 14.1964 17.175 13.8343ZM15.2707 14.6734C15.0968 14.6734 14.9269 14.6239 14.7826 14.5314C14.6384 14.439 14.5262 14.3078 14.4601 14.1547C14.394 14.0017 14.3767 13.8334 14.4104 13.671C14.4441 13.5087 14.5273 13.3592 14.6498 13.2417C14.7723 13.1242 14.9287 13.044 15.0993 13.0114C15.2698 12.9789 15.4466 12.9956 15.6071 13.0594C15.7676 13.1231 15.9045 13.231 16.0006 13.3689C16.0967 13.5069 16.1479 13.6688 16.1479 13.8342C16.1476 14.056 16.0556 14.2691 15.8914 14.4266C15.7271 14.5841 15.5039 14.6731 15.2707 14.6734Z" fill="#79BF42" stroke="#79BF42" stroke-width="0.1"/>
<path d="M11.0076 16.4973L11.0076 16.4973L14.5106 21.6544C14.5933 21.7761 14.7062 21.8759 14.839 21.9449C14.9717 22.0139 15.1202 22.05 15.271 22.05C15.4217 22.05 15.5702 22.0139 15.703 21.9449C15.8357 21.8759 15.9486 21.7761 16.0314 21.6544L19.5345 16.4973C20.1719 15.559 20.4537 14.4389 20.3324 13.3246C20.2111 12.2104 19.6942 11.1704 18.8687 10.3788L18.8341 10.4149L18.8687 10.3788C17.9788 9.52567 16.7913 9.01919 15.5355 8.95658C14.2797 8.89398 13.044 9.27964 12.0668 10.0396C11.0896 10.7996 10.4401 11.8801 10.2443 13.073C10.0486 14.2659 10.3206 15.4858 11.0076 16.4973ZM18.6749 15.9559L15.271 20.9669L11.867 15.9559C10.8263 14.4238 11.0492 12.3732 12.3981 11.0796C12.7752 10.718 13.2229 10.4311 13.7159 10.2352C14.2089 10.0394 14.7373 9.93861 15.271 9.93861C15.8047 9.93861 16.3331 10.0394 16.8261 10.2352C17.319 10.4311 17.7668 10.718 18.1439 11.0796C19.4928 12.3732 19.7157 14.4238 18.6749 15.9559Z" fill="#79BF42" stroke="#79BF42" stroke-width="0.1"/>
<defs>
<linearGradient id="paint0_linear_426_6082" x1="15.2716" y1="2.04486e-09" x2="15.364" y2="30.1448" gradientUnits="userSpaceOnUse">
<stop stop-color="#BCE599" stop-opacity="0.52"/>
<stop offset="1" stop-color="#A1D477"/>
</linearGradient>
</defs>
</svg>
