<svg width="67" height="67" viewBox="0 0 67 67" fill="none" xmlns="http://www.w3.org/2000/svg">
<circle cx="33.5" cy="33.5" r="33.5" fill="#86DD33" fill-opacity="0.15"/>
<circle cx="33.5" cy="33.5" r="23.5" fill="#86DD33" fill-opacity="0.26"/>
<path d="M41.0711 37.1087L39.7079 38.4598C38.7031 39.4481 37.3995 40.7188 35.7963 42.272C34.7946 43.2428 33.2054 43.2426 32.2038 42.2718L28.1944 38.3631C27.6905 37.8673 27.2687 37.4491 26.9289 37.1087C23.0237 33.1948 23.0237 26.8492 26.9289 22.9354C30.8342 19.0215 37.1659 19.0215 41.0711 22.9354C44.9763 26.8492 44.9763 33.1948 41.0711 37.1087ZM36.8714 30.3382C36.8714 28.7489 35.5858 27.4605 34 27.4605C32.4142 27.4605 31.1286 28.7489 31.1286 30.3382C31.1286 31.9275 32.4142 33.2159 34 33.2159C35.5858 33.2159 36.8714 31.9275 36.8714 30.3382Z" fill="white"/>
</svg>
