<svg width="8" height="14" viewBox="0 0 8 14" fill="none" xmlns="http://www.w3.org/2000/svg">
<path fill-rule="evenodd" clip-rule="evenodd" d="M7.70685 6.293C7.89433 6.48053 7.99964 6.73483 7.99964 7C7.99964 7.26516 7.89433 7.51947 7.70685 7.707L2.04985 13.364C1.95761 13.4595 1.84726 13.5357 1.72526 13.5881C1.60326 13.6405 1.47204 13.6681 1.33926 13.6692C1.20648 13.6704 1.0748 13.6451 0.951901 13.5948C0.829005 13.5445 0.717352 13.4703 0.623459 13.3764C0.529567 13.2825 0.455314 13.1708 0.405033 13.048C0.354752 12.9251 0.32945 12.7934 0.330604 12.6606C0.331758 12.5278 0.359344 12.3966 0.411753 12.2746C0.464162 12.1526 0.540344 12.0422 0.635854 11.95L5.58586 7L0.635854 2.05C0.453696 1.8614 0.352902 1.60879 0.35518 1.3466C0.357459 1.0844 0.462628 0.833587 0.648036 0.648179C0.833444 0.462771 1.08426 0.357602 1.34645 0.355323C1.60865 0.353045 1.86125 0.453839 2.04985 0.635997L7.70685 6.293Z" fill="black"/>
</svg>
