<svg width="12" height="12" viewBox="0 0 12 12" fill="none" xmlns="http://www.w3.org/2000/svg">
<path d="M9.59151 8.84761L8.89909 9.53238C8.38873 10.0332 7.72659 10.6772 6.91231 11.4644C6.40353 11.9564 5.59631 11.9564 5.08759 11.4643L3.05109 9.48338C2.79515 9.23208 2.58091 9.02016 2.40833 8.84761C0.424761 6.86404 0.424761 3.64801 2.40833 1.66444C4.39191 -0.319135 7.60794 -0.319135 9.59151 1.66444C11.5751 3.64801 11.5751 6.86404 9.59151 8.84761ZM7.45837 5.41627C7.45837 4.61077 6.80539 3.9578 5.99992 3.9578C5.19446 3.9578 4.54146 4.61077 4.54146 5.41627C4.54146 6.22173 5.19446 6.87472 5.99992 6.87472C6.80539 6.87472 7.45837 6.22173 7.45837 5.41627Z" fill="#565656"/>
</svg>
