<svg width="24" height="181" viewBox="0 0 24 181" fill="none" xmlns="http://www.w3.org/2000/svg">
<path d="M18.1573 16.8819L16.9703 18.0558C16.0954 18.9144 14.9603 20.0184 13.5644 21.3679C12.6922 22.2113 11.3084 22.2112 10.4363 21.3677L6.94515 17.9718C6.50639 17.541 6.13912 17.1777 5.84328 16.8819C2.44287 13.4815 2.44287 7.9683 5.84328 4.56789C9.24369 1.16748 14.7569 1.16748 18.1573 4.56789C21.5577 7.9683 21.5577 13.4815 18.1573 16.8819ZM14.5005 10.9996C14.5005 9.61875 13.3811 8.49936 12.0003 8.49936C10.6195 8.49936 9.50007 9.61875 9.50007 10.9996C9.50007 12.3804 10.6195 13.4998 12.0003 13.4998C13.3811 13.4998 14.5005 12.3804 14.5005 10.9996Z" fill="#79BF42"/>
<path d="M18.1573 93.8819L16.9703 95.0558C16.0954 95.9144 14.9603 97.0184 13.5644 98.3679C12.6922 99.2113 11.3084 99.2112 10.4363 98.3677L6.94515 94.9718C6.50639 94.541 6.13912 94.1777 5.84328 93.8819C2.44287 90.4815 2.44287 84.9683 5.84328 81.5679C9.24369 78.1675 14.7569 78.1675 18.1573 81.5679C21.5577 84.9683 21.5577 90.4815 18.1573 93.8819ZM14.5005 87.9996C14.5005 86.6187 13.3811 85.4994 12.0003 85.4994C10.6195 85.4994 9.50007 86.6187 9.50007 87.9996C9.50007 89.3804 10.6195 90.4998 12.0003 90.4998C13.3811 90.4998 14.5005 89.3804 14.5005 87.9996Z" fill="#79BF42"/>
<path d="M18.1573 173.882L16.9703 175.056C16.0954 175.914 14.9603 177.018 13.5644 178.368C12.6922 179.211 11.3084 179.211 10.4363 178.368L6.94515 174.972C6.50639 174.541 6.13912 174.178 5.84328 173.882C2.44287 170.481 2.44287 164.968 5.84328 161.568C9.24369 158.167 14.7569 158.167 18.1573 161.568C21.5577 164.968 21.5577 170.481 18.1573 173.882ZM14.5005 168C14.5005 166.619 13.3811 165.499 12.0003 165.499C10.6195 165.499 9.50007 166.619 9.50007 168C9.50007 169.38 10.6195 170.5 12.0003 170.5C13.3811 170.5 14.5005 169.38 14.5005 168Z" fill="#79BF42"/>
<line x1="11.5" y1="25" x2="11.5" y2="73" stroke="#79BF42" stroke-dasharray="6 6"/>
<line x1="11.5" y1="105" x2="11.5" y2="153" stroke="#79BF42" stroke-dasharray="6 6"/>
</svg>
