<svg width="16" height="19" viewBox="0 0 16 19" fill="none" xmlns="http://www.w3.org/2000/svg">
<path d="M13.25 10C13.8467 10 14.419 10.2371 14.841 10.659C15.2629 11.081 15.5 11.6533 15.5 12.25V13C15.5 15.9565 12.71 19 8 19C3.29 19 0.5 15.9565 0.5 13V12.25C0.5 11.6533 0.737053 11.081 1.15901 10.659C1.58097 10.2371 2.15326 10 2.75 10H13.25ZM8 0.25C9.09402 0.25 10.1432 0.684597 10.9168 1.45818C11.6904 2.23177 12.125 3.28098 12.125 4.375C12.125 5.46902 11.6904 6.51823 10.9168 7.29182C10.1432 8.0654 9.09402 8.5 8 8.5C6.90598 8.5 5.85677 8.0654 5.08318 7.29182C4.3096 6.51823 3.875 5.46902 3.875 4.375C3.875 3.28098 4.3096 2.23177 5.08318 1.45818C5.85677 0.684597 6.90598 0.25 8 0.25Z" fill="#565656"/>
</svg>
