<svg width="19" height="21" viewBox="0 0 19 21" fill="none" xmlns="http://www.w3.org/2000/svg">
<path d="M15.5 7.5C15.8376 7.5 16.1641 7.45219 16.473 7.36298C16.4909 7.57425 16.5 7.78801 16.5 8.00391V12.0024L17.9183 15.1625C17.9732 15.2848 18.0016 15.4174 18.0016 15.5515C18.0016 16.0762 17.5763 16.5015 17.0516 16.5015H0.95219C0.8184 16.5015 0.68613 16.4733 0.56402 16.4186C0.0851497 16.2042 -0.12927 15.6422 0.0851098 15.1633L1.50001 12.0028L1.50011 7.99099L1.50453 7.74107C1.6436 3.71035 4.95588 0.503906 9 0.503906C10.4433 0.503906 11.7915 0.911616 12.9355 1.61815C12.355 2.24286 12 3.07997 12 4C12 5.933 13.567 7.5 15.5 7.5ZM11.9583 17.503C11.7196 18.9211 10.486 20.0015 9 20.0015C7.514 20.0015 6.28037 18.9211 6.04173 17.503H11.9583ZM15.5 6.5C16.8807 6.5 18 5.38071 18 4C18 2.61929 16.8807 1.5 15.5 1.5C14.1193 1.5 13 2.61929 13 4C13 5.38071 14.1193 6.5 15.5 6.5Z" fill="#565656"/>
</svg>
