<svg width="11" height="14" viewBox="0 0 11 14" fill="none" xmlns="http://www.w3.org/2000/svg">
<path d="M0.666504 13.6666V9.66658H2.6665V13.6666H0.666504ZM3.99984 13.6666V5.73325C3.44428 5.92214 3.08317 6.26936 2.9165 6.77492C2.74984 7.28047 2.6665 7.79992 2.6665 8.33325H1.33317C1.33317 6.91103 1.74984 5.7777 2.58317 4.93325C3.4165 4.08881 4.55539 3.66658 5.99984 3.66658C7.11095 3.66658 7.94428 3.39159 8.49984 2.84159C9.05539 2.29159 9.33317 1.45547 9.33317 0.333252H10.6665C10.6665 1.31103 10.4582 2.18603 10.0415 2.95825C9.62484 3.73047 8.94428 4.2777 7.99984 4.59992V13.6666H6.6665V9.66658H5.33317V13.6666H3.99984ZM5.99984 2.99992C5.63317 2.99992 5.31928 2.86936 5.05817 2.60825C4.79706 2.34714 4.6665 2.03325 4.6665 1.66659C4.6665 1.29992 4.79706 0.98603 5.05817 0.724919C5.31928 0.463808 5.63317 0.333252 5.99984 0.333252C6.3665 0.333252 6.68039 0.463808 6.9415 0.724919C7.20262 0.98603 7.33317 1.29992 7.33317 1.66659C7.33317 2.03325 7.20262 2.34714 6.9415 2.60825C6.68039 2.86936 6.3665 2.99992 5.99984 2.99992Z" fill="#565656"/>
</svg>
