<svg width="12" height="13" viewBox="0 0 12 13" fill="none" xmlns="http://www.w3.org/2000/svg">
<path d="M9.59151 9.34773L8.89909 10.0325C8.38873 10.5334 7.72659 11.1774 6.91231 11.9646C6.40353 12.4565 5.59631 12.4565 5.08759 11.9644L3.05109 9.98351C2.79515 9.73221 2.58091 9.52028 2.40833 9.34773C0.424761 7.36417 0.424761 4.14813 2.40833 2.16456C4.39191 0.180987 7.60794 0.180987 9.59151 2.16456C11.5751 4.14813 11.5751 7.36417 9.59151 9.34773ZM7.45837 5.91639C7.45837 5.11089 6.80539 4.45792 5.99992 4.45792C5.19446 4.45792 4.54146 5.11089 4.54146 5.91639C4.54146 6.72186 5.19446 7.37484 5.99992 7.37484C6.80539 7.37484 7.45837 6.72186 7.45837 5.91639Z" fill="#565656"/>
</svg>
