<svg width="13" height="11" viewBox="0 0 13 11" fill="none" xmlns="http://www.w3.org/2000/svg">
<path d="M2.75 8.875V9.5C2.75 9.67708 2.6901 9.82552 2.57031 9.94531C2.45052 10.0651 2.30208 10.125 2.125 10.125H1.5C1.32292 10.125 1.17448 10.0651 1.05469 9.94531C0.934896 9.82552 0.875 9.67708 0.875 9.5V4.5L2.1875 0.75C2.25 0.5625 2.36198 0.411458 2.52344 0.296875C2.6849 0.182292 2.86458 0.125 3.0625 0.125H9.9375C10.1354 0.125 10.3151 0.182292 10.4766 0.296875C10.638 0.411458 10.75 0.5625 10.8125 0.75L12.125 4.5V9.5C12.125 9.67708 12.0651 9.82552 11.9453 9.94531C11.8255 10.0651 11.6771 10.125 11.5 10.125H10.875C10.6979 10.125 10.5495 10.0651 10.4297 9.94531C10.3099 9.82552 10.25 9.67708 10.25 9.5V8.875H2.75ZM2.625 3.25H10.375L9.71875 1.375H3.28125L2.625 3.25ZM3.6875 7C3.94792 7 4.16927 6.90885 4.35156 6.72656C4.53385 6.54427 4.625 6.32292 4.625 6.0625C4.625 5.80208 4.53385 5.58073 4.35156 5.39844C4.16927 5.21615 3.94792 5.125 3.6875 5.125C3.42708 5.125 3.20573 5.21615 3.02344 5.39844C2.84115 5.58073 2.75 5.80208 2.75 6.0625C2.75 6.32292 2.84115 6.54427 3.02344 6.72656C3.20573 6.90885 3.42708 7 3.6875 7ZM9.3125 7C9.57292 7 9.79427 6.90885 9.97656 6.72656C10.1589 6.54427 10.25 6.32292 10.25 6.0625C10.25 5.80208 10.1589 5.58073 9.97656 5.39844C9.79427 5.21615 9.57292 5.125 9.3125 5.125C9.05208 5.125 8.83073 5.21615 8.64844 5.39844C8.46615 5.58073 8.375 5.80208 8.375 6.0625C8.375 6.32292 8.46615 6.54427 8.64844 6.72656C8.83073 6.90885 9.05208 7 9.3125 7Z" fill="#565656"/>
</svg>
