<svg width="12" height="13" viewBox="0 0 12 13" fill="none" xmlns="http://www.w3.org/2000/svg">
<path d="M3.52097 0.958374C3.52097 0.842342 3.47488 0.731062 3.39283 0.649015C3.31079 0.566968 3.19951 0.520874 3.08347 0.520874C2.96744 0.520874 2.85616 0.566968 2.77411 0.649015C2.69207 0.731062 2.64597 0.842342 2.64597 0.958374V1.88004C1.80597 1.94712 1.25531 2.11162 0.850474 2.51704C0.445057 2.92187 0.280557 3.47312 0.212891 4.31254H11.7874C11.7197 3.47254 11.5552 2.92187 11.1498 2.51704C10.745 2.11162 10.1937 1.94712 9.35431 1.87946V0.958374C9.35431 0.842342 9.30821 0.731062 9.22617 0.649015C9.14412 0.566968 9.03284 0.520874 8.91681 0.520874C8.80077 0.520874 8.68949 0.566968 8.60745 0.649015C8.5254 0.731062 8.47931 0.842342 8.47931 0.958374V1.84096C8.09139 1.83337 7.65622 1.83337 7.16681 1.83337H4.83347C4.34406 1.83337 3.90889 1.83337 3.52097 1.84096V0.958374Z" fill="#565656"/>
<path fill-rule="evenodd" clip-rule="evenodd" d="M0.166748 6.5C0.166748 6.01058 0.166748 5.57542 0.174331 5.1875H11.8258C11.8334 5.57542 11.8334 6.01058 11.8334 6.5V7.66667C11.8334 9.86642 11.8334 10.9666 11.1497 11.6497C10.4667 12.3333 9.3665 12.3333 7.16675 12.3333H4.83342C2.63366 12.3333 1.5335 12.3333 0.850415 11.6497C0.166748 10.9666 0.166748 9.86642 0.166748 7.66667V6.5ZM8.91675 7.66667C9.07146 7.66667 9.21983 7.60521 9.32923 7.49581C9.43862 7.38642 9.50008 7.23804 9.50008 7.08333C9.50008 6.92862 9.43862 6.78025 9.32923 6.67085C9.21983 6.56146 9.07146 6.5 8.91675 6.5C8.76204 6.5 8.61367 6.56146 8.50427 6.67085C8.39487 6.78025 8.33342 6.92862 8.33342 7.08333C8.33342 7.23804 8.39487 7.38642 8.50427 7.49581C8.61367 7.60521 8.76204 7.66667 8.91675 7.66667ZM8.91675 10C9.07146 10 9.21983 9.93854 9.32923 9.82915C9.43862 9.71975 9.50008 9.57138 9.50008 9.41667C9.50008 9.26196 9.43862 9.11358 9.32923 9.00419C9.21983 8.89479 9.07146 8.83333 8.91675 8.83333C8.76204 8.83333 8.61367 8.89479 8.50427 9.00419C8.39487 9.11358 8.33342 9.26196 8.33342 9.41667C8.33342 9.57138 8.39487 9.71975 8.50427 9.82915C8.61367 9.93854 8.76204 10 8.91675 10ZM6.58342 7.08333C6.58342 7.23804 6.52196 7.38642 6.41256 7.49581C6.30316 7.60521 6.15479 7.66667 6.00008 7.66667C5.84537 7.66667 5.697 7.60521 5.5876 7.49581C5.47821 7.38642 5.41675 7.23804 5.41675 7.08333C5.41675 6.92862 5.47821 6.78025 5.5876 6.67085C5.697 6.56146 5.84537 6.5 6.00008 6.5C6.15479 6.5 6.30316 6.56146 6.41256 6.67085C6.52196 6.78025 6.58342 6.92862 6.58342 7.08333ZM6.58342 9.41667C6.58342 9.57138 6.52196 9.71975 6.41256 9.82915C6.30316 9.93854 6.15479 10 6.00008 10C5.84537 10 5.697 9.93854 5.5876 9.82915C5.47821 9.71975 5.41675 9.57138 5.41675 9.41667C5.41675 9.26196 5.47821 9.11358 5.5876 9.00419C5.697 8.89479 5.84537 8.83333 6.00008 8.83333C6.15479 8.83333 6.30316 8.89479 6.41256 9.00419C6.52196 9.11358 6.58342 9.26196 6.58342 9.41667ZM3.08342 7.66667C3.23812 7.66667 3.3865 7.60521 3.49589 7.49581C3.60529 7.38642 3.66675 7.23804 3.66675 7.08333C3.66675 6.92862 3.60529 6.78025 3.49589 6.67085C3.3865 6.56146 3.23812 6.5 3.08342 6.5C2.92871 6.5 2.78033 6.56146 2.67094 6.67085C2.56154 6.78025 2.50008 6.92862 2.50008 7.08333C2.50008 7.23804 2.56154 7.38642 2.67094 7.49581C2.78033 7.60521 2.92871 7.66667 3.08342 7.66667ZM3.08342 10C3.23812 10 3.3865 9.93854 3.49589 9.82915C3.60529 9.71975 3.66675 9.57138 3.66675 9.41667C3.66675 9.26196 3.60529 9.11358 3.49589 9.00419C3.3865 8.89479 3.23812 8.83333 3.08342 8.83333C2.92871 8.83333 2.78033 8.89479 2.67094 9.00419C2.56154 9.11358 2.50008 9.26196 2.50008 9.41667C2.50008 9.57138 2.56154 9.71975 2.67094 9.82915C2.78033 9.93854 2.92871 10 3.08342 10Z" fill="#565656"/>
</svg>
