<svg width="390" height="844" viewBox="0 0 390 844" fill="none" xmlns="http://www.w3.org/2000/svg">
<rect width="390" height="844" fill="#44AA02"/>
<path d="M127.533 451.698L118.805 436.701V450.265C118.805 450.707 118.904 451.049 119.104 451.291C119.304 451.52 119.66 451.712 120.174 451.869V452.447H112.215V451.848C112.714 451.719 113.064 451.534 113.264 451.291C113.478 451.049 113.584 450.707 113.584 450.265V430.668C113.584 430.226 113.485 429.89 113.285 429.662C113.085 429.42 112.729 429.227 112.215 429.085V428.485H122.335V429.085C121.664 429.298 121.329 429.705 121.329 430.304C121.329 430.889 121.572 431.602 122.056 432.443L128.025 442.52L134.037 432.593C134.722 431.466 135.064 430.668 135.064 430.197C135.064 429.612 134.715 429.241 134.016 429.085V428.485H143.878V429.085C143.365 429.227 143.008 429.42 142.809 429.662C142.609 429.89 142.509 430.226 142.509 430.668V450.265C142.509 450.707 142.609 451.049 142.809 451.291C143.008 451.534 143.365 451.726 143.878 451.869V452.447H135.406V451.848C135.905 451.719 136.255 451.534 136.455 451.291C136.669 451.049 136.776 450.707 136.776 450.265V436.701L127.533 451.698Z" fill="white"/>
<path d="M155.217 442.605V450.265C155.217 450.707 155.317 451.049 155.517 451.291C155.716 451.52 156.073 451.712 156.586 451.869V452.447H148.114V451.848C148.613 451.719 148.963 451.534 149.163 451.291C149.377 451.049 149.483 450.707 149.483 450.265V430.668C149.483 430.226 149.384 429.89 149.184 429.662C148.984 429.434 148.628 429.241 148.114 429.085V428.485H163.817C165.857 428.485 167.412 428.592 168.481 428.806C169.551 429.006 170.507 429.377 171.348 429.919C173.074 431.046 173.937 432.886 173.937 435.439C173.937 437.378 173.402 438.897 172.332 439.995C171.277 441.079 169.565 441.864 167.198 442.349L171.733 448.681C172.56 449.851 173.217 450.65 173.701 451.077C174.201 451.491 174.764 451.755 175.392 451.869V452.447H165.336V451.869C166.078 451.669 166.449 451.348 166.449 450.906C166.449 450.593 166.221 450.115 165.764 449.473L160.972 442.605H155.217ZM155.217 438.263H163.86C165.172 438.263 166.142 438.12 166.77 437.835C167.654 437.45 168.096 436.686 168.096 435.545C168.096 434.533 167.782 433.827 167.155 433.427C166.542 433.028 165.443 432.828 163.86 432.828H155.217V438.263Z" fill="white"/>
<path d="M197.47 446.456H186.452L185.211 449.066C184.912 449.694 184.762 450.186 184.762 450.543C184.762 451.227 185.218 451.662 186.131 451.848V452.447H177.317V451.848C177.859 451.762 178.258 451.598 178.515 451.356C178.786 451.113 179.1 450.635 179.456 449.922L188.207 432.208C188.535 431.538 188.699 430.953 188.699 430.454C188.699 429.869 188.299 429.413 187.501 429.085V428.485H196.807V429.085C196.022 429.398 195.63 429.883 195.63 430.539C195.63 431.01 195.808 431.588 196.165 432.272L205.236 449.452C205.735 450.393 206.127 451.006 206.413 451.291C206.698 451.562 207.133 451.755 207.718 451.869V452.447H197.941V451.869C198.868 451.712 199.331 451.277 199.331 450.564C199.331 450.122 199.153 449.573 198.797 448.917L197.47 446.456ZM195.737 443.098L191.822 435.417L188.1 443.098H195.737Z" fill="white"/>
<path d="M230.203 442.028H216.832V450.265C216.832 450.707 216.931 451.049 217.131 451.291C217.331 451.52 217.687 451.712 218.201 451.869V452.447H209.729V451.848C210.228 451.719 210.577 451.534 210.777 451.291C210.991 451.049 211.098 450.707 211.098 450.265V430.668C211.098 430.226 210.998 429.89 210.799 429.662C210.599 429.434 210.242 429.241 209.729 429.085V428.485H218.201V429.085C217.687 429.227 217.331 429.42 217.131 429.662C216.931 429.89 216.832 430.226 216.832 430.668V437.685H230.203V430.668C230.203 430.226 230.103 429.89 229.903 429.662C229.718 429.434 229.361 429.241 228.834 429.085V428.485H237.306V429.085C236.792 429.227 236.436 429.42 236.236 429.662C236.036 429.89 235.936 430.226 235.936 430.668V450.265C235.936 450.707 236.036 451.049 236.236 451.291C236.436 451.52 236.792 451.712 237.306 451.869V452.447H228.834V451.848C229.333 451.719 229.682 451.534 229.882 451.291C230.096 451.049 230.203 450.707 230.203 450.265V442.028Z" fill="white"/>
<path d="M267.321 444.489C267.321 444.739 267.225 445.02 267.033 445.334C266.84 445.648 266.58 445.979 266.252 446.329C265.924 446.671 265.542 447.028 265.107 447.399C264.672 447.769 264.212 448.14 263.727 448.511C263.071 449.01 262.372 449.488 261.631 449.944C260.896 450.401 260.147 450.807 259.384 451.164C258.621 451.513 257.862 451.791 257.106 451.998C256.35 452.212 255.63 452.319 254.945 452.319C254.125 452.319 253.415 452.201 252.816 451.966C252.217 451.738 251.722 451.41 251.329 450.982C250.937 450.554 250.645 450.041 250.452 449.442C250.267 448.835 250.174 448.165 250.174 447.431C250.174 446.817 250.245 446.19 250.388 445.548C250.531 444.906 250.727 444.271 250.976 443.644C251.233 443.016 251.533 442.41 251.875 441.825C252.217 441.241 252.585 440.702 252.977 440.21C253.205 439.925 253.476 439.629 253.79 439.322C254.104 439.009 254.435 438.702 254.785 438.402C255.134 438.103 255.487 437.825 255.844 437.568C256.2 437.304 256.539 437.076 256.86 436.883C257.088 436.748 257.377 436.598 257.726 436.434C258.076 436.263 258.439 436.106 258.817 435.963C259.202 435.814 259.58 435.689 259.951 435.589C260.322 435.489 260.643 435.439 260.914 435.439C261.399 435.439 261.784 435.471 262.069 435.536C262.354 435.6 262.608 435.714 262.829 435.878C262.936 435.956 263.057 436.078 263.192 436.242C263.328 436.406 263.456 436.584 263.577 436.776C263.699 436.969 263.802 437.162 263.888 437.354C263.973 437.539 264.016 437.696 264.016 437.825C264.016 437.91 263.988 438.028 263.93 438.178C263.881 438.32 263.813 438.477 263.727 438.648C263.642 438.82 263.545 438.998 263.438 439.183C263.331 439.362 263.224 439.533 263.117 439.697C263.018 439.861 262.921 440.007 262.829 440.135C262.736 440.264 262.665 440.36 262.615 440.424C262.294 440.802 261.891 440.991 261.406 440.991C260.999 440.991 260.682 440.877 260.454 440.649C260.233 440.421 260.122 440.135 260.122 439.793C260.122 439.686 260.183 439.518 260.304 439.29C260.425 439.055 260.625 438.798 260.903 438.52C261.039 438.385 261.156 438.253 261.256 438.124C261.356 437.989 261.435 437.871 261.492 437.771C261.313 437.707 261.131 437.675 260.946 437.675C260.725 437.675 260.447 437.732 260.112 437.846C259.784 437.953 259.438 438.092 259.074 438.263C258.717 438.427 258.368 438.613 258.026 438.82C257.683 439.026 257.395 439.226 257.159 439.419C256.503 439.953 255.883 440.556 255.298 441.226C254.713 441.897 254.228 442.628 253.843 443.419C253.693 443.733 253.551 444.068 253.415 444.425C253.28 444.781 253.162 445.145 253.062 445.516C252.963 445.88 252.884 446.247 252.827 446.618C252.77 446.981 252.741 447.327 252.741 447.655C252.741 448.019 252.781 448.354 252.859 448.661C252.938 448.967 253.066 449.235 253.244 449.463C253.43 449.691 253.669 449.87 253.961 449.998C254.253 450.126 254.613 450.19 255.041 450.19C255.548 450.19 256.079 450.123 256.635 449.987C257.191 449.845 257.755 449.656 258.325 449.42C258.896 449.178 259.466 448.903 260.037 448.597C260.614 448.283 261.167 447.955 261.695 447.612C262.23 447.27 262.732 446.924 263.203 446.575C263.681 446.225 264.112 445.894 264.497 445.58C264.647 445.459 264.811 445.316 264.989 445.152C265.175 444.988 265.36 444.817 265.546 444.639C265.738 444.46 265.924 444.279 266.102 444.093C266.287 443.908 266.455 443.737 266.605 443.58C266.769 443.665 266.897 443.74 266.99 443.804C267.09 443.869 267.161 443.936 267.204 444.008C267.254 444.072 267.286 444.143 267.3 444.222C267.314 444.3 267.321 444.389 267.321 444.489Z" fill="white"/>
<path d="M273.087 441.633C273.087 441.611 273.08 441.572 273.066 441.515C273.059 441.451 273.048 441.401 273.034 441.365C272.798 441.394 272.538 441.487 272.253 441.644C271.975 441.793 271.671 442.025 271.343 442.339C271.023 442.653 270.677 443.059 270.306 443.558C269.935 444.05 269.546 444.653 269.14 445.366C269.033 445.559 268.919 445.769 268.798 445.997C268.676 446.218 268.562 446.457 268.455 446.714C268.355 446.971 268.273 447.245 268.209 447.538C268.145 447.823 268.113 448.126 268.113 448.447C268.113 448.568 268.145 448.661 268.209 448.725C268.281 448.782 268.352 448.811 268.423 448.811C268.587 448.811 268.798 448.718 269.054 448.532C269.318 448.34 269.6 448.087 269.899 447.773C270.206 447.459 270.516 447.103 270.83 446.703C271.151 446.297 271.447 445.883 271.718 445.462C271.989 445.034 272.224 444.614 272.424 444.2C272.631 443.779 272.773 443.401 272.852 443.066C272.873 442.959 272.898 442.834 272.927 442.692C272.955 442.549 272.98 442.41 273.001 442.275C273.03 442.132 273.051 442.004 273.066 441.89C273.08 441.775 273.087 441.69 273.087 441.633ZM281.72 442.981C281.72 443.109 281.698 443.245 281.655 443.387C281.613 443.53 281.555 443.672 281.484 443.815C281.42 443.958 281.345 444.1 281.26 444.243C281.174 444.386 281.085 444.517 280.992 444.639C280.579 445.195 280.133 445.719 279.655 446.211C279.184 446.696 278.71 447.152 278.232 447.58C277.976 447.809 277.712 448.015 277.441 448.201C277.17 448.386 276.899 448.547 276.628 448.682C276.357 448.818 276.093 448.921 275.836 448.992C275.579 449.064 275.341 449.099 275.119 449.099C274.848 449.099 274.588 449.014 274.339 448.843C274.089 448.671 273.868 448.458 273.675 448.201C273.49 447.937 273.34 447.655 273.226 447.356C273.119 447.056 273.066 446.778 273.066 446.521C272.98 446.65 272.855 446.821 272.691 447.035C272.527 447.249 272.356 447.466 272.178 447.687C272 447.908 271.832 448.112 271.675 448.297C271.525 448.475 271.418 448.604 271.354 448.682C271.126 448.925 270.862 449.174 270.563 449.431C270.263 449.688 269.964 449.919 269.664 450.126C269.372 450.333 269.097 450.504 268.84 450.64C268.584 450.768 268.388 450.832 268.252 450.832C267.938 450.832 267.635 450.782 267.343 450.682C267.05 450.583 266.79 450.44 266.562 450.255C266.341 450.062 266.163 449.827 266.027 449.549C265.892 449.27 265.824 448.953 265.824 448.597C265.824 448.247 265.87 447.866 265.963 447.452C266.063 447.031 266.195 446.596 266.359 446.147C266.53 445.691 266.733 445.231 266.968 444.767C267.204 444.304 267.457 443.854 267.728 443.419C268.006 442.977 268.298 442.56 268.605 442.168C268.912 441.775 269.225 441.426 269.546 441.119C270.117 440.577 270.723 440.178 271.365 439.921C272.007 439.665 272.67 439.536 273.354 439.536C273.533 439.536 273.683 439.561 273.804 439.611C273.925 439.661 274.028 439.729 274.114 439.814C274.2 439.893 274.271 439.986 274.328 440.092C274.392 440.199 274.449 440.306 274.499 440.413C274.535 440.463 274.592 440.535 274.67 440.627C274.756 440.713 274.841 440.809 274.927 440.916C275.013 441.023 275.087 441.13 275.152 441.237C275.216 441.344 275.248 441.44 275.248 441.526C275.248 441.676 275.226 441.84 275.184 442.018C275.141 442.189 275.095 442.389 275.045 442.617C275.002 442.845 274.959 443.105 274.916 443.398C274.873 443.683 274.852 444.015 274.852 444.393C274.852 444.607 274.866 444.856 274.895 445.141C274.931 445.427 274.98 445.694 275.045 445.944C275.109 446.193 275.187 446.407 275.28 446.586C275.38 446.757 275.49 446.842 275.612 446.842C275.761 446.842 275.893 446.828 276.007 446.799C276.129 446.764 276.243 446.717 276.35 446.66C276.457 446.596 276.564 446.521 276.671 446.436C276.785 446.35 276.913 446.258 277.056 446.158C277.498 445.837 277.94 445.466 278.382 445.045C278.831 444.624 279.288 444.193 279.751 443.751C279.88 443.63 280.012 443.494 280.147 443.344C280.29 443.195 280.432 443.056 280.575 442.927C280.725 442.799 280.871 442.692 281.014 442.606C281.156 442.521 281.292 442.478 281.42 442.478C281.62 442.478 281.72 442.645 281.72 442.981Z" fill="white"/>
<path d="M290.448 442.563C290.448 442.856 290.356 443.098 290.17 443.291C289.985 443.476 289.753 443.569 289.475 443.569C289.282 443.569 289.108 443.533 288.951 443.462C288.801 443.391 288.662 443.312 288.533 443.227C288.405 443.134 288.284 443.052 288.17 442.981C288.063 442.909 287.952 442.874 287.838 442.874C287.71 442.874 287.571 442.916 287.421 443.002C287.271 443.088 287.114 443.205 286.95 443.355C286.786 443.498 286.615 443.665 286.437 443.858C286.266 444.05 286.095 444.254 285.923 444.468C285.802 444.617 285.667 444.799 285.517 445.013C285.367 445.22 285.217 445.437 285.068 445.666C284.918 445.894 284.775 446.126 284.64 446.361C284.504 446.596 284.387 446.814 284.287 447.013C284.201 447.192 284.105 447.399 283.998 447.634C283.898 447.869 283.802 448.108 283.709 448.351C283.624 448.593 283.545 448.825 283.474 449.046C283.403 449.267 283.356 449.452 283.335 449.602C283.292 449.88 283.249 450.137 283.206 450.372C283.164 450.608 283.103 450.811 283.025 450.982C282.953 451.146 282.853 451.274 282.725 451.367C282.604 451.46 282.436 451.506 282.222 451.506C281.837 451.506 281.548 451.424 281.356 451.26C281.163 451.096 281.024 450.886 280.939 450.629C280.86 450.372 280.814 450.091 280.8 449.784C280.785 449.477 280.764 449.181 280.735 448.896C280.714 448.711 280.696 448.525 280.682 448.34C280.668 448.154 280.653 447.962 280.639 447.762C280.632 447.555 280.625 447.338 280.618 447.11C280.611 446.874 280.607 446.618 280.607 446.34C280.607 445.976 280.621 445.569 280.65 445.12C280.678 444.671 280.71 444.239 280.746 443.826C280.789 443.412 280.832 443.045 280.874 442.724C280.924 442.403 280.967 442.189 281.003 442.082C281.074 441.89 281.17 441.708 281.292 441.537C281.413 441.358 281.545 441.205 281.687 441.077C281.837 440.941 281.991 440.834 282.147 440.756C282.311 440.677 282.468 440.638 282.618 440.638C282.754 440.638 282.889 440.656 283.025 440.692C283.167 440.727 283.292 440.788 283.399 440.873C283.513 440.959 283.606 441.073 283.677 441.216C283.748 441.351 283.784 441.522 283.784 441.729C283.784 441.779 283.766 441.861 283.731 441.975C283.695 442.082 283.649 442.239 283.591 442.446C283.527 442.667 283.456 442.924 283.378 443.216C283.299 443.508 283.224 443.808 283.153 444.115C283.089 444.421 283.032 444.724 282.982 445.024C282.932 445.323 282.903 445.591 282.896 445.826C282.932 445.748 282.996 445.619 283.089 445.441C283.181 445.256 283.278 445.063 283.378 444.863C283.485 444.657 283.588 444.46 283.688 444.275C283.788 444.082 283.862 443.943 283.912 443.858C284.119 443.508 284.358 443.138 284.629 442.745C284.9 442.353 285.207 441.993 285.549 441.665C285.898 441.33 286.291 441.055 286.726 440.841C287.161 440.62 287.639 440.51 288.159 440.51C288.558 440.51 288.901 440.57 289.186 440.692C289.478 440.806 289.717 440.959 289.903 441.151C290.088 441.344 290.224 441.565 290.309 441.815C290.402 442.057 290.448 442.307 290.448 442.563Z" fill="white"/>
<path d="M324.885 424.4C320.525 421.529 291.61 412.83 286.537 411.639C280.674 410.314 274.736 409.348 268.756 408.746C256.7 407.663 244.592 407.276 232.492 407.587C223.888 407.693 215.21 407.885 206.745 406.353C198.28 404.822 189.9 401.44 183.838 395.325C194.481 393.628 205.293 393.249 216.029 394.198C226.738 395.325 237.352 398.367 246.529 403.992C243.594 400.068 238.894 397.909 234.257 396.325C220.251 391.539 205.214 390.582 190.41 390.912C185.623 391.112 180.828 391.009 176.053 390.603C171.8 390.157 167.758 388.083 163.377 388.126H162.835L166.025 392.018L134.61 397.548L136.844 397.878C148.924 399.685 161.016 401.398 173.001 403.854C185.21 406.353 197.376 409.108 209.723 410.767C212.807 411.181 215.902 411.532 219.007 411.83C242.85 413.819 267.012 410.841 290.855 414.468C294.396 414.989 321.801 422.38 324.885 424.4Z" fill="white"/>
<path d="M206.15 416.743C199.056 414.617 191.942 412.49 184.753 410.65C176.202 408.523 167.578 406.69 158.879 405.152C148.095 403.291 137.141 401.961 126.22 402.706C118.775 403.216 111.416 405.513 107.885 412.628C108.151 412.075 110.459 411.511 111.076 411.298C113.022 410.667 115.008 410.166 117.021 409.799C121.154 409.035 125.345 408.618 129.548 408.555C138.056 408.353 146.564 409.289 155.071 410.246C166.855 411.575 178.68 412.755 190.4 414.5L206.15 416.743Z" fill="white"/>
<path d="M86.5948 452.816C92.3801 452.816 96.8076 451.71 99.8775 449.498C101.669 448.213 102.982 446.369 103.61 444.255C104.331 441.707 104.671 439.066 104.621 436.418V412.256V409.725C104.6 409.598 104.6 409.468 104.621 409.342C104.672 409.247 104.742 409.164 104.826 409.096C104.91 409.029 105.006 408.978 105.11 408.948C105.96 408.572 106.726 408.029 107.364 407.353C107.567 407.167 107.721 406.933 107.811 406.672C107.861 406.394 107.848 406.108 107.773 405.836C107.697 405.563 107.561 405.311 107.375 405.098C106.873 404.386 106.233 403.782 105.493 403.322C105.162 403.17 104.877 402.936 104.663 402.642C104.497 402.27 104.41 401.868 104.408 401.461C104.408 401.11 104.27 400.791 104.206 400.451C103.791 397.952 103.355 395.453 102.93 392.954C102.313 389.306 101.26 385.658 100.633 382C100.016 385.658 98.9629 389.306 98.3355 392.954C97.9207 395.453 97.4847 397.952 97.0593 400.451C97.0593 400.791 96.8998 401.11 96.8679 401.461C96.8656 401.868 96.7786 402.27 96.6127 402.642C96.3932 402.93 96.1091 403.164 95.7832 403.322C95.0372 403.779 94.3928 404.383 93.8902 405.098C93.7084 405.314 93.5754 405.566 93.5001 405.838C93.4249 406.109 93.4092 406.394 93.4542 406.672C93.548 406.931 93.701 407.164 93.9008 407.353C94.5427 408.025 95.3082 408.566 96.1554 408.948C96.2588 408.978 96.3552 409.029 96.4392 409.096C96.5231 409.164 96.5929 409.247 96.6446 409.342C96.6654 409.468 96.6654 409.598 96.6446 409.725C96.6446 410.575 96.6446 411.415 96.6446 412.256V433.769C96.6904 435.612 96.573 437.456 96.2936 439.278C96.1172 440.365 95.6752 441.392 95.0068 442.267C93.3266 444.394 90.4658 445.457 86.4247 445.457C82.3835 445.457 79.5228 444.394 77.8425 442.267C77.1707 441.391 76.7218 440.366 76.5344 439.278C76.2653 437.455 76.1515 435.612 76.1941 433.769V412.256V409.725C76.1733 409.598 76.1733 409.468 76.1941 409.342C76.2458 409.247 76.3156 409.164 76.3995 409.096C76.4835 409.029 76.5799 408.978 76.6833 408.948C77.532 408.569 78.298 408.027 78.9379 407.353C79.141 407.167 79.2945 406.933 79.3845 406.672C79.4347 406.394 79.4216 406.108 79.3461 405.836C79.2706 405.563 79.1347 405.311 78.9485 405.098C78.4469 404.386 77.8067 403.782 77.0662 403.322C76.7361 403.17 76.4505 402.936 76.2367 402.642C76.0707 402.27 75.9838 401.868 75.9814 401.461C75.9814 401.11 75.8432 400.791 75.7794 400.451L74.5032 392.954C73.8864 389.306 72.8336 385.658 72.2061 382C71.5893 385.658 70.5365 389.306 69.909 392.954C69.4943 395.453 69.0583 397.952 68.6329 400.451C68.5691 400.791 68.4734 401.11 68.4415 401.461C68.4391 401.868 68.3522 402.27 68.1862 402.642C67.9668 402.93 67.6827 403.164 67.3567 403.322C66.6107 403.779 65.9664 404.383 65.4638 405.098C65.2795 405.312 65.1449 405.564 65.0695 405.837C64.9941 406.109 64.9798 406.394 65.0277 406.672C65.1216 406.931 65.2745 407.164 65.4744 407.353C66.1163 408.025 66.8818 408.566 67.729 408.948C67.8324 408.978 67.9288 409.029 68.0128 409.096C68.0967 409.164 68.1665 409.247 68.2181 409.342C68.239 409.468 68.239 409.598 68.2181 409.725C68.2181 410.575 68.2181 411.415 68.2181 412.256V436.418C68.1626 439.066 68.5031 441.708 69.2284 444.255C69.8521 446.368 71.1617 448.213 72.9506 449.498C76.0275 451.71 80.4551 452.816 86.2332 452.816H86.531" fill="white"/>
</svg>
