<svg width="210" height="210" viewBox="0 0 210 210" fill="none" xmlns="http://www.w3.org/2000/svg">
<g clip-path="url(#clip0_1011_4148)">
<path d="M106.339 96.5759C106.314 96.5528 106.281 96.5399 106.247 96.5399C106.213 96.5399 106.18 96.5528 106.155 96.5759C105.775 96.911 105.782 96.8728 105.972 97.1655C106.186 97.0661 106.396 96.9556 106.599 96.8346L106.339 96.5759Z" fill="#BE1E2D"/>
<path d="M106.222 41.1238C114.283 41.1238 122.014 44.3069 127.715 49.9729C133.415 55.639 136.617 63.3237 136.617 71.3367V89.1526H75.8259V71.3367C75.8259 63.3237 79.0283 55.639 84.7286 49.9729C90.4289 44.3069 98.1601 41.1238 106.222 41.1238Z" fill="#F4F2F4"/>
<path d="M106.222 137.493C98.1607 137.491 90.4304 134.308 84.7305 128.642C79.0306 122.977 75.8276 115.293 75.8259 107.28V91.9608H84.9862V107.28C85.0977 112.804 87.3835 118.064 91.3529 121.931C95.3224 125.799 100.659 127.965 106.217 127.965C111.776 127.965 117.112 125.799 121.082 121.931C125.051 118.064 127.337 112.804 127.448 107.28V91.9608H136.609V107.28C136.608 115.292 133.407 122.975 127.708 128.64C122.01 134.306 114.281 137.49 106.222 137.493Z" fill="white"/>
<path fill-rule="evenodd" clip-rule="evenodd" d="M120.748 76.077H116.468C117.362 77.4768 117.981 79.2902 118.113 82.0644C118.854 82.1874 119.236 82.8873 119.236 83.549V84.6519H119.799V86.4017H120.819V89.6022H121.753V78.3612L123.371 76.0727L120.748 76.077Z" fill="url(#paint0_linear_1011_4148)"/>
<path fill-rule="evenodd" clip-rule="evenodd" d="M119.639 59.19C119.638 58.8743 119.53 58.568 119.333 58.3203C119.136 58.0726 118.861 57.8978 118.553 57.8241V55.3151C118.552 55.1156 118.478 54.9232 118.346 54.7734C118.213 54.6237 118.03 54.5268 117.831 54.5006V54.1019C117.831 53.8786 117.755 53.662 117.615 53.4877C117.474 53.3134 117.278 53.1919 117.059 53.1432L117.018 52.4539C117.086 52.4355 117.145 52.3965 117.188 52.3424C117.232 52.2882 117.257 52.2218 117.26 52.1527C117.251 52.0767 117.219 52.0053 117.166 51.9492C117.114 51.893 117.045 51.8551 116.969 51.8409L116.954 51.6289L116.839 50.0424L116.724 51.6289L116.709 51.8409C116.633 51.8551 116.564 51.893 116.512 51.9492C116.46 52.0053 116.427 52.0767 116.419 52.1527C116.422 52.222 116.448 52.2884 116.492 52.3421C116.536 52.3959 116.597 52.4343 116.664 52.4518L116.624 53.1411C116.404 53.1898 116.208 53.3113 116.068 53.4856C115.928 53.6598 115.851 53.8765 115.851 54.0998V54.4985C115.652 54.5246 115.47 54.6216 115.337 54.7713C115.204 54.921 115.131 55.1135 115.13 55.3129V57.8241C114.821 57.8978 114.546 58.0726 114.349 58.3203C114.152 58.568 114.045 58.8743 114.044 59.19V68.6961H119.639V59.19ZM115.819 63.7119H114.923V61.2728C114.923 61.1547 114.97 61.0414 115.054 60.9578C115.138 60.8743 115.252 60.8274 115.371 60.8274C115.49 60.8274 115.604 60.8743 115.688 60.9578C115.772 61.0414 115.819 61.1547 115.819 61.2728V63.7119ZM116.438 56.7637C116.434 56.7093 116.441 56.6547 116.46 56.6032C116.478 56.5518 116.506 56.5046 116.544 56.4647C116.581 56.4247 116.626 56.3929 116.677 56.3711C116.727 56.3493 116.781 56.3381 116.836 56.3381C116.891 56.3381 116.945 56.3493 116.995 56.3711C117.046 56.3929 117.091 56.4247 117.128 56.4647C117.166 56.5046 117.194 56.5518 117.212 56.6032C117.231 56.6547 117.238 56.7093 117.234 56.7637V57.8241H116.438V56.7637ZM116.389 63.7119V61.2728C116.389 61.1547 116.436 61.0414 116.52 60.9578C116.604 60.8743 116.718 60.8274 116.837 60.8274C116.956 60.8274 117.07 60.8743 117.154 60.9578C117.238 61.0414 117.285 61.1547 117.285 61.2728V63.7119H116.389ZM118.757 63.7119H117.861V61.2728C117.861 61.1547 117.908 61.0414 117.993 60.9578C118.077 60.8743 118.191 60.8274 118.309 60.8274C118.428 60.8274 118.542 60.8743 118.626 60.9578C118.71 61.0414 118.757 61.1547 118.757 61.2728V63.7119Z" fill="url(#paint1_linear_1011_4148)"/>
<path fill-rule="evenodd" clip-rule="evenodd" d="M113.436 73.1713C114.425 73.7821 115.303 74.556 116.03 75.4598H120.242V70.8043L121.271 69.3196H112.407L113.436 70.8043V73.1713Z" fill="url(#paint2_linear_1011_4148)"/>
<path fill-rule="evenodd" clip-rule="evenodd" d="M123.46 76.077L121.843 78.3655V89.6107H121.406V78.3655L123.023 76.077H123.46Z" fill="#242424"/>
<path fill-rule="evenodd" clip-rule="evenodd" d="M118.638 57.8241V55.3172C118.638 55.1173 118.565 54.9244 118.432 54.7742C118.299 54.624 118.116 54.5268 117.917 54.5006V54.1019C117.917 53.8789 117.84 53.6625 117.7 53.4886C117.559 53.3147 117.364 53.1936 117.145 53.1453L117.104 52.4539C117.172 52.4362 117.232 52.3974 117.276 52.3432C117.319 52.289 117.344 52.2222 117.347 52.1527C117.339 52.0769 117.307 52.0055 117.255 51.9494C117.203 51.8932 117.135 51.8552 117.059 51.8409L117.042 51.6289L116.929 50.0424L116.814 51.6289L116.799 51.8409C116.768 51.8494 116.738 51.8615 116.709 51.877C116.768 51.8979 116.819 51.9349 116.857 51.9838C116.894 52.0327 116.917 52.0913 116.923 52.1527C116.92 52.214 116.9 52.2733 116.865 52.3234C116.829 52.3735 116.779 52.4122 116.722 52.4348L116.765 52.4518L116.724 53.1432C116.943 53.1919 117.138 53.3132 117.278 53.4871C117.418 53.6609 117.495 53.877 117.494 54.0998V54.4985C117.694 54.5247 117.877 54.6219 118.009 54.7721C118.142 54.9223 118.215 55.1152 118.216 55.3151V57.8241C118.525 57.8978 118.8 58.0726 118.997 58.3203C119.193 58.568 119.301 58.8743 119.302 59.19V68.6961H119.729V59.19C119.728 58.8737 119.619 58.567 119.422 58.3192C119.224 58.0714 118.948 57.897 118.638 57.8241Z" fill="#242424"/>
<path fill-rule="evenodd" clip-rule="evenodd" d="M121.361 69.3217L120.332 70.8043V75.4598H119.895V70.8043L120.923 69.3217H121.361Z" fill="#242424"/>
<path fill-rule="evenodd" clip-rule="evenodd" d="M115.783 86.512L119.293 86.4187V85.1313L115.783 85.1164V84.7855L118.732 84.6477V83.776C118.732 83.1058 118.435 82.4568 117.607 82.4568C117.469 79.5002 116.775 77.5362 115.783 76.1109V76.0791C113.523 72.868 109.738 72.4056 107.37 69.3896H105.129C102.761 72.4056 98.9732 72.868 96.7157 76.0791V76.1194C95.7235 77.5446 95.03 79.5129 94.8892 82.4652C94.0613 82.4652 93.7647 83.1142 93.7647 83.7845V84.6625L96.7157 84.8004V85.1313L93.2035 85.1461V86.4335L96.7157 86.5268V86.8556H92.1814V89.6128H120.315V86.8556H115.783V86.512ZM107.216 70.6749C107.801 71.6612 108.473 72.5938 109.224 73.4618C110.952 75.4831 112.708 77.534 113.045 82.4249L112.683 82.4483C112.354 77.6846 110.641 75.6803 108.953 73.71C108.134 72.772 107.412 71.7553 106.796 70.6749H107.216ZM106.066 70.6749H106.429V82.4504H106.066V70.6749ZM99.4512 82.4249C99.7947 77.5404 101.542 75.4831 103.271 73.4682C104.022 72.6007 104.694 71.668 105.279 70.6813H105.705C105.088 71.7613 104.365 72.7779 103.546 73.7163C101.858 75.6867 100.145 77.691 99.816 82.4546L99.4512 82.4249Z" fill="#0D9543"/>
<path fill-rule="evenodd" clip-rule="evenodd" d="M107.229 68.9082C107.228 68.7052 107.159 68.5082 107.032 68.3493C106.905 68.1903 106.728 68.0786 106.529 68.0323L106.473 67.2581C106.564 67.233 106.645 67.1805 106.704 67.108C106.764 67.0355 106.8 66.9464 106.806 66.853C106.798 66.7489 106.754 66.6507 106.683 66.5738C106.612 66.497 106.517 66.446 106.414 66.4288L106.392 66.151L106.237 63.9961L106.081 66.151L106.059 66.4288C105.956 66.446 105.861 66.497 105.79 66.5738C105.719 66.6507 105.675 66.7489 105.667 66.853C105.674 66.9464 105.709 67.0355 105.769 67.108C105.828 67.1805 105.909 67.233 106 67.2581L105.944 68.0323C105.745 68.0786 105.568 68.1903 105.441 68.3493C105.314 68.5082 105.245 68.7052 105.244 68.9082H107.229Z" fill="#0D9543"/>
<path fill-rule="evenodd" clip-rule="evenodd" d="M106.262 87.6722L106.26 88.3572L106.258 90.4209L106.245 98.858L106.258 107.108H87.9287V87.1504L106.183 79.0823L106.219 79.0951L106.222 81.4726L106.226 83.9626L106.228 87.1674L106.23 87.6594L106.262 87.6722Z" fill="url(#paint3_linear_1011_4148)"/>
<path fill-rule="evenodd" clip-rule="evenodd" d="M124.514 87.1504V107.108H106.187L106.198 98.858L106.187 90.3933L106.185 88.3275L106.183 87.6722L106.213 87.6594L106.215 87.161L106.219 83.9605L106.222 81.4726L106.226 79.0951L106.262 79.0823L124.514 87.1504Z" fill="#242424"/>
<path fill-rule="evenodd" clip-rule="evenodd" d="M87.9309 91.2226L106.183 83.9456V87.1356L87.9309 94.4337V91.2226Z" fill="white"/>
<path fill-rule="evenodd" clip-rule="evenodd" d="M103.01 89.5746V91.632L106.183 90.3594V88.3042L103.01 89.5746ZM96.3249 92.2386V94.3065L100.029 92.8218V90.7539L96.3249 92.2386ZM89.0701 95.1336V97.2079L93.3376 95.5006V93.4284L89.0701 95.1336Z" fill="white"/>
<path fill-rule="evenodd" clip-rule="evenodd" d="M94.6759 92.9427L94.04 94.1856L94.9448 94.9025L95.5785 93.5705L94.6759 92.9427Z" fill="white"/>
<path fill-rule="evenodd" clip-rule="evenodd" d="M101.414 90.3212L100.776 91.5641L101.683 92.281L102.315 90.9511L101.414 90.3212Z" fill="white"/>
<path fill-rule="evenodd" clip-rule="evenodd" d="M124.512 91.2544L106.183 83.9456V87.1483L124.512 94.4783V91.2544Z" fill="white"/>
<path fill-rule="evenodd" clip-rule="evenodd" d="M106.26 88.3572L106.185 88.3275V90.3912L106.256 90.4188L109.367 91.6638V89.5959L106.26 88.3572ZM112.363 90.7921V92.8748L116.084 94.3595V92.281L112.363 90.7921ZM119.08 93.4666V95.5494L123.371 97.2652V95.1782L119.08 93.4666Z" fill="white"/>
<path fill-rule="evenodd" clip-rule="evenodd" d="M117.737 92.9809L118.378 94.228L117.469 94.947L116.833 93.6108L117.737 92.9809Z" fill="white"/>
<path fill-rule="evenodd" clip-rule="evenodd" d="M110.971 90.3488L111.612 91.5959L110.703 92.317L110.067 90.9809L110.971 90.3488Z" fill="white"/>
<path d="M132.452 96.0987H131.62V99.5473H132.452V96.0987Z" fill="#242424"/>
<path d="M102.473 133.09C99.9752 132.734 97.543 132.02 95.252 130.969L95.6019 130.218C97.8191 131.234 100.173 131.924 102.59 132.267L102.473 133.09ZM109.999 133.09L109.881 132.271C112.298 131.922 114.65 131.225 116.865 130.203L117.215 130.956C114.926 132.01 112.495 132.727 109.999 133.086V133.09ZM88.9403 126.895C87.0433 125.243 85.3948 123.329 84.0454 121.211L84.7474 120.767C86.0539 122.822 87.6506 124.679 89.4887 126.282L88.9403 126.895ZM123.525 126.878L122.976 126.254C124.812 124.651 126.407 122.794 127.711 120.74L128.415 121.183C127.067 123.304 125.42 125.222 123.525 126.878ZM80.9749 114.379C80.3205 112.069 79.9895 109.68 79.9912 107.28V106.966H80.8234V107.28C80.8217 109.604 81.1419 111.917 81.7751 114.154L80.9749 114.379ZM131.477 114.352L130.675 114.127C131.304 111.898 131.622 109.595 131.62 107.28V106.939H132.452V107.28C132.453 109.671 132.125 112.05 131.477 114.352Z" fill="#242424"/>
<path d="M80.8234 96.0987H79.9912V99.5473H80.8234V96.0987Z" fill="#242424"/>
<path fill-rule="evenodd" clip-rule="evenodd" d="M88.1484 110.016C88.8235 114.299 91.0155 118.201 94.3292 121.019C97.643 123.836 101.861 125.385 106.222 125.385C110.582 125.384 114.8 123.836 118.113 121.018C121.427 118.2 123.619 114.299 124.295 110.016H88.1484Z" fill="white"/>
<path d="M23.1921 162.488C23.6765 161.909 23.6765 161.14 23.6765 160.505V155.269C23.6765 154.652 23.6765 154.227 23.9474 153.882C24.2184 153.536 24.6644 153.362 25.4198 153.362C26.1751 153.362 26.6211 153.536 26.8921 153.882C27.163 154.227 27.163 154.652 27.163 155.269V160.331C27.163 161.678 27.163 163.142 26.0578 164.452C25.2448 165.413 23.909 166.164 21.4488 166.164C18.9886 166.164 17.6443 165.411 16.827 164.452C15.7239 163.142 15.7239 161.678 15.7239 160.331V155.269C15.7239 154.652 15.7239 154.227 15.9949 153.882C16.2659 153.536 16.7118 153.362 17.4885 153.362C18.2652 153.362 18.709 153.536 18.9822 153.882C19.2553 154.227 19.2531 154.652 19.2531 155.269V160.505C19.2531 161.142 19.2531 161.909 19.7375 162.488C20.0661 162.891 20.6102 163.142 21.4616 163.142C22.313 163.142 22.8528 162.891 23.1921 162.488Z" fill="white"/>
<path d="M39.7907 155.345C40.4479 153.996 40.9706 153.362 42.3512 153.362C42.9913 153.362 43.4928 153.496 43.8448 153.901C44.1542 154.268 44.2118 154.652 44.2908 155.441L45.1443 164.124C45.1635 164.355 45.1827 164.643 45.1827 164.798C45.1827 165.606 44.6599 166.03 43.4757 166.03C42.2168 166.03 41.7132 165.549 41.6364 164.624L41.2096 158.484L39.0161 163.714C38.7238 164.387 38.3568 164.906 37.3304 164.906C36.3041 164.906 35.9541 164.387 35.6639 163.714L33.4747 158.463L33.0309 164.614C32.9519 165.5 32.5081 166.02 31.23 166.02C30.1439 166.02 29.5635 165.653 29.5635 164.747C29.5635 164.573 29.5827 164.323 29.6211 163.958L30.4917 155.443C30.5706 154.616 30.6282 154.17 31.0358 153.807C31.3452 153.519 31.8103 153.364 32.5294 153.364C33.9612 153.364 34.4861 153.979 35.1433 155.347L37.4478 160.141L39.7907 155.345Z" fill="white"/>
<path d="M51.1082 164.124C51.1082 164.741 51.1082 165.163 50.8564 165.511C50.6046 165.859 50.18 166.03 49.4438 166.03C48.7077 166.03 48.2809 165.857 48.0291 165.511C47.7773 165.165 47.7773 164.741 47.7773 164.124V155.519C47.7773 154.826 47.7773 153.996 49.0171 153.61C49.5783 153.436 50.4126 153.322 51.7099 153.322C52.7768 153.322 53.9568 153.398 55.0407 153.899C56.3786 154.516 57.1745 155.651 57.1745 157.307C57.1745 158.847 56.4767 160.041 55.1986 160.754L57.8701 164.276C58.491 165.104 58.1027 166.028 56.4383 166.028C55.1581 166.028 54.6758 165.49 54.0741 164.584L52.7384 162.582C52.3906 162.043 52.1174 161.521 52.1174 161.521H51.1103L51.1082 164.124ZM51.1082 158.868C51.1082 158.868 51.3813 158.887 51.6523 158.887C53.084 158.887 53.6474 158.329 53.6474 157.502C53.6474 156.539 52.892 156.23 51.8827 156.23C51.6234 156.23 51.3645 156.25 51.1082 156.289V158.868Z" fill="white"/>
<path d="M67.7348 163.451H63.416L63.0682 164.412C62.6607 165.53 62.1763 166.03 60.9558 166.03C59.8526 166.03 59.4451 165.625 59.4451 165.01C59.4563 164.722 59.5291 164.439 59.6584 164.181L63.6102 154.864C64.0177 153.882 64.4808 153.362 65.7205 153.362C66.9602 153.362 67.387 153.901 67.7753 154.864L71.5905 164.196C71.6916 164.441 71.7507 164.701 71.7655 164.966C71.7655 165.657 71.2214 166.026 70.1182 166.026C68.9553 166.026 68.5499 165.621 68.1039 164.427L67.7348 163.451ZM64.3848 160.794H66.7874L65.5861 157.564L64.3848 160.794Z" fill="white"/>
<path d="M85.0246 164.124C85.0246 164.741 85.0246 165.163 84.7536 165.511C84.4826 165.859 84.0366 166.03 83.2599 166.03C82.4832 166.03 82.0394 165.857 81.7663 165.511C81.4932 165.165 81.4953 164.741 81.4953 164.124V160.968H77.0058V164.124C77.0058 164.741 77.0058 165.163 76.7348 165.511C76.4638 165.859 76.0179 166.03 75.2412 166.03C74.4645 166.03 74.0207 165.857 73.7476 165.511C73.4744 165.165 73.4766 164.741 73.4766 164.124V155.269C73.4766 154.652 73.4766 154.227 73.7476 153.882C74.0185 153.536 74.4645 153.362 75.2412 153.362C76.0179 153.362 76.4617 153.536 76.7348 153.882C77.008 154.227 77.0058 154.652 77.0058 155.269V157.867H81.4996V155.269C81.4996 154.652 81.4996 154.227 81.7705 153.882C82.0415 153.536 82.4875 153.362 83.2642 153.362C84.0409 153.362 84.4847 153.536 84.7578 153.882C85.031 154.227 85.0288 154.652 85.0288 155.269L85.0246 164.124Z" fill="white"/>
<path d="M97.6716 161.852C97.3238 161.852 97.0314 161.833 97.0314 161.833V164.124C97.0314 164.741 97.0314 165.163 96.7604 165.511C96.4895 165.859 96.0627 166.03 95.3073 166.03C94.552 166.03 94.106 165.857 93.8542 165.511C93.6025 165.165 93.5833 164.741 93.5833 164.124V155.5C93.5833 154.806 93.5832 154.056 94.6864 153.651C95.2497 153.438 96.1587 153.324 97.3216 153.324C98.5806 153.324 100.072 153.458 101.273 154.189C102.396 154.883 103.074 155.96 103.074 157.521C103.076 160.408 100.753 161.852 97.6716 161.852ZM97.0314 159.176C97.2109 159.202 97.3921 159.214 97.5734 159.214C98.6403 159.214 99.5493 158.79 99.5493 157.693C99.5493 156.692 98.7747 156.23 97.6502 156.23C97.4433 156.23 97.2367 156.244 97.0314 156.27V159.176Z" fill="black"/>
<path d="M111.317 163.451H106.988L106.638 164.412C106.232 165.53 105.748 166.03 104.528 166.03C103.422 166.03 103.017 165.625 103.017 165.01C103.027 164.722 103.1 164.439 103.23 164.181L107.18 154.864C107.587 153.882 108.053 153.362 109.292 153.362C110.532 153.362 110.959 153.901 111.345 154.864L115.16 164.196C115.262 164.441 115.321 164.701 115.335 164.966C115.335 165.657 114.793 166.026 113.688 166.026C112.527 166.026 112.12 165.621 111.674 164.427L111.317 163.451ZM107.967 160.794H110.357L109.156 157.564L107.967 160.794Z" fill="black"/>
<path d="M123.354 159.023C124.361 159.695 125.215 160.658 125.215 162.238C125.215 164.703 123.102 166.126 120.52 166.126C119.612 166.131 118.713 165.94 117.885 165.568C117.228 165.261 116.665 164.855 116.665 164.083C116.665 163.352 117.168 162.387 118.06 162.387C118.873 162.387 119.494 163.195 120.539 163.195C121.237 163.195 121.681 162.849 121.681 162.368C121.681 161.772 121.005 161.405 120.17 160.964C118.739 160.213 116.782 159.307 116.782 157.055C116.782 154.722 118.815 153.237 121.314 153.237C123.057 153.237 124.995 153.969 124.995 155.241C124.995 155.971 124.355 156.857 123.523 156.857C122.806 156.857 122.108 156.183 121.237 156.183C120.655 156.183 120.307 156.493 120.307 156.857C120.313 157.655 121.961 158.079 123.354 159.023Z" fill="black"/>
<path d="M133.448 159.023C134.456 159.695 135.309 160.658 135.309 162.238C135.309 164.703 133.197 166.126 130.615 166.126C129.706 166.131 128.807 165.94 127.98 165.568C127.322 165.261 126.759 164.855 126.759 164.083C126.759 163.352 127.263 162.387 128.155 162.387C128.967 162.387 129.588 163.195 130.634 163.195C131.332 163.195 131.778 162.849 131.778 162.368C131.778 161.772 131.099 161.405 130.265 160.964C128.833 160.213 126.876 159.307 126.876 157.055C126.876 154.722 128.91 153.237 131.409 153.237C133.152 153.237 135.089 153.969 135.089 155.241C135.089 155.971 134.449 156.857 133.617 156.857C132.9 156.857 132.202 156.183 131.332 156.183C130.749 156.183 130.401 156.493 130.401 156.857C130.408 157.655 132.055 158.079 133.448 159.023Z" fill="black"/>
<path d="M140.994 157.988H142.814C143.432 157.988 143.859 157.988 144.209 158.217C144.559 158.446 144.732 158.815 144.732 159.47C144.732 160.126 144.557 160.471 144.209 160.701C143.861 160.93 143.432 160.932 142.814 160.932H140.994V162.993H143.898C144.519 162.993 144.945 162.993 145.293 163.224C145.641 163.456 145.816 163.82 145.816 164.476C145.816 165.131 145.641 165.477 145.293 165.708C144.945 165.939 144.519 165.939 143.898 165.939H139.289C138.087 165.939 137.641 165.496 137.641 164.302V155.133C137.641 153.939 138.087 153.496 139.289 153.496H143.556C144.175 153.496 144.602 153.496 144.952 153.727C145.302 153.958 145.474 154.325 145.474 154.978C145.474 155.631 145.299 155.979 144.952 156.21C144.604 156.442 144.175 156.442 143.556 156.442H140.996L140.994 157.988Z" fill="black"/>
<path d="M151.547 164.124C151.547 164.741 151.547 165.163 151.276 165.511C151.005 165.859 150.598 166.03 149.842 166.03C149.087 166.03 148.66 165.857 148.408 165.511C148.157 165.165 148.137 164.741 148.137 164.124V154.709C148.137 153.882 148.739 153.362 150.037 153.362C151.372 153.362 151.876 153.882 152.36 154.518L156.66 160.37V155.269C156.66 154.652 156.66 154.227 156.931 153.882C157.202 153.536 157.609 153.362 158.365 153.362C159.12 153.362 159.547 153.536 159.799 153.882C160.05 154.227 160.07 154.652 160.07 155.269V164.703C160.07 165.625 159.47 166.088 158.422 166.088C157.375 166.088 156.835 165.644 156.331 164.991L151.547 158.773V164.124Z" fill="black"/>
<path d="M173.732 163.661C173.732 164.567 173.557 165.048 172.452 165.511C171.37 165.924 170.22 166.132 169.062 166.126C165.383 166.126 162.4 163.971 162.4 159.714C162.4 155.171 165.769 153.245 169.16 153.245C170.323 153.245 171.582 153.477 172.471 153.939C173.092 154.268 173.498 154.69 173.498 155.364C173.498 156.077 173.033 157.154 172.066 157.154C171.658 157.154 171.27 156.982 170.805 156.789C170.25 156.542 169.65 156.41 169.042 156.403C167.436 156.403 165.963 157.328 165.963 159.695C165.963 162.007 167.378 163.065 169.062 163.065C169.45 163.07 169.836 163.011 170.205 162.891V162.018C170.205 161.4 170.205 160.978 170.476 160.631C170.747 160.283 171.193 160.111 171.97 160.111C172.747 160.111 173.19 160.285 173.464 160.631C173.737 160.976 173.735 161.4 173.735 162.018L173.732 163.661Z" fill="black"/>
<path d="M179.638 157.988H181.458C182.079 157.988 182.504 157.988 182.854 158.217C183.204 158.446 183.377 158.815 183.377 159.47C183.377 160.126 183.202 160.471 182.854 160.701C182.506 160.93 182.079 160.932 181.458 160.932H179.638V162.993H182.542C183.163 162.993 183.59 162.993 183.938 163.224C184.286 163.456 184.461 163.82 184.461 164.476C184.461 165.131 184.286 165.477 183.938 165.708C183.59 165.939 183.163 165.939 182.542 165.939H177.933C176.732 165.939 176.286 165.496 176.286 164.302V155.133C176.286 153.939 176.732 153.496 177.933 153.496H182.201C182.822 153.496 183.247 153.496 183.596 153.727C183.946 153.958 184.119 154.325 184.119 154.978C184.119 155.631 183.944 155.979 183.596 156.21C183.249 156.442 182.822 156.442 182.201 156.442H179.64L179.638 157.988Z" fill="black"/>
<path d="M190.115 164.124C190.115 164.741 190.115 165.163 189.864 165.511C189.612 165.859 189.185 166.03 188.449 166.03C187.713 166.03 187.286 165.857 187.034 165.511C186.782 165.165 186.782 164.741 186.782 164.124V155.519C186.782 154.826 186.782 153.996 188.022 153.61C188.586 153.436 189.418 153.322 190.715 153.322C191.782 153.322 192.962 153.398 194.046 153.899C195.384 154.516 196.18 155.651 196.18 157.307C196.18 158.847 195.482 160.041 194.204 160.754L196.882 164.279C197.5 165.106 197.114 166.03 195.448 166.03C194.167 166.03 193.685 165.492 193.084 164.586L191.748 162.584C191.4 162.045 191.129 161.523 191.129 161.523H190.122L190.115 164.124ZM190.115 158.868C190.115 158.868 190.386 158.887 190.657 158.887C192.091 158.887 192.652 158.329 192.652 157.502C192.652 156.539 191.897 156.23 190.89 156.23C190.631 156.23 190.372 156.25 190.115 156.289V158.868Z" fill="black"/>
<path d="M76.7053 74.4056C76.7394 74.6752 76.8023 74.9404 76.8931 75.1968C76.8931 78.6666 76.8717 80.427 76.8547 81.2881C76.8547 81.4684 76.8547 81.6084 76.8547 81.7123C76.8547 81.9668 76.8419 82.0453 76.8419 82.0453C76.5218 82.9912 76.7907 84.8301 76.8419 84.9955C76.8585 85.1662 76.907 85.3324 76.9848 85.4855C77.1278 85.8078 77.3753 85.8651 77.7893 86.2087C78.2032 86.5523 79.3149 86.7326 79.3149 86.7326H81.5148C81.5148 86.7326 82.6265 86.5523 83.0405 86.2087C83.4544 85.8651 83.7041 85.8078 83.8471 85.4855C83.9238 85.3321 83.9715 85.166 83.9879 84.9955C84.0391 84.8301 84.308 82.9912 83.9879 82.0453C83.9879 82.0453 83.9879 81.9711 83.9751 81.7123C83.9751 81.6041 83.9751 81.4641 83.9644 81.2881C83.9495 80.4397 83.9303 78.6815 83.9303 75.1946C84.3762 73.9666 84.1949 71.1245 83.7766 70.7407C83.4703 70.4921 83.1269 70.2925 82.7588 70.1489C82.3113 70.0322 81.8531 69.9612 81.3911 69.9368C79.7161 69.9092 78.0517 69.8032 77.0552 70.7428C76.8099 70.9718 76.8419 71.3663 76.7053 71.9878C76.6171 72.7913 76.6171 73.6021 76.7053 74.4056ZM83.5334 81.1524C83.4251 80.8999 83.3408 80.6378 83.2816 80.3697C82.9786 79.059 83.0298 78.8214 83.0298 77.8246C83.0292 77.806 83.0336 77.7876 83.0428 77.7714C83.0519 77.7551 83.0654 77.7417 83.0816 77.7325C83.0979 77.7233 83.1164 77.7188 83.1351 77.7193C83.1538 77.7198 83.172 77.7254 83.1877 77.7355L83.4886 77.9476C83.5028 77.9577 83.5143 77.9711 83.5222 77.9866C83.53 78.0021 83.5338 78.0193 83.5334 78.0367V81.1524ZM83.5334 74.5032V77.1798C83.5346 77.1945 83.5324 77.2092 83.527 77.2228C83.5216 77.2365 83.5131 77.2487 83.5022 77.2585C83.4912 77.2684 83.4781 77.2756 83.4639 77.2796C83.4498 77.2836 83.4348 77.2843 83.4203 77.2816L83.1002 77.1989C83.0787 77.1928 83.0598 77.1796 83.0466 77.1615C83.0335 77.1435 83.0268 77.1215 83.0277 77.0992C83.0106 75.2795 82.9701 74.3144 83.2411 74.3972C83.3755 74.3972 83.5291 74.3653 83.5291 74.5032H83.5334ZM82.9722 72.7407C82.9729 72.5412 83.0346 72.3466 83.1493 72.1829C83.3477 71.9008 83.3627 72.6856 83.4459 73.7057L82.9679 74.2105C82.9679 74.2105 82.9509 73.0101 82.9679 72.7407H82.9722ZM78.1755 70.7916C78.4059 70.6452 78.9991 70.3016 79.4173 70.2953C79.7246 70.2953 81.1734 70.2953 81.4039 70.2953C81.8306 70.2953 82.4153 70.6452 82.6457 70.7916C82.793 70.8828 82.7311 71.0461 82.7055 71.4278C82.7029 71.4549 82.6948 71.4811 82.6816 71.505C82.6684 71.5288 82.6505 71.5497 82.6289 71.5664C82.6074 71.583 82.5826 71.5952 82.5561 71.602C82.5296 71.6088 82.5021 71.6102 82.475 71.606C81.3199 71.4629 80.1533 71.4359 78.9927 71.5254L78.3526 71.606C78.3257 71.6102 78.2982 71.6088 78.2719 71.602C78.2455 71.5951 78.2209 71.583 78.1995 71.5663C78.178 71.5495 78.1603 71.5286 78.1474 71.5048C78.1344 71.481 78.1266 71.4548 78.1243 71.4278L78.0923 70.9676C78.0878 70.9339 78.0928 70.8996 78.1068 70.8685C78.1207 70.8375 78.143 70.8108 78.1712 70.7916H78.1755ZM78.3184 79.6995C79.0567 79.8989 80.6784 79.9116 81.8392 79.8098C82.0633 79.7933 82.2854 79.7564 82.5028 79.6995C82.5484 79.6876 82.5959 79.6851 82.6425 79.6922C82.6891 79.6992 82.7338 79.7157 82.7737 79.7405C82.8137 79.7653 82.8481 79.798 82.8749 79.8366C82.9017 79.8751 82.9203 79.9187 82.9295 79.9646L83.3307 82.2977C81.4343 82.9552 79.3698 82.9552 77.4735 82.2977L77.8746 79.9646C77.8831 79.9169 77.9017 79.8714 77.9291 79.8312C77.9565 79.7911 77.992 79.7571 78.0335 79.7315C78.075 79.7059 78.1214 79.6892 78.1697 79.6826C78.2181 79.676 78.2673 79.6796 78.3142 79.6932L78.3184 79.6995ZM77.2878 81.1587V78.0282C77.2879 78.0109 77.292 77.9939 77.2998 77.9785C77.3075 77.963 77.3188 77.9496 77.3326 77.9391L77.6335 77.727C77.6492 77.7164 77.6677 77.7103 77.6867 77.7094C77.7057 77.7086 77.7246 77.713 77.7413 77.7223C77.7579 77.7316 77.7716 77.7452 77.7808 77.7618C77.7901 77.7784 77.7945 77.7972 77.7935 77.8161C77.7935 77.8649 77.7935 78.9636 77.7935 79.0123C77.6548 79.8331 77.514 80.6582 77.2836 81.1524L77.2878 81.1587ZM77.6719 72.1893C77.8853 72.4883 77.8725 72.6559 77.8511 74.2232L77.3753 73.7121C77.4521 72.6856 77.4713 71.9008 77.6676 72.1829L77.6719 72.1893ZM77.3817 74.4035H77.5802C77.8511 74.3208 77.8106 75.2858 77.7935 77.1056C77.7948 77.128 77.7883 77.1501 77.7751 77.1682C77.7618 77.1864 77.7427 77.1995 77.721 77.2053L77.4009 77.288C77.3864 77.2907 77.3715 77.29 77.3573 77.286C77.3431 77.2819 77.33 77.2747 77.3191 77.2649C77.3081 77.255 77.2996 77.2428 77.2942 77.2292C77.2888 77.2155 77.2866 77.2008 77.2878 77.1862C77.2836 74.4862 77.2259 74.3972 77.3774 74.3972L77.3817 74.4035Z" fill="#FEBF52"/>
<path d="M82.4129 86.5481C82.7705 86.4552 83.0949 86.265 83.3496 85.9987C83.3585 85.9912 83.3657 85.9817 83.3705 85.9711C83.3753 85.9604 83.3776 85.9489 83.3774 85.9372C83.3774 85.8566 83.3774 85.6827 83.2515 85.7527C82.4876 86.1939 82.2379 86.2596 82.2571 86.372C82.2763 86.4844 82.3105 86.5841 82.4129 86.5481Z" fill="#242424"/>
<path d="M78.5271 86.4887C78.5228 86.5008 78.5161 86.512 78.5074 86.5216C78.4988 86.5311 78.4883 86.5389 78.4766 86.5444C78.4649 86.5499 78.4522 86.5531 78.4392 86.5537C78.4263 86.5543 78.4134 86.5524 78.4012 86.5481C78.0431 86.4548 77.7181 86.2646 77.4623 85.9987C77.446 85.9822 77.4362 85.9603 77.4346 85.9372C77.4346 85.8566 77.4346 85.6827 77.5605 85.7527C78.5975 86.3508 78.606 86.232 78.5271 86.4887Z" fill="#242424"/>
<path d="M83.4519 81.4557L83.501 81.6805C84.075 81.8141 84.5039 81.602 84.5124 81.4366C84.5209 81.2711 84.6084 81.0909 83.7485 81.3475L83.4519 81.4557Z" fill="#242424"/>
<path d="M83.7189 78.0982C83.7099 78.098 83.7009 78.0994 83.6926 78.1026C83.6842 78.1057 83.6765 78.1105 83.6699 78.1166C83.6634 78.1227 83.6581 78.13 83.6544 78.1382C83.6508 78.1463 83.6487 78.1551 83.6484 78.164V78.6645C83.6487 78.6732 83.6507 78.6817 83.6543 78.6895C83.6579 78.6974 83.663 78.7045 83.6693 78.7104C83.6757 78.7163 83.6831 78.7209 83.6912 78.724C83.6994 78.727 83.708 78.7284 83.7167 78.7282C83.7256 78.7287 83.7345 78.7275 83.7428 78.7246C83.7512 78.7217 83.7589 78.7171 83.7655 78.7112C83.7721 78.7053 83.7774 78.6981 83.7811 78.6901C83.7848 78.682 83.7869 78.6734 83.7871 78.6645V78.1661C83.7871 78.1573 83.7854 78.1486 83.7819 78.1404C83.7784 78.1323 83.7734 78.125 83.767 78.1189C83.7606 78.1127 83.7531 78.1079 83.7448 78.1047C83.7365 78.1016 83.7277 78.1001 83.7189 78.1004V78.0982Z" fill="#242424"/>
<path d="M83.7189 74.8065C83.7099 74.8062 83.7009 74.8077 83.6926 74.8108C83.6842 74.814 83.6765 74.8188 83.6699 74.8249C83.6634 74.831 83.6581 74.8383 83.6544 74.8464C83.6508 74.8546 83.6487 74.8633 83.6484 74.8722V75.3685C83.6484 75.3774 83.6502 75.3861 83.6537 75.3942C83.6571 75.4023 83.6622 75.4097 83.6686 75.4158C83.6749 75.4219 83.6825 75.4267 83.6908 75.4299C83.699 75.4331 83.7079 75.4346 83.7167 75.4343C83.7257 75.4346 83.7346 75.4331 83.743 75.4299C83.7514 75.4268 83.7591 75.422 83.7656 75.4159C83.7722 75.4098 83.7774 75.4025 83.7811 75.3944C83.7848 75.3862 83.7869 75.3775 83.7871 75.3685V74.8722C83.7871 74.8634 83.7854 74.8547 83.7819 74.8466C83.7784 74.8385 83.7734 74.8311 83.767 74.825C83.7606 74.8189 83.7531 74.8141 83.7448 74.8109C83.7365 74.8077 83.7277 74.8062 83.7189 74.8065Z" fill="#242424"/>
<path d="M77.3602 81.4557L77.3132 81.6805C76.7371 81.8141 76.3103 81.602 76.3018 81.4366C76.2933 81.2711 76.2058 81.0909 77.0657 81.3475L77.3602 81.4557Z" fill="#242424"/>
<path d="M82.3722 72.4162C82.1375 72.4162 82.2079 72.1617 82.2079 78.9657C82.2084 78.9865 82.2132 79.0069 82.2217 79.0259C82.2303 79.0449 82.2426 79.062 82.2579 79.0762C82.2732 79.0904 82.2912 79.1015 82.3108 79.1087C82.3304 79.1159 82.3513 79.1192 82.3722 79.1184C82.4143 79.1195 82.4551 79.1041 82.4859 79.0755C82.5167 79.047 82.5348 79.0075 82.5365 78.9657C82.5365 72.0684 82.6048 72.4162 82.3722 72.4162Z" fill="#242424"/>
<path d="M78.4418 72.4162C78.6765 72.4162 78.6061 72.1617 78.6061 78.9657C78.6044 79.0075 78.5862 79.047 78.5555 79.0755C78.5247 79.1041 78.4839 79.1195 78.4418 79.1184C78.4209 79.1192 78.4 79.1159 78.3804 79.1087C78.3608 79.1015 78.3428 79.0904 78.3275 79.0762C78.3122 79.062 78.2999 79.0449 78.2913 79.0259C78.2827 79.0069 78.278 78.9865 78.2775 78.9657C78.2775 72.0684 78.2071 72.4162 78.4418 72.4162Z" fill="#242424"/>
<path d="M77.0956 78.0982C77.1044 78.098 77.1133 78.0994 77.1215 78.1026C77.1298 78.1058 77.1373 78.1106 77.1437 78.1167C77.1501 78.1229 77.1552 78.1302 77.1586 78.1383C77.1621 78.1464 77.1638 78.1552 77.1638 78.164V78.6645C77.1636 78.6734 77.1615 78.682 77.1578 78.6901C77.1541 78.6981 77.1488 78.7053 77.1422 78.7112C77.1356 78.7171 77.1279 78.7217 77.1196 78.7246C77.1112 78.7275 77.1023 78.7287 77.0934 78.7282C77.0847 78.7284 77.0761 78.727 77.0679 78.724C77.0598 78.7209 77.0524 78.7163 77.046 78.7104C77.0397 78.7045 77.0346 78.6974 77.031 78.6895C77.0274 78.6817 77.0254 78.6732 77.0251 78.6645V78.1661C77.0254 78.1572 77.0275 78.1484 77.0312 78.1403C77.0348 78.1322 77.0401 78.1248 77.0466 78.1187C77.0532 78.1126 77.0609 78.1079 77.0693 78.1047C77.0777 78.1016 77.0866 78.1001 77.0956 78.1004V78.0982Z" fill="#242424"/>
<path d="M77.0956 74.8065C77.1044 74.8062 77.1133 74.8077 77.1215 74.8109C77.1298 74.8141 77.1373 74.8189 77.1437 74.825C77.1501 74.8311 77.1552 74.8385 77.1586 74.8466C77.1621 74.8547 77.1638 74.8634 77.1638 74.8722V75.3685C77.1636 75.3775 77.1615 75.3862 77.1578 75.3944C77.1541 75.4025 77.1489 75.4098 77.1423 75.4159C77.1358 75.422 77.1281 75.4268 77.1197 75.4299C77.1113 75.4331 77.1024 75.4346 77.0934 75.4343C77.0846 75.4346 77.0757 75.4331 77.0675 75.4299C77.0592 75.4267 77.0516 75.4219 77.0453 75.4158C77.0389 75.4097 77.0338 75.4023 77.0304 75.3942C77.0269 75.3861 77.0251 75.3774 77.0251 75.3685V74.8722C77.0254 74.8633 77.0275 74.8546 77.0312 74.8464C77.0348 74.8383 77.0401 74.831 77.0466 74.8249C77.0532 74.8188 77.0609 74.814 77.0693 74.8108C77.0777 74.8077 77.0866 74.8062 77.0956 74.8065Z" fill="#242424"/>
<path d="M77.6717 70.5731C77.6876 70.587 77.7081 70.5946 77.7293 70.5946C77.7505 70.5946 77.771 70.587 77.7869 70.5731C78.0238 70.361 78.0195 70.3865 77.9 70.2041C77.7662 70.2679 77.6358 70.3387 77.5095 70.4162L77.6717 70.5731Z" fill="#BE1E2D"/>
<path d="M82.8715 70.4374C83.1148 70.6495 83.0593 70.6495 83.2983 70.4119C83.172 70.3344 83.0416 70.2636 82.9078 70.1998C82.8566 70.2953 82.7904 70.3653 82.8715 70.4374Z" fill="#BE1E2D"/>
<path d="M135.74 82.2447C135.705 81.975 135.641 81.7099 135.55 81.4535C135.55 77.9837 135.572 76.2233 135.589 75.3622C135.589 75.1819 135.589 75.0398 135.589 74.938C135.589 74.6835 135.601 74.6029 135.601 74.6029C135.922 73.657 135.653 71.8202 135.601 71.6548C135.585 71.4841 135.536 71.3179 135.458 71.1648C135.318 70.8403 135.068 70.7852 134.654 70.4416C134.24 70.098 133.128 69.9177 133.128 69.9177H130.948C130.948 69.9177 129.836 70.0959 129.422 70.4416C129.008 70.7873 128.758 70.8403 128.615 71.1648C128.539 71.3182 128.491 71.4843 128.475 71.6548C128.423 71.8202 128.155 73.657 128.475 74.6029C128.475 74.6029 128.475 74.6792 128.487 74.938C128.487 75.0462 128.487 75.1861 128.498 75.3622C128.513 76.2106 128.534 77.9688 128.534 81.4557C128.088 82.6837 128.268 85.5236 128.688 85.9096C128.993 86.158 129.336 86.3569 129.704 86.4993C130.151 86.617 130.609 86.6881 131.071 86.7114C132.746 86.7389 134.411 86.845 135.407 85.9075C135.653 85.6785 135.621 85.2818 135.757 84.6604C135.84 83.8569 135.834 83.0469 135.74 82.2447ZM128.912 75.4979C129.02 75.7504 129.105 76.0125 129.164 76.2806C129.467 77.5913 129.416 77.8288 129.416 78.8257C129.416 78.8443 129.412 78.8627 129.403 78.8789C129.394 78.8952 129.38 78.9086 129.364 78.9178C129.348 78.927 129.329 78.9315 129.31 78.931C129.292 78.9305 129.273 78.9249 129.258 78.9148L128.957 78.7027C128.942 78.6927 128.931 78.6794 128.923 78.6638C128.915 78.6483 128.911 78.631 128.912 78.6136V75.4979ZM128.912 82.1471V79.4705C128.911 79.4558 128.913 79.4411 128.918 79.4275C128.924 79.4138 128.932 79.4016 128.943 79.3918C128.954 79.3819 128.967 79.3747 128.982 79.3707C128.996 79.3667 129.011 79.366 129.025 79.3687L129.345 79.4514C129.366 79.4574 129.385 79.4703 129.398 79.4879C129.411 79.5056 129.418 79.527 129.418 79.5489C129.435 81.3708 129.475 82.3359 129.204 82.251C129.068 82.251 128.914 82.2828 128.914 82.1471H128.912ZM129.473 83.9096C129.474 84.1093 129.412 84.3044 129.296 84.4674C129.098 84.7495 129.083 83.9647 129 82.9424L129.473 82.4334C129.473 82.4334 129.492 83.6381 129.475 83.9096H129.473ZM134.27 85.8566C134.04 86.003 133.446 86.3466 133.028 86.355C132.721 86.355 131.272 86.355 131.042 86.355C130.615 86.355 130.03 86.003 129.8 85.8566C129.652 85.7654 129.714 85.6042 129.74 85.2203C129.743 85.1935 129.751 85.1675 129.764 85.1439C129.778 85.1203 129.796 85.0997 129.817 85.0832C129.839 85.0667 129.863 85.0548 129.89 85.0481C129.916 85.0414 129.944 85.0401 129.97 85.0443C131.126 85.1851 132.294 85.2121 133.455 85.1249L134.095 85.0443C134.122 85.0401 134.149 85.0414 134.175 85.0481C134.201 85.0548 134.226 85.0668 134.247 85.0833C134.269 85.0998 134.287 85.1205 134.3 85.144C134.313 85.1676 134.321 85.1936 134.323 85.2203L134.355 85.6827C134.359 85.7165 134.354 85.7508 134.339 85.7816C134.324 85.8124 134.301 85.8384 134.272 85.8566H134.27ZM134.127 76.9487C133.389 76.7514 131.767 76.7366 130.606 76.8384C130.382 76.8559 130.16 76.8928 129.943 76.9487C129.897 76.9603 129.85 76.9626 129.804 76.9556C129.757 76.9485 129.713 76.9322 129.673 76.9076C129.633 76.8831 129.599 76.8507 129.572 76.8126C129.545 76.7744 129.526 76.7313 129.516 76.6857L129.115 74.3526C131.011 73.6972 133.075 73.6972 134.972 74.3526L134.571 76.6857C134.562 76.7335 134.543 76.7789 134.516 76.819C134.488 76.8591 134.452 76.893 134.411 76.9184C134.369 76.9438 134.322 76.9602 134.274 76.9665C134.225 76.9729 134.176 76.9689 134.129 76.955L134.127 76.9487ZM135.158 75.4916V78.6136C135.158 78.6309 135.154 78.6481 135.146 78.6636C135.138 78.6791 135.127 78.6925 135.113 78.7027L134.812 78.9148C134.796 78.9254 134.778 78.9315 134.759 78.9324C134.74 78.9332 134.721 78.9288 134.704 78.9195C134.688 78.9102 134.674 78.8966 134.665 78.88C134.655 78.8634 134.651 78.8446 134.652 78.8257C134.652 78.7769 134.652 77.6783 134.652 77.6295C134.788 76.8172 134.929 75.99 135.16 75.4979L135.158 75.4916ZM134.774 84.461C134.56 84.1599 134.573 83.9944 134.596 82.4271L135.07 82.9361C135.002 83.9669 134.972 84.7495 134.776 84.4674L134.774 84.461ZM135.064 82.2447H134.865C134.594 82.3295 134.635 81.3645 134.652 79.5426C134.652 79.5206 134.658 79.4992 134.672 79.4816C134.685 79.4639 134.703 79.4511 134.724 79.445L135.045 79.3623C135.059 79.3596 135.074 79.3603 135.088 79.3643C135.102 79.3684 135.115 79.3756 135.126 79.3854C135.137 79.3953 135.146 79.4075 135.151 79.4211C135.157 79.4348 135.159 79.4495 135.158 79.4641C135.16 82.1641 135.215 82.251 135.066 82.251L135.064 82.2447Z" fill="#FDBF52"/>
<path d="M130.03 70.1001C129.673 70.1945 129.348 70.3853 129.093 70.6516C129.085 70.6595 129.078 70.669 129.073 70.6795C129.069 70.6901 129.066 70.7015 129.066 70.7131C129.066 70.7937 129.066 70.9676 129.192 70.8976C129.955 70.4564 130.205 70.3886 130.186 70.2783C130.167 70.168 130.135 70.0641 130.03 70.1001Z" fill="#242424"/>
<path d="M133.916 70.1617C133.924 70.1371 133.942 70.1169 133.966 70.1054C133.99 70.0939 134.017 70.092 134.042 70.1001C134.399 70.1951 134.724 70.3858 134.98 70.6516C134.989 70.6595 134.996 70.669 135.001 70.6796C135.005 70.6901 135.008 70.7015 135.008 70.7131C135.008 70.7937 135.008 70.9676 134.882 70.8976C133.845 70.2974 133.837 70.4183 133.916 70.1617Z" fill="#242424"/>
<path d="M128.991 75.1947L128.944 74.9699C128.368 74.8362 127.939 75.0483 127.933 75.2117C127.926 75.375 127.835 75.5574 128.695 75.3029L128.991 75.1947Z" fill="#242424"/>
<path d="M128.725 78.55C128.733 78.5503 128.742 78.5488 128.751 78.5457C128.759 78.5425 128.767 78.5378 128.773 78.5316C128.78 78.5255 128.785 78.5182 128.789 78.5101C128.793 78.502 128.795 78.4932 128.795 78.4843V77.988C128.795 77.9791 128.793 77.9704 128.79 77.9623C128.786 77.9542 128.781 77.9468 128.775 77.9407C128.768 77.9346 128.761 77.9298 128.753 77.9266C128.744 77.9234 128.736 77.9219 128.727 77.9222C128.718 77.9219 128.709 77.9234 128.7 77.9266C128.692 77.9297 128.684 77.9345 128.678 77.9406C128.671 77.9467 128.666 77.954 128.662 77.9621C128.659 77.9703 128.657 77.979 128.656 77.988V78.4843C128.656 78.4931 128.658 78.5018 128.661 78.5099C128.665 78.518 128.67 78.5254 128.676 78.5315C128.683 78.5377 128.69 78.5425 128.699 78.5456C128.707 78.5488 128.716 78.5503 128.725 78.55Z" fill="#242424"/>
<path d="M128.725 81.8459C128.733 81.8462 128.742 81.8447 128.751 81.8416C128.759 81.8384 128.767 81.8336 128.773 81.8275C128.78 81.8214 128.785 81.8141 128.789 81.806C128.793 81.7978 128.795 81.7891 128.795 81.7802V81.2839C128.795 81.275 128.793 81.2663 128.79 81.2582C128.786 81.2501 128.781 81.2427 128.775 81.2366C128.768 81.2305 128.761 81.2257 128.753 81.2225C128.744 81.2193 128.736 81.2178 128.727 81.2181C128.718 81.2178 128.709 81.2193 128.7 81.2225C128.692 81.2256 128.684 81.2304 128.678 81.2365C128.671 81.2426 128.666 81.2499 128.662 81.258C128.659 81.2662 128.657 81.275 128.656 81.2839V81.7802C128.656 81.789 128.658 81.7977 128.661 81.8058C128.665 81.8139 128.67 81.8213 128.676 81.8274C128.683 81.8336 128.69 81.8384 128.699 81.8415C128.707 81.8447 128.716 81.8462 128.725 81.8459Z" fill="#242424"/>
<path d="M135.083 75.1947L135.13 74.9699C135.706 74.8362 136.133 75.0483 136.141 75.2117C136.15 75.375 136.24 75.5574 135.38 75.3029L135.083 75.1947Z" fill="#242424"/>
<path d="M130.071 84.2341C130.306 84.2341 130.235 84.4865 130.235 77.6846C130.235 77.6638 130.23 77.6432 130.221 77.6241C130.213 77.605 130.201 77.5878 130.185 77.5734C130.17 77.559 130.152 77.5478 130.132 77.5403C130.113 77.5328 130.092 77.5292 130.071 77.5298C130.029 77.5292 129.988 77.5451 129.957 77.574C129.926 77.6029 129.908 77.6426 129.907 77.6846C129.907 84.5798 129.838 84.2341 130.071 84.2341Z" fill="#242424"/>
<path d="M134.001 84.2341C133.769 84.2341 133.837 84.4865 133.837 77.6846C133.839 77.6426 133.857 77.6029 133.887 77.574C133.918 77.5451 133.959 77.5292 134.001 77.5298C134.022 77.5292 134.043 77.5328 134.063 77.5403C134.082 77.5478 134.1 77.559 134.116 77.5734C134.131 77.5878 134.143 77.605 134.152 77.6241C134.16 77.6432 134.165 77.6638 134.166 77.6846C134.166 84.5798 134.236 84.2341 134.001 84.2341Z" fill="#242424"/>
<path d="M135.348 78.55C135.339 78.5503 135.33 78.5488 135.322 78.5456C135.314 78.5425 135.306 78.5377 135.3 78.5315C135.293 78.5254 135.288 78.518 135.285 78.5099C135.281 78.5018 135.28 78.4931 135.28 78.4843V77.988C135.28 77.979 135.282 77.9703 135.286 77.9621C135.289 77.954 135.295 77.9467 135.301 77.9406C135.308 77.9345 135.315 77.9297 135.324 77.9266C135.332 77.9234 135.341 77.9219 135.35 77.9222C135.359 77.9219 135.368 77.9234 135.376 77.9266C135.384 77.9298 135.392 77.9346 135.398 77.9407C135.404 77.9468 135.41 77.9542 135.413 77.9623C135.416 77.9704 135.418 77.9791 135.418 77.988V78.4843C135.418 78.4932 135.416 78.502 135.412 78.5101C135.409 78.5182 135.403 78.5255 135.397 78.5316C135.39 78.5378 135.383 78.5425 135.374 78.5457C135.366 78.5488 135.357 78.5503 135.348 78.55Z" fill="#242424"/>
<path d="M135.348 81.8459C135.339 81.8462 135.33 81.8447 135.322 81.8415C135.314 81.8384 135.306 81.8336 135.3 81.8274C135.293 81.8213 135.288 81.8139 135.285 81.8058C135.281 81.7977 135.28 81.789 135.28 81.7802V81.2839C135.28 81.275 135.282 81.2662 135.286 81.258C135.289 81.2499 135.295 81.2426 135.301 81.2365C135.308 81.2304 135.315 81.2256 135.324 81.2225C135.332 81.2193 135.341 81.2178 135.35 81.2181C135.359 81.2178 135.368 81.2193 135.376 81.2225C135.384 81.2257 135.392 81.2305 135.398 81.2366C135.404 81.2427 135.41 81.2501 135.413 81.2582C135.416 81.2663 135.418 81.275 135.418 81.2839V81.7802C135.418 81.7891 135.416 81.7978 135.412 81.806C135.409 81.8141 135.403 81.8214 135.397 81.8275C135.39 81.8336 135.383 81.8384 135.374 81.8416C135.366 81.8447 135.357 81.8462 135.348 81.8459Z" fill="#242424"/>
<path d="M134.771 86.0878C134.756 86.0735 134.735 86.0656 134.714 86.0656C134.693 86.0656 134.672 86.0735 134.656 86.0878C134.419 86.2999 134.424 86.2723 134.543 86.4569C134.656 86.4038 134.797 86.3296 134.934 86.2448L134.771 86.0878Z" fill="#BE1E2D"/>
<path d="M129.572 86.213C129.328 86.0009 129.384 86.0009 129.145 86.2363C129.281 86.3169 129.422 86.3911 129.537 86.4484C129.589 86.3551 129.653 86.283 129.572 86.213Z" fill="#BE1E2D"/>
</g>
<defs>
<linearGradient id="paint0_linear_1011_4148" x1="116.468" y1="82.8449" x2="123.371" y2="82.8449" gradientUnits="userSpaceOnUse">
<stop/>
<stop offset="1" stop-color="#000001"/>
</linearGradient>
<linearGradient id="paint1_linear_1011_4148" x1="114.044" y1="59.3788" x2="119.634" y2="59.3788" gradientUnits="userSpaceOnUse">
<stop/>
<stop offset="1" stop-color="#000001"/>
</linearGradient>
<linearGradient id="paint2_linear_1011_4148" x1="112.407" y1="72.3908" x2="121.271" y2="72.3908" gradientUnits="userSpaceOnUse">
<stop/>
<stop offset="1" stop-color="#000001"/>
</linearGradient>
<linearGradient id="paint3_linear_1011_4148" x1="96.1288" y1="93.0827" x2="107.837" y2="93.0827" gradientUnits="userSpaceOnUse">
<stop/>
<stop offset="1" stop-color="#000001"/>
</linearGradient>
<clipPath id="clip0_1011_4148">
<rect width="181.429" height="127" fill="white" transform="translate(15.7239 41.1238)"/>
</clipPath>
</defs>
</svg>
