<svg width="260" height="71" viewBox="0 0 260 71" fill="none" xmlns="http://www.w3.org/2000/svg">
<path d="M62.5333 69.6979L53.8046 54.7007V68.2645C53.8046 68.7066 53.9044 69.0489 54.1041 69.2914C54.3038 69.5196 54.6604 69.7122 55.1738 69.869V70.4467H47.2153V69.8476C47.7145 69.7193 48.0639 69.5339 48.2636 69.2914C48.4775 69.0489 48.5845 68.7066 48.5845 68.2645V48.6677C48.5845 48.2255 48.4846 47.8903 48.285 47.6621C48.0853 47.4197 47.7287 47.2271 47.2153 47.0845V46.4855H57.3346V47.0845C56.6643 47.2984 56.3291 47.7049 56.3291 48.304C56.3291 48.8887 56.5715 49.6019 57.0565 50.4434L63.0254 60.5199L69.0371 50.5931C69.7217 49.4664 70.064 48.6677 70.064 48.197C70.064 47.6122 69.7146 47.2414 69.0157 47.0845V46.4855H78.8783V47.0845C78.3648 47.2271 78.0083 47.4197 77.8086 47.6621C77.6089 47.8903 77.5091 48.2255 77.5091 48.6677V68.2645C77.5091 68.7066 77.6089 69.0489 77.8086 69.2914C78.0083 69.5339 78.3648 69.7264 78.8783 69.869V70.4467H70.4063V69.8476C70.9055 69.7193 71.2549 69.5339 71.4546 69.2914C71.6685 69.0489 71.7755 68.7066 71.7755 68.2645V54.7007L62.5333 69.6979Z" fill="#44AA02"/>
<path d="M90.2171 60.6055V68.2645C90.2171 68.7066 90.3169 69.0489 90.5166 69.2914C90.7163 69.5196 91.0728 69.7122 91.5863 69.869V70.4467H83.1143V69.8476C83.6135 69.7193 83.9629 69.5339 84.1626 69.2914C84.3765 69.0489 84.4835 68.7066 84.4835 68.2645V48.6677C84.4835 48.2255 84.3837 47.8903 84.184 47.6621C83.9843 47.4339 83.6277 47.2414 83.1143 47.0845V46.4855H98.8174C100.857 46.4855 102.412 46.5924 103.481 46.8064C104.551 47.0061 105.507 47.3769 106.348 47.9189C108.074 49.0456 108.937 50.8855 108.937 53.4385C108.937 55.3782 108.402 56.8972 107.332 57.9954C106.277 59.0794 104.565 59.8638 102.198 60.3487L106.733 66.6813C107.56 67.8509 108.217 68.6496 108.701 69.0775C109.201 69.4911 109.764 69.7549 110.392 69.869V70.4467H100.336V69.869C101.078 69.6694 101.449 69.3485 101.449 68.9063C101.449 68.5925 101.221 68.1147 100.764 67.4729L95.972 60.6055H90.2171ZM90.2171 56.2625H98.8602C100.172 56.2625 101.142 56.1199 101.77 55.8346C102.654 55.4495 103.096 54.6865 103.096 53.5455C103.096 52.5328 102.782 51.8268 102.155 51.4275C101.542 51.0281 100.443 50.8284 98.8602 50.8284H90.2171V56.2625Z" fill="#44AA02"/>
<path d="M132.47 64.4564H121.452L120.211 67.0664C119.912 67.694 119.762 68.1861 119.762 68.5426C119.762 69.2272 120.218 69.6622 121.131 69.8476V70.4467H112.317V69.8476C112.859 69.7621 113.258 69.598 113.515 69.3556C113.786 69.1131 114.1 68.6353 114.456 67.9222L123.207 50.208C123.535 49.5377 123.699 48.9529 123.699 48.4537C123.699 47.8689 123.299 47.4125 122.501 47.0845V46.4855H131.807V47.0845C131.022 47.3983 130.63 47.8832 130.63 48.5393C130.63 49.01 130.808 49.5876 131.165 50.2722L140.236 67.4515C140.735 68.3929 141.127 69.0062 141.413 69.2914C141.698 69.5624 142.133 69.7549 142.718 69.869V70.4467H132.941V69.869C133.868 69.7122 134.331 69.2771 134.331 68.564C134.331 68.1219 134.153 67.5728 133.797 66.9167L132.47 64.4564ZM130.737 61.0975L126.822 53.4171L123.1 61.0975H130.737Z" fill="#44AA02"/>
<path d="M165.203 60.0278H151.832V68.2645C151.832 68.7066 151.931 69.0489 152.131 69.2914C152.331 69.5196 152.687 69.7122 153.201 69.869V70.4467H144.729V69.8476C145.228 69.7193 145.577 69.5339 145.777 69.2914C145.991 69.0489 146.098 68.7066 146.098 68.2645V48.6677C146.098 48.2255 145.998 47.8903 145.799 47.6621C145.599 47.4339 145.242 47.2414 144.729 47.0845V46.4855H153.201V47.0845C152.687 47.2271 152.331 47.4197 152.131 47.6621C151.931 47.8903 151.832 48.2255 151.832 48.6677V55.6849H165.203V48.6677C165.203 48.2255 165.103 47.8903 164.903 47.6621C164.718 47.4339 164.361 47.2414 163.834 47.0845V46.4855H172.306V47.0845C171.792 47.2271 171.436 47.4197 171.236 47.6621C171.036 47.8903 170.936 48.2255 170.936 48.6677V68.2645C170.936 68.7066 171.036 69.0489 171.236 69.2914C171.436 69.5196 171.792 69.7122 172.306 69.869V70.4467H163.834V69.8476C164.333 69.7193 164.682 69.5339 164.882 69.2914C165.096 69.0489 165.203 68.7066 165.203 68.2645V60.0278Z" fill="#44AA02"/>
<path d="M202.321 62.489C202.321 62.7386 202.225 63.0202 202.033 63.334C201.84 63.6478 201.58 63.9794 201.252 64.3288C200.924 64.6711 200.542 65.0277 200.107 65.3985C199.672 65.7694 199.212 66.1402 198.727 66.511C198.071 67.0102 197.372 67.488 196.631 67.9444C195.896 68.4008 195.147 68.8073 194.384 69.1639C193.621 69.5133 192.862 69.7914 192.106 69.9982C191.35 70.2122 190.63 70.3191 189.945 70.3191C189.125 70.3191 188.415 70.2015 187.816 69.9661C187.217 69.7379 186.722 69.4099 186.329 68.982C185.937 68.5541 185.645 68.0407 185.452 67.4417C185.267 66.8355 185.174 66.1652 185.174 65.4306C185.174 64.8173 185.245 64.1898 185.388 63.548C185.531 62.9061 185.727 62.2715 185.976 61.6439C186.233 61.0163 186.533 60.4102 186.875 59.8254C187.217 59.2407 187.585 58.7022 187.977 58.2102C188.205 57.9249 188.476 57.629 188.79 57.3223C189.104 57.0086 189.435 56.7019 189.785 56.4024C190.134 56.1029 190.487 55.8248 190.844 55.568C191.2 55.3042 191.539 55.076 191.86 54.8834C192.088 54.7479 192.377 54.5982 192.726 54.4341C193.076 54.263 193.439 54.1061 193.817 53.9635C194.202 53.8137 194.58 53.6889 194.951 53.5891C195.322 53.4893 195.643 53.4393 195.914 53.4393C196.399 53.4393 196.784 53.4714 197.069 53.5356C197.354 53.5998 197.608 53.7139 197.829 53.8779C197.936 53.9564 198.057 54.0776 198.192 54.2416C198.328 54.4056 198.456 54.5839 198.577 54.7765C198.699 54.969 198.802 55.1615 198.888 55.3541C198.973 55.5395 199.016 55.6964 199.016 55.8248C199.016 55.9103 198.988 56.028 198.93 56.1778C198.881 56.3204 198.813 56.4773 198.727 56.6484C198.642 56.8196 198.545 56.9979 198.438 57.1833C198.331 57.3616 198.224 57.5327 198.117 57.6967C198.018 57.8607 197.921 58.0069 197.829 58.1353C197.736 58.2637 197.665 58.3599 197.615 58.4241C197.294 58.8021 196.891 58.9911 196.406 58.9911C195.999 58.9911 195.682 58.877 195.454 58.6488C195.233 58.4206 195.122 58.1353 195.122 57.793C195.122 57.686 195.183 57.5184 195.304 57.2902C195.425 57.0549 195.625 56.7982 195.903 56.5201C196.039 56.3846 196.156 56.2526 196.256 56.1243C196.356 55.9888 196.435 55.8711 196.492 55.7713C196.313 55.7071 196.131 55.675 195.946 55.675C195.725 55.675 195.447 55.732 195.112 55.8461C194.784 55.9531 194.438 56.0922 194.074 56.2633C193.717 56.4273 193.368 56.6128 193.026 56.8196C192.683 57.0264 192.395 57.2261 192.159 57.4186C191.503 57.9535 190.883 58.556 190.298 59.2264C189.713 59.8967 189.228 60.6277 188.843 61.4193C188.693 61.733 188.551 62.0682 188.415 62.4248C188.28 62.7813 188.162 63.145 188.062 63.5159C187.963 63.8796 187.884 64.2468 187.827 64.6177C187.77 64.9814 187.741 65.3272 187.741 65.6553C187.741 66.019 187.781 66.3541 187.859 66.6608C187.938 66.9674 188.066 67.2349 188.244 67.4631C188.43 67.6913 188.669 67.8695 188.961 67.9979C189.253 68.1263 189.613 68.1904 190.041 68.1904C190.548 68.1904 191.079 68.1227 191.635 67.9872C192.191 67.8446 192.755 67.6556 193.325 67.4203C193.896 67.1778 194.466 66.9032 195.037 66.5966C195.614 66.2828 196.167 65.9548 196.695 65.6125C197.23 65.2702 197.732 64.9243 198.203 64.5749C198.681 64.2254 199.112 63.8938 199.497 63.5801C199.647 63.4588 199.811 63.3162 199.989 63.1522C200.175 62.9882 200.36 62.817 200.546 62.6387C200.738 62.4604 200.924 62.2786 201.102 62.0932C201.287 61.9078 201.455 61.7366 201.605 61.5797C201.769 61.6653 201.897 61.7402 201.99 61.8044C202.09 61.8685 202.161 61.9363 202.204 62.0076C202.254 62.0718 202.286 62.1431 202.3 62.2215C202.314 62.3 202.321 62.3891 202.321 62.489Z" fill="#44AA02"/>
<path d="M208.087 59.6329C208.087 59.6115 208.08 59.5723 208.066 59.5152C208.059 59.451 208.048 59.4011 208.034 59.3654C207.798 59.394 207.538 59.4867 207.253 59.6436C206.975 59.7933 206.671 60.0251 206.343 60.3389C206.023 60.6527 205.677 61.0591 205.306 61.5583C204.935 62.0504 204.546 62.653 204.14 63.3661C204.033 63.5587 203.919 63.769 203.798 63.9972C203.676 64.2183 203.562 64.4572 203.455 64.7139C203.355 64.9707 203.273 65.2452 203.209 65.5376C203.145 65.8229 203.113 66.1259 203.113 66.4468C203.113 66.5681 203.145 66.6608 203.209 66.725C203.281 66.782 203.352 66.8105 203.423 66.8105C203.587 66.8105 203.798 66.7178 204.054 66.5324C204.318 66.3399 204.6 66.0867 204.899 65.7729C205.206 65.4592 205.516 65.1026 205.83 64.7032C206.151 64.2968 206.447 63.8831 206.718 63.4624C206.989 63.0345 207.224 62.6138 207.424 62.2001C207.631 61.7794 207.773 61.4014 207.852 61.0663C207.873 60.9593 207.898 60.8345 207.927 60.6919C207.955 60.5492 207.98 60.4102 208.001 60.2747C208.03 60.1321 208.051 60.0037 208.066 59.8896C208.08 59.7755 208.087 59.6899 208.087 59.6329ZM216.72 60.9807C216.72 61.1091 216.698 61.2446 216.655 61.3872C216.613 61.5298 216.555 61.6724 216.484 61.8151C216.42 61.9577 216.345 62.1003 216.26 62.2429C216.174 62.3856 216.085 62.5175 215.992 62.6387C215.579 63.195 215.133 63.7191 214.655 64.2112C214.184 64.6961 213.71 65.1525 213.232 65.5804C212.976 65.8086 212.712 66.0154 212.441 66.2008C212.17 66.3862 211.899 66.5467 211.628 66.6822C211.357 66.8177 211.093 66.9211 210.836 66.9924C210.579 67.0637 210.341 67.0994 210.119 67.0994C209.848 67.0994 209.588 67.0138 209.339 66.8426C209.089 66.6715 208.868 66.4575 208.675 66.2008C208.49 65.937 208.34 65.6553 208.226 65.3558C208.119 65.0562 208.066 64.7781 208.066 64.5214C207.98 64.6498 207.855 64.8209 207.691 65.0348C207.527 65.2488 207.356 65.4663 207.178 65.6874C207 65.9084 206.832 66.1117 206.675 66.2971C206.525 66.4754 206.418 66.6037 206.354 66.6822C206.126 66.9246 205.862 67.1742 205.563 67.431C205.263 67.6877 204.964 67.9195 204.664 68.1263C204.372 68.3331 204.097 68.5042 203.84 68.6397C203.584 68.7681 203.388 68.8323 203.252 68.8323C202.938 68.8323 202.635 68.7823 202.343 68.6825C202.05 68.5827 201.79 68.44 201.562 68.2546C201.341 68.0621 201.163 67.8267 201.027 67.5486C200.892 67.2705 200.824 66.9532 200.824 66.5966C200.824 66.2472 200.87 65.8656 200.963 65.452C201.063 65.0313 201.195 64.5963 201.359 64.147C201.53 63.6906 201.733 63.2306 201.968 62.7671C202.204 62.3035 202.457 61.8543 202.728 61.4193C203.006 60.9771 203.298 60.5599 203.605 60.1677C203.912 59.7755 204.225 59.4261 204.546 59.1194C205.117 58.5774 205.723 58.1781 206.365 57.9214C207.007 57.6646 207.67 57.5363 208.354 57.5363C208.533 57.5363 208.683 57.5612 208.804 57.6111C208.925 57.6611 209.028 57.7288 209.114 57.8144C209.2 57.8928 209.271 57.9855 209.328 58.0925C209.392 58.1995 209.449 58.3064 209.499 58.4134C209.535 58.4633 209.592 58.5347 209.67 58.6274C209.756 58.7129 209.841 58.8092 209.927 58.9162C210.013 59.0231 210.087 59.1301 210.152 59.2371C210.216 59.3441 210.248 59.4403 210.248 59.5259C210.248 59.6757 210.226 59.8397 210.184 60.018C210.141 60.1891 210.095 60.3888 210.045 60.617C210.002 60.8452 209.959 61.1055 209.916 61.3979C209.873 61.6831 209.852 62.0147 209.852 62.3927C209.852 62.6066 209.866 62.8562 209.895 63.1415C209.931 63.4267 209.98 63.6942 210.045 63.9438C210.109 64.1933 210.187 64.4073 210.28 64.5856C210.38 64.7567 210.49 64.8423 210.612 64.8423C210.761 64.8423 210.893 64.828 211.007 64.7995C211.129 64.7639 211.243 64.7175 211.35 64.6604C211.457 64.5963 211.564 64.5214 211.671 64.4358C211.785 64.3502 211.913 64.2575 212.056 64.1577C212.498 63.8368 212.94 63.466 213.382 63.0452C213.831 62.6245 214.288 62.193 214.751 61.7509C214.88 61.6296 215.012 61.4941 215.147 61.3444C215.29 61.1946 215.432 61.0556 215.575 60.9272C215.725 60.7988 215.871 60.6919 216.014 60.6063C216.156 60.5207 216.292 60.4779 216.42 60.4779C216.62 60.4779 216.72 60.6455 216.72 60.9807Z" fill="#44AA02"/>
<path d="M225.448 60.5635C225.448 60.8559 225.356 61.0984 225.17 61.2909C224.985 61.4763 224.753 61.569 224.475 61.569C224.282 61.569 224.108 61.5334 223.951 61.4621C223.801 61.3907 223.662 61.3123 223.533 61.2267C223.405 61.134 223.284 61.052 223.17 60.9807C223.063 60.9094 222.952 60.8737 222.838 60.8737C222.71 60.8737 222.571 60.9165 222.421 61.0021C222.271 61.0877 222.114 61.2053 221.95 61.3551C221.786 61.4977 221.615 61.6653 221.437 61.8578C221.266 62.0504 221.095 62.2536 220.923 62.4676C220.802 62.6173 220.667 62.7992 220.517 63.0131C220.367 63.2199 220.217 63.4374 220.068 63.6656C219.918 63.8938 219.775 64.1256 219.64 64.3609C219.504 64.5963 219.387 64.8138 219.287 65.0134C219.201 65.1917 219.105 65.3985 218.998 65.6339C218.898 65.8692 218.802 66.1081 218.709 66.3506C218.624 66.593 218.545 66.8248 218.474 67.0459C218.403 67.2669 218.356 67.4524 218.335 67.6021C218.292 67.8802 218.249 68.137 218.206 68.3723C218.164 68.6076 218.103 68.8109 218.025 68.982C217.953 69.146 217.853 69.2744 217.725 69.3671C217.604 69.4598 217.436 69.5062 217.222 69.5062C216.837 69.5062 216.548 69.4242 216.356 69.2601C216.163 69.0961 216.024 68.8857 215.939 68.629C215.86 68.3723 215.814 68.0906 215.8 67.784C215.785 67.4773 215.764 67.1814 215.735 66.8961C215.714 66.7107 215.696 66.5253 215.682 66.3399C215.668 66.1545 215.653 65.9619 215.639 65.7622C215.632 65.5554 215.625 65.3379 215.618 65.1097C215.611 64.8744 215.607 64.6177 215.607 64.3395C215.607 63.9758 215.621 63.5694 215.65 63.1201C215.678 62.6708 215.71 62.2394 215.746 61.8258C215.789 61.4121 215.832 61.0449 215.874 60.724C215.924 60.4031 215.967 60.1891 216.003 60.0821C216.074 59.8896 216.17 59.7078 216.292 59.5366C216.413 59.3583 216.545 59.205 216.687 59.0766C216.837 58.9411 216.991 58.8342 217.147 58.7557C217.311 58.6773 217.468 58.6381 217.618 58.6381C217.754 58.6381 217.889 58.6559 218.025 58.6915C218.167 58.7272 218.292 58.7878 218.399 58.8734C218.513 58.959 218.606 59.0731 218.677 59.2157C218.748 59.3512 218.784 59.5223 218.784 59.7291C218.784 59.7791 218.766 59.8611 218.731 59.9752C218.695 60.0821 218.649 60.239 218.591 60.4458C218.527 60.6669 218.456 60.9236 218.378 61.216C218.299 61.5084 218.224 61.8079 218.153 62.1146C218.089 62.4212 218.032 62.7243 217.982 63.0238C217.932 63.3233 217.903 63.5908 217.896 63.8261C217.932 63.7476 217.996 63.6193 218.089 63.441C218.181 63.2556 218.278 63.063 218.378 62.8634C218.485 62.6565 218.588 62.4604 218.688 62.275C218.788 62.0825 218.862 61.9434 218.912 61.8578C219.119 61.5084 219.358 61.1376 219.629 60.7454C219.9 60.3531 220.207 59.993 220.549 59.665C220.898 59.3298 221.291 59.0552 221.726 58.8413C222.161 58.6202 222.639 58.5097 223.159 58.5097C223.558 58.5097 223.901 58.5703 224.186 58.6915C224.478 58.8056 224.717 58.959 224.903 59.1515C225.088 59.3441 225.224 59.5651 225.309 59.8147C225.402 60.0572 225.448 60.3068 225.448 60.5635Z" fill="#44AA02"/>
<path d="M259.885 42.4004C255.525 39.529 226.61 30.8299 221.537 29.6388C215.674 28.314 209.736 27.348 203.756 26.7462C191.7 25.6634 179.592 25.2764 167.492 25.587C158.888 25.6933 150.21 25.8848 141.745 24.3534C133.28 22.822 124.9 19.4402 118.838 13.3252C129.481 11.6276 140.293 11.249 151.029 12.198C161.738 13.3252 172.352 16.3667 181.529 21.9925C178.594 18.0683 173.894 15.9095 169.257 14.3249C155.251 9.5393 140.214 8.58218 125.41 8.91186C120.623 9.11233 115.828 9.00932 111.053 8.60344C106.8 8.15679 102.758 6.08305 98.377 6.12558H97.8346L101.025 10.0179L69.6102 15.5479L71.8435 15.8775C83.9245 17.6854 96.0161 19.3976 108.001 21.8542C120.21 24.3534 132.376 27.1077 144.723 28.7667C147.807 29.1815 150.902 29.5324 154.007 29.8302C177.85 31.8189 202.012 28.8412 225.855 32.4676C229.396 32.9887 256.801 40.3798 259.885 42.4004Z" fill="url(#paint0_linear_6_3)"/>
<path d="M141.15 34.7434C134.056 32.6165 126.942 30.4896 119.753 28.6498C111.202 26.5228 102.578 24.6901 93.8785 23.1516C83.095 21.2906 72.1413 19.9612 61.2195 20.7057C53.7753 21.2161 46.4161 23.5132 42.8854 30.6278C43.1512 30.0748 45.459 29.5112 46.0758 29.2985C48.0217 28.6666 50.0077 28.1657 52.0205 27.799C56.1543 27.0347 60.3448 26.6184 64.5482 26.5547C73.0559 26.3527 81.5636 27.2885 90.0713 28.2456C101.855 29.575 113.68 30.7554 125.4 32.4995L141.15 34.7434Z" fill="url(#paint1_linear_6_3)"/>
<path d="M21.5948 70.8162C27.3801 70.8162 31.8076 69.7102 34.8775 67.4981C36.6692 66.2132 37.9824 64.3687 38.6103 62.2553C39.3307 59.7066 39.6711 57.0656 39.6206 54.4175V30.2556V27.7246C39.5997 27.5978 39.5997 27.4685 39.6206 27.3417C39.6722 27.2471 39.742 27.1637 39.826 27.0962C39.9099 27.0287 40.0063 26.9784 40.1098 26.9482C40.9599 26.5718 41.7264 26.0295 42.3643 25.353C42.5674 25.1668 42.7209 24.9329 42.8109 24.6724C42.8611 24.3942 42.848 24.1082 42.7725 23.8357C42.6971 23.5632 42.5612 23.3112 42.3749 23.0985C41.8734 22.3859 41.2331 21.7818 40.4926 21.3225C40.1625 21.1702 39.8769 20.9359 39.6631 20.6419C39.4971 20.2703 39.4102 19.8683 39.4079 19.4614C39.4079 19.1105 39.2696 18.7914 39.2058 18.4511C38.791 15.952 38.355 13.4528 37.9296 10.9537C37.3128 7.30599 36.26 3.65832 35.6326 0C35.0157 3.65832 33.9629 7.30599 33.3355 10.9537C32.9207 13.4528 32.4847 15.952 32.0593 18.4511C32.0593 18.7914 31.8998 19.1105 31.8679 19.4614C31.8656 19.8683 31.7786 20.2703 31.6127 20.6419C31.3932 20.9305 31.1091 21.1636 30.7832 21.3225C30.0372 21.7785 29.3928 22.383 28.8902 23.0985C28.7084 23.3139 28.5754 23.5661 28.5001 23.8378C28.4249 24.1094 28.4092 24.3941 28.4542 24.6724C28.548 24.931 28.701 25.164 28.9008 25.353C29.5427 26.0248 30.3082 26.5665 31.1554 26.9482C31.2588 26.9784 31.3552 27.0287 31.4392 27.0962C31.5231 27.1637 31.5929 27.2471 31.6446 27.3417C31.6654 27.4685 31.6654 27.5978 31.6446 27.7246C31.6446 28.5753 31.6446 29.4155 31.6446 30.2556V51.7695C31.6904 53.6125 31.573 55.456 31.2936 57.2783C31.1172 58.3651 30.6752 59.3916 30.0068 60.2666C28.3266 62.3935 25.4658 63.457 21.4247 63.457C17.3835 63.457 14.5228 62.3935 12.8425 60.2666C12.1707 59.3912 11.7218 58.3657 11.5344 57.2783C11.2653 55.4549 11.1515 53.6121 11.1941 51.7695V30.2556V27.7246C11.1733 27.5978 11.1733 27.4685 11.1941 27.3417C11.2458 27.2471 11.3156 27.1637 11.3995 27.0962C11.4835 27.0287 11.5799 26.9784 11.6833 26.9482C12.532 26.5691 13.298 26.0271 13.9379 25.353C14.141 25.1668 14.2945 24.9329 14.3845 24.6724C14.4347 24.3942 14.4216 24.1082 14.3461 23.8357C14.2706 23.5632 14.1347 23.3112 13.9485 23.0985C13.4469 22.3859 12.8067 21.7818 12.0662 21.3225C11.7361 21.1702 11.4505 20.9359 11.2367 20.6419C11.0707 20.2703 10.9838 19.8683 10.9814 19.4614C10.9814 19.1105 10.8432 18.7914 10.7794 18.4511L9.50323 10.9537C8.88642 7.30599 7.83358 3.65832 7.20614 0C6.58933 3.65832 5.53649 7.30599 4.90905 10.9537C4.4943 13.4528 4.05828 15.952 3.63289 18.4511C3.56908 18.7914 3.47338 19.1105 3.44148 19.4614C3.43915 19.8683 3.35222 20.2703 3.18624 20.6419C2.96677 20.9305 2.68266 21.1636 2.35674 21.3225C1.61073 21.7785 0.966414 22.383 0.463771 23.0985C0.27951 23.3124 0.144865 23.5645 0.0694826 23.8366C-0.0058998 24.1087 -0.0201562 24.3941 0.0277463 24.6724C0.121573 24.931 0.274522 25.164 0.4744 25.353C1.11628 26.0248 1.88181 26.5665 2.72896 26.9482C2.83237 26.9784 2.92881 27.0287 3.01275 27.0962C3.0967 27.1637 3.16649 27.2471 3.21814 27.3417C3.23897 27.4685 3.23897 27.5978 3.21814 27.7246C3.21814 28.5753 3.21814 29.4155 3.21814 30.2556V54.4175C3.16258 57.0659 3.5031 59.7076 4.22843 62.2553C4.85206 64.368 6.16171 66.2127 7.95056 67.4981C11.0275 69.7102 15.4551 70.8162 21.2332 70.8162H21.531" fill="#44AA02"/>
<defs>
<linearGradient id="paint0_linear_6_3" x1="69.589" y1="24.2683" x2="259.885" y2="24.2683" gradientUnits="userSpaceOnUse">
<stop stop-color="#1BACDC"/>
<stop offset="0.81" stop-color="#73C043"/>
</linearGradient>
<linearGradient id="paint1_linear_6_3" x1="42.8854" y1="27.6182" x2="141.15" y2="27.6182" gradientUnits="userSpaceOnUse">
<stop stop-color="#1BACDC"/>
<stop offset="0.38" stop-color="#1BACDA"/>
<stop offset="0.52" stop-color="#1BABD3"/>
<stop offset="0.62" stop-color="#1AAAC8"/>
<stop offset="0.7" stop-color="#1AA8B7"/>
<stop offset="0.77" stop-color="#19A6A1"/>
<stop offset="0.83" stop-color="#18A385"/>
<stop offset="0.88" stop-color="#179F65"/>
<stop offset="0.93" stop-color="#169B3F"/>
<stop offset="0.98" stop-color="#159616"/>
<stop offset="1" stop-color="#149400"/>
</linearGradient>
</defs>
</svg>
