<svg width="167" height="116" viewBox="0 0 167 116" fill="none" xmlns="http://www.w3.org/2000/svg">
<g clip-path="url(#clip0_1055_2044)">
<path d="M83.5653 50.6539C83.5426 50.6328 83.5127 50.6211 83.4816 50.6211C83.4505 50.6211 83.4205 50.6328 83.3978 50.6539C83.0511 50.9598 83.057 50.925 83.2303 51.1921C83.4263 51.1014 83.6174 51.0006 83.8029 50.8901L83.5653 50.6539Z" fill="#BE1E2D"/>
<path d="M83.4583 0.0375977C90.8168 0.0375977 97.8738 2.94314 103.077 8.11504C108.28 13.2869 111.203 20.3015 111.203 27.6157V43.878H55.7134V27.6157C55.7134 20.3015 58.6365 13.2869 63.8397 8.11504C69.0429 2.94314 76.0999 0.0375977 83.4583 0.0375977Z" fill="#F4F2F4"/>
<path d="M83.4583 88.003C76.1004 88.0014 69.0443 85.0954 63.8414 79.9238C58.6385 74.7523 55.7149 67.7385 55.7134 60.4248V46.4412H64.0748V60.4248C64.1766 65.4669 66.263 70.2682 69.8863 73.7983C73.5096 77.3283 78.3809 79.3055 83.4544 79.3055C88.528 79.3055 93.3993 77.3283 97.0226 73.7983C100.646 70.2682 102.732 65.4669 102.834 60.4248V46.4412H111.196V60.4248C111.195 67.7375 108.273 74.7506 103.071 79.9222C97.87 85.0938 90.8152 88.0004 83.4583 88.003Z" fill="#FFB940"/>
<path fill-rule="evenodd" clip-rule="evenodd" d="M96.7184 31.9427H92.8113C93.6274 33.2204 94.1922 34.8757 94.313 37.4079C94.9888 37.5202 95.3374 38.1591 95.3374 38.7631V39.7698H95.8516V41.367H96.7826V44.2884H97.6357V34.0277L99.1121 31.9388L96.7184 31.9427Z" fill="url(#paint0_linear_1055_2044)"/>
<path fill-rule="evenodd" clip-rule="evenodd" d="M95.7055 16.5283C95.7048 16.2401 95.6066 15.9605 95.4269 15.7344C95.2471 15.5083 94.9961 15.3488 94.7141 15.2815V12.9913C94.7133 12.8092 94.6462 12.6335 94.5252 12.4969C94.4042 12.3602 94.2374 12.2717 94.0558 12.2478V11.8839C94.0559 11.6801 93.9861 11.4823 93.8579 11.3233C93.7297 11.1642 93.5508 11.0533 93.3507 11.0088L93.3137 10.3796C93.375 10.3629 93.4293 10.3272 93.4688 10.2778C93.5084 10.2284 93.5311 10.1678 93.5338 10.1047C93.5262 10.0353 93.4964 9.97015 93.4487 9.9189C93.401 9.86765 93.338 9.83301 93.2689 9.82012L93.2553 9.62652L93.1501 8.17841L93.0449 9.62652L93.0313 9.82012C92.9623 9.83301 92.8992 9.86765 92.8515 9.9189C92.8038 9.97015 92.774 10.0353 92.7664 10.1047C92.7697 10.168 92.7933 10.2285 92.8335 10.2776C92.8738 10.3267 92.9287 10.3617 92.9904 10.3777L92.9534 11.0069C92.7533 11.0513 92.5744 11.1622 92.4462 11.3213C92.3181 11.4804 92.2483 11.6781 92.2483 11.8819V12.2459C92.0667 12.2698 91.9 12.3582 91.7789 12.4949C91.6579 12.6316 91.5908 12.8072 91.59 12.9893V15.2815C91.3081 15.3488 91.0571 15.5083 90.8773 15.7344C90.6975 15.9605 90.5994 16.2401 90.5986 16.5283V25.2054H95.7055V16.5283ZM92.2191 20.6558H91.4011V18.4294C91.4011 18.3216 91.4442 18.2182 91.5209 18.142C91.5976 18.0657 91.7016 18.0229 91.8101 18.0229C91.9186 18.0229 92.0226 18.0657 92.0993 18.142C92.176 18.2182 92.2191 18.3216 92.2191 18.4294V20.6558ZM92.784 14.3135C92.7803 14.2639 92.787 14.214 92.8036 14.1671C92.8202 14.1201 92.8463 14.0771 92.8804 14.0406C92.9145 14.0042 92.9558 13.9751 93.0017 13.9552C93.0476 13.9353 93.0971 13.9251 93.1472 13.9251C93.1973 13.9251 93.2468 13.9353 93.2927 13.9552C93.3386 13.9751 93.3799 14.0042 93.414 14.0406C93.4481 14.0771 93.4742 14.1201 93.4908 14.1671C93.5074 14.214 93.5141 14.2639 93.5104 14.3135V15.2815H92.784V14.3135ZM92.7392 20.6558V18.4294C92.7392 18.3216 92.7822 18.2182 92.859 18.142C92.9357 18.0657 93.0397 18.0229 93.1482 18.0229C93.2566 18.0229 93.3607 18.0657 93.4374 18.142C93.5141 18.2182 93.5572 18.3216 93.5572 18.4294V20.6558H92.7392ZM94.9011 20.6558H94.0831V18.4294C94.0831 18.3216 94.1262 18.2182 94.2029 18.142C94.2796 18.0657 94.3836 18.0229 94.4921 18.0229C94.6006 18.0229 94.7046 18.0657 94.7813 18.142C94.858 18.2182 94.9011 18.3216 94.9011 18.4294V20.6558Z" fill="url(#paint1_linear_1055_2044)"/>
<path fill-rule="evenodd" clip-rule="evenodd" d="M90.0435 29.2903C90.9466 29.8479 91.7475 30.5543 92.4119 31.3793H96.2567V27.1298L97.1955 25.7746H89.1047L90.0435 27.1298V29.2903Z" fill="url(#paint2_linear_1055_2044)"/>
<path fill-rule="evenodd" clip-rule="evenodd" d="M99.1937 31.9426L97.7174 34.0316V44.2961H97.3181V34.0316L98.7945 31.9426H99.1937Z" fill="#242424"/>
<path fill-rule="evenodd" clip-rule="evenodd" d="M94.792 15.2815V12.9932C94.7917 12.8108 94.7248 12.6347 94.6037 12.4976C94.4826 12.3605 94.3156 12.2718 94.1336 12.2478V11.8839C94.1336 11.6803 94.0637 11.4829 93.9356 11.3241C93.8074 11.1653 93.6285 11.0548 93.4286 11.0108L93.3916 10.3796C93.4533 10.3635 93.5082 10.3281 93.5482 10.2786C93.5882 10.2291 93.6111 10.1681 93.6136 10.1047C93.6065 10.0355 93.577 9.97035 93.5296 9.91908C93.4822 9.8678 93.4195 9.8331 93.3507 9.82012L93.3351 9.62652L93.2319 8.17841L93.1267 9.62652L93.1131 9.82012C93.0846 9.82788 93.0571 9.83892 93.0312 9.85303C93.0845 9.87208 93.1312 9.90591 93.1657 9.95052C93.2002 9.99513 93.2212 10.0486 93.226 10.1047C93.2239 10.1607 93.2055 10.2148 93.173 10.2605C93.1405 10.3062 93.0953 10.3416 93.0429 10.3622L93.0819 10.3777L93.0449 11.0088C93.2445 11.0533 93.4229 11.164 93.5507 11.3227C93.6785 11.4814 93.7481 11.6786 93.748 11.8819V12.2459C93.9299 12.2698 94.097 12.3586 94.218 12.4957C94.3391 12.6327 94.406 12.8088 94.4063 12.9913V15.2815C94.6883 15.3488 94.9393 15.5083 95.1191 15.7344C95.2988 15.9605 95.397 16.2401 95.3977 16.5283V25.2054H95.7872V16.5283C95.7863 16.2396 95.6876 15.9596 95.5071 15.7334C95.3265 15.5072 95.0746 15.3481 94.792 15.2815Z" fill="#242424"/>
<path fill-rule="evenodd" clip-rule="evenodd" d="M97.2773 25.7766L96.3385 27.1298V31.3793H95.9392V27.1298L96.878 25.7766H97.2773Z" fill="#242424"/>
<path fill-rule="evenodd" clip-rule="evenodd" d="M92.1861 41.4677L95.39 41.3825V40.2074L92.1861 40.1938V39.8918L94.8778 39.766V38.9703C94.8778 38.3585 94.6071 37.7661 93.8514 37.7661C93.7248 35.0673 93.0917 33.2746 92.1861 31.9736V31.9446C90.1235 29.0135 86.6682 28.5915 84.5063 25.8385H82.4612C80.2993 28.5915 76.8421 29.0135 74.7814 31.9446V31.9814C73.8758 33.2824 73.2428 35.079 73.1142 37.7738C72.3585 37.7738 72.0878 38.3663 72.0878 38.978V39.7795L74.7814 39.9054V40.2074L71.5755 40.2209V41.3961L74.7814 41.4813V41.7813H70.6426V44.2981H96.323V41.7813H92.1861V41.4677ZM84.3661 27.0117C84.9 27.912 85.5133 28.7633 86.1988 29.5556C87.7765 31.4006 89.3794 33.2727 89.6872 37.7371L89.3561 37.7584C89.0561 33.4101 87.4921 31.5806 85.9515 29.7821C85.2042 28.9259 84.5445 27.9979 83.9824 27.0117H84.3661ZM83.3163 27.0117H83.6474V37.7603H83.3163V27.0117ZM77.2784 37.7371C77.592 33.2785 79.1871 31.4006 80.7648 29.5614C81.4509 28.7696 82.0643 27.9182 82.5976 27.0175H82.9871C82.4236 28.0033 81.7633 28.9313 81.016 29.7879C79.4754 31.5864 77.9114 33.4159 77.6114 37.7642L77.2784 37.7371Z" fill="#0D9543"/>
<path fill-rule="evenodd" clip-rule="evenodd" d="M84.3775 25.399C84.3772 25.2137 84.3139 25.0339 84.198 24.8888C84.082 24.7437 83.9202 24.6418 83.7387 24.5995L83.688 23.8928C83.7709 23.8699 83.8445 23.822 83.8989 23.7558C83.9533 23.6896 83.9858 23.6083 83.9919 23.5231C83.9841 23.4281 83.9446 23.3384 83.8796 23.2682C83.8147 23.1981 83.7281 23.1515 83.6335 23.1359L83.614 22.8822L83.4718 20.9153L83.3297 22.8822L83.3102 23.1359C83.2156 23.1515 83.129 23.1981 83.064 23.2682C82.9991 23.3384 82.9596 23.4281 82.9518 23.5231C82.9579 23.6083 82.9904 23.6896 83.0448 23.7558C83.0991 23.822 83.1728 23.8699 83.2556 23.8928L83.205 24.5995C83.0235 24.6418 82.8617 24.7437 82.7457 24.8888C82.6298 25.0339 82.5665 25.2137 82.5662 25.399H84.3775Z" fill="#0D9543"/>
<path fill-rule="evenodd" clip-rule="evenodd" d="M83.4954 42.5267L83.4934 43.152L83.4915 45.0357L83.4798 52.737L83.4915 60.268H66.7607V42.0504L83.4233 34.6859L83.4564 34.6975L83.4584 36.8678L83.4623 39.1406L83.4642 42.0659L83.4661 42.515L83.4954 42.5267Z" fill="url(#paint3_linear_1055_2044)"/>
<path fill-rule="evenodd" clip-rule="evenodd" d="M100.156 42.0504V60.268H83.4272L83.437 52.737L83.4272 45.0105L83.4253 43.1249L83.4233 42.5267L83.4506 42.515L83.4526 42.0601L83.4564 39.1387L83.4584 36.8678L83.4623 34.6975L83.4954 34.6859L100.156 42.0504Z" fill="#242424"/>
<path fill-rule="evenodd" clip-rule="evenodd" d="M66.7627 45.7675L83.4233 39.1251V42.0368L66.7627 48.6986V45.7675Z" fill="white"/>
<path fill-rule="evenodd" clip-rule="evenodd" d="M80.5271 44.2632V46.1411L83.4233 44.9795V43.1036L80.5271 44.2632ZM74.4249 46.6948V48.5824L77.8061 47.2272V45.3396L74.4249 46.6948ZM67.8027 49.3374V51.2308L71.6981 49.6724V47.7809L67.8027 49.3374Z" fill="white"/>
<path fill-rule="evenodd" clip-rule="evenodd" d="M72.9193 47.3376L72.3389 48.4721L73.1647 49.1264L73.7432 47.9106L72.9193 47.3376Z" fill="white"/>
<path fill-rule="evenodd" clip-rule="evenodd" d="M79.0702 44.9447L78.4878 46.0792L79.3156 46.7336L79.8921 45.5197L79.0702 44.9447Z" fill="white"/>
<path fill-rule="evenodd" clip-rule="evenodd" d="M100.154 45.7965L83.4233 39.1251V42.0485L100.154 48.7392V45.7965Z" fill="white"/>
<path fill-rule="evenodd" clip-rule="evenodd" d="M83.4935 43.152L83.4253 43.1249V45.0086L83.4896 45.0338L86.3293 46.1702V44.2826L83.4935 43.152ZM89.0639 45.3745V47.2756L92.4607 48.6308V46.7336L89.0639 45.3745ZM95.1952 47.8158V49.7169L99.1121 51.2831V49.3781L95.1952 47.8158Z" fill="white"/>
<path fill-rule="evenodd" clip-rule="evenodd" d="M93.9701 47.3724L94.5544 48.5108L93.7247 49.1671L93.1443 47.9474L93.9701 47.3724Z" fill="white"/>
<path fill-rule="evenodd" clip-rule="evenodd" d="M87.7938 44.9699L88.3781 46.1083L87.5484 46.7665L86.968 45.5468L87.7938 44.9699Z" fill="white"/>
<path d="M107.401 50.2183H106.642V53.3662H107.401V50.2183Z" fill="#242424"/>
<path d="M80.0361 83.9839C77.7564 83.6589 75.5363 83.0067 73.4451 82.0479L73.7645 81.3625C75.7883 82.2899 77.937 82.9198 80.1432 83.2327L80.0361 83.9839ZM86.9056 83.9839L86.7985 83.2366C89.0042 82.9177 91.1516 82.2819 93.1733 81.349L93.4927 82.0363C91.4033 82.9977 89.1844 83.6525 86.9056 83.98V83.9839ZM67.6838 78.3288C65.9522 76.8209 64.4475 75.0736 63.2158 73.1404L63.8566 72.7358C65.0491 74.6111 66.5066 76.3063 68.1843 77.7693L67.6838 78.3288ZM99.2521 78.3134L98.7515 77.7442C100.428 76.2812 101.883 74.5859 103.073 72.7106L103.716 73.1152C102.486 75.0511 100.982 76.8016 99.2521 78.3134ZM60.413 66.9046C59.8157 64.7959 59.5136 62.6155 59.5151 60.4249V60.1383H60.2747V60.4249C60.2732 62.5461 60.5655 64.6574 61.1434 66.6994L60.413 66.9046ZM106.511 66.8794L105.779 66.6742C106.353 64.6402 106.643 62.5374 106.642 60.4249V60.1132H107.401V60.4249C107.402 62.6067 107.103 64.7784 106.511 66.8794Z" fill="#242424"/>
<path d="M60.2747 50.2183H59.5151V53.3662H60.2747V50.2183Z" fill="#242424"/>
<path fill-rule="evenodd" clip-rule="evenodd" d="M66.9614 62.9223C67.5776 66.8313 69.5784 70.3929 72.6032 72.965C75.628 75.5372 79.4778 76.9506 83.4584 76.9504C87.439 76.9502 91.2885 75.5366 94.3132 72.9646C97.3379 70.3925 99.3389 66.8311 99.9554 62.9223H66.9614Z" fill="#FFB940"/>
<path d="M7.66948 110.819C8.11161 110.29 8.11161 109.587 8.11161 109.008V104.228C8.11161 103.665 8.11161 103.278 8.35897 102.962C8.60633 102.647 9.01339 102.488 9.70288 102.488C10.3924 102.488 10.7994 102.647 11.0468 102.962C11.2941 103.278 11.2941 103.665 11.2941 104.228V108.85C11.2941 110.079 11.2941 111.415 10.2852 112.611C9.54317 113.488 8.32391 114.174 6.07821 114.174C3.83252 114.174 2.60547 113.486 1.8595 112.611C0.852539 111.415 0.852539 110.079 0.852539 108.85V104.228C0.852539 103.665 0.852539 103.278 1.0999 102.962C1.34725 102.647 1.75432 102.488 2.46329 102.488C3.17225 102.488 3.57737 102.647 3.82667 102.962C4.07598 103.278 4.07403 103.665 4.07403 104.228V109.008C4.07403 109.589 4.07403 110.29 4.51616 110.819C4.8161 111.186 5.31277 111.415 6.0899 111.415C6.86703 111.415 7.3598 111.186 7.66948 110.819Z" fill="#FFB940"/>
<path d="M22.8207 104.298C23.4206 103.067 23.8977 102.488 25.1579 102.488C25.7422 102.488 26.1999 102.61 26.5213 102.98C26.8037 103.315 26.8563 103.665 26.9284 104.385L27.7074 112.311C27.725 112.522 27.7425 112.786 27.7425 112.927C27.7425 113.664 27.2653 114.052 26.1843 114.052C25.0352 114.052 24.5755 113.612 24.5054 112.768L24.1159 107.163L22.1137 111.938C21.8468 112.551 21.5118 113.026 20.575 113.026C19.6381 113.026 19.3187 112.551 19.0538 111.938L17.0555 107.144L16.6504 112.758C16.5783 113.568 16.1732 114.042 15.0065 114.042C14.0151 114.042 13.4854 113.707 13.4854 112.88C13.4854 112.722 13.5029 112.493 13.5379 112.16L14.3326 104.387C14.4047 103.632 14.4573 103.226 14.8293 102.895C15.1117 102.631 15.5363 102.49 16.1927 102.49C17.4996 102.49 17.9787 103.051 18.5786 104.3L20.6821 108.675L22.8207 104.298Z" fill="#FFB940"/>
<path d="M33.1512 112.311C33.1512 112.875 33.1512 113.26 32.9214 113.577C32.6915 113.895 32.3039 114.052 31.632 114.052C30.96 114.052 30.5705 113.893 30.3407 113.577C30.1108 113.262 30.1108 112.875 30.1108 112.311V104.457C30.1108 103.824 30.1108 103.067 31.2425 102.715C31.7547 102.556 32.5162 102.451 33.7004 102.451C34.6743 102.451 35.7514 102.521 36.7408 102.978C37.962 103.541 38.6885 104.577 38.6885 106.089C38.6885 107.494 38.0516 108.584 36.8849 109.235L39.3235 112.451C39.8902 113.206 39.5357 114.05 38.0165 114.05C36.8479 114.05 36.4077 113.558 35.8585 112.731L34.6392 110.904C34.3218 110.412 34.0725 109.936 34.0725 109.936H33.1531L33.1512 112.311ZM33.1512 107.514C33.1512 107.514 33.4005 107.531 33.6479 107.531C34.9548 107.531 35.469 107.022 35.469 106.267C35.469 105.388 34.7795 105.105 33.8582 105.105C33.6215 105.106 33.3852 105.124 33.1512 105.16V107.514Z" fill="#FFB940"/>
<path d="M48.3278 111.697H44.3857L44.0682 112.574C43.6962 113.595 43.254 114.052 42.14 114.052C41.133 114.052 40.761 113.682 40.761 113.12C40.7713 112.857 40.8377 112.599 40.9558 112.363L44.5629 103.859C44.9349 102.962 45.3576 102.488 46.4892 102.488C47.6208 102.488 48.0103 102.98 48.3648 103.859L51.8473 112.377C51.9395 112.601 51.9935 112.838 52.007 113.08C52.007 113.711 51.5103 114.048 50.5034 114.048C49.4419 114.048 49.0718 113.678 48.6647 112.588L48.3278 111.697ZM45.2699 109.272H47.463L46.3665 106.323L45.2699 109.272Z" fill="#FFB940"/>
<path d="M64.1098 112.311C64.1098 112.875 64.1098 113.26 63.8624 113.577C63.6151 113.895 63.208 114.052 62.499 114.052C61.7901 114.052 61.385 113.893 61.1357 113.577C60.8864 113.262 60.8883 112.875 60.8883 112.311V109.43H56.7903V112.311C56.7903 112.875 56.7903 113.26 56.543 113.577C56.2956 113.895 55.8886 114.052 55.1796 114.052C54.4706 114.052 54.0655 113.893 53.8162 113.577C53.5669 113.262 53.5688 112.875 53.5688 112.311V104.228C53.5688 103.665 53.5688 103.278 53.8162 102.962C54.0636 102.647 54.4706 102.488 55.1796 102.488C55.8886 102.488 56.2937 102.647 56.543 102.962C56.7923 103.278 56.7903 103.665 56.7903 104.228V106.6H60.8922V104.228C60.8922 103.665 60.8922 103.278 61.1395 102.962C61.3869 102.647 61.794 102.488 62.5029 102.488C63.2119 102.488 63.617 102.647 63.8663 102.962C64.1156 103.278 64.1137 103.665 64.1137 104.228L64.1098 112.311Z" fill="#FFB940"/>
<path d="M75.6539 110.238C75.3364 110.238 75.0696 110.22 75.0696 110.22V112.311C75.0696 112.875 75.0696 113.26 74.8222 113.577C74.5749 113.895 74.1853 114.052 73.4959 114.052C72.8064 114.052 72.3993 113.893 72.1695 113.577C71.9396 113.262 71.9221 112.875 71.9221 112.311V104.44C71.9221 103.806 71.9221 103.121 72.9291 102.751C73.4433 102.558 74.273 102.453 75.3345 102.453C76.4836 102.453 77.8451 102.575 78.9416 103.243C79.9661 103.876 80.5855 104.86 80.5855 106.284C80.5874 108.919 78.4664 110.238 75.6539 110.238ZM75.0696 107.795C75.2334 107.818 75.3988 107.83 75.5643 107.829C76.5382 107.829 77.3679 107.442 77.3679 106.441C77.3679 105.528 76.6609 105.105 75.6344 105.105C75.4456 105.106 75.2569 105.118 75.0696 105.142V107.795Z" fill="black"/>
<path d="M88.1095 111.697H84.1576L83.8382 112.574C83.4681 113.595 83.026 114.052 81.9119 114.052C80.903 114.052 80.533 113.682 80.533 113.12C80.5423 112.857 80.6087 112.599 80.7277 112.363L84.3329 103.859C84.7049 102.962 85.1295 102.488 86.2611 102.488C87.3928 102.488 87.7823 102.98 88.1348 103.859L91.6173 112.377C91.7103 112.601 91.7643 112.838 91.777 113.08C91.777 113.711 91.2823 114.048 90.2734 114.048C89.2138 114.048 88.8418 113.678 88.4348 112.588L88.1095 111.697ZM85.0516 109.272H87.233L86.1365 106.323L85.0516 109.272Z" fill="black"/>
<path d="M99.0963 107.655C100.016 108.269 100.795 109.148 100.795 110.59C100.795 112.84 98.8664 114.139 96.5097 114.139C95.6804 114.143 94.8599 113.969 94.1043 113.63C93.5044 113.349 92.9902 112.979 92.9902 112.274C92.9902 111.606 93.4499 110.726 94.264 110.726C95.0061 110.726 95.5729 111.463 96.5273 111.463C97.1642 111.463 97.5693 111.148 97.5693 110.708C97.5693 110.164 96.9519 109.829 96.1903 109.427C94.8834 108.741 93.0974 107.915 93.0974 105.859C93.0974 103.729 94.9535 102.374 97.2343 102.374C98.8255 102.374 100.594 103.042 100.594 104.203C100.594 104.869 100.01 105.679 99.2501 105.679C98.5957 105.679 97.9588 105.063 97.1642 105.063C96.6324 105.063 96.315 105.346 96.315 105.679C96.3208 106.406 97.8244 106.794 99.0963 107.655Z" fill="black"/>
<path d="M108.311 107.655C109.23 108.269 110.009 109.148 110.009 110.59C110.009 112.84 108.081 114.139 105.724 114.139C104.895 114.143 104.075 113.969 103.319 113.63C102.719 113.349 102.205 112.979 102.205 112.274C102.205 111.606 102.664 110.726 103.479 110.726C104.221 110.726 104.787 111.463 105.742 111.463C106.379 111.463 106.786 111.148 106.786 110.708C106.786 110.164 106.166 109.829 105.405 109.427C104.098 108.741 102.312 107.915 102.312 105.859C102.312 103.729 104.168 102.374 106.449 102.374C108.04 102.374 109.809 103.042 109.809 104.203C109.809 104.869 109.224 105.679 108.465 105.679C107.81 105.679 107.173 105.063 106.379 105.063C105.847 105.063 105.53 105.346 105.53 105.679C105.535 106.406 107.039 106.794 108.311 107.655Z" fill="black"/>
<path d="M115.198 106.71H116.859C117.424 106.71 117.814 106.71 118.133 106.919C118.453 107.129 118.61 107.465 118.61 108.064C118.61 108.662 118.451 108.977 118.133 109.187C117.816 109.396 117.424 109.398 116.859 109.398H115.198V111.279H117.849C118.416 111.279 118.805 111.279 119.123 111.49C119.44 111.701 119.6 112.034 119.6 112.633C119.6 113.231 119.44 113.546 119.123 113.757C118.805 113.968 118.416 113.968 117.849 113.968H113.642C112.545 113.968 112.138 113.564 112.138 112.474V104.105C112.138 103.015 112.545 102.61 113.642 102.61H117.537C118.102 102.61 118.492 102.61 118.811 102.821C119.13 103.032 119.288 103.367 119.288 103.963C119.288 104.56 119.128 104.877 118.811 105.088C118.494 105.299 118.102 105.299 117.537 105.299H115.2L115.198 106.71Z" fill="black"/>
<path d="M124.831 112.311C124.831 112.875 124.831 113.26 124.584 113.577C124.337 113.895 123.965 114.052 123.275 114.052C122.586 114.052 122.196 113.893 121.966 113.577C121.737 113.262 121.719 112.875 121.719 112.311V103.717C121.719 102.962 122.268 102.488 123.452 102.488C124.672 102.488 125.131 102.962 125.573 103.543L129.498 108.884V104.228C129.498 103.665 129.498 103.278 129.745 102.962C129.993 102.647 130.365 102.488 131.054 102.488C131.744 102.488 132.133 102.647 132.363 102.962C132.593 103.278 132.611 103.665 132.611 104.228V112.84C132.611 113.682 132.063 114.104 131.107 114.104C130.151 114.104 129.658 113.699 129.198 113.103L124.831 107.427V112.311Z" fill="black"/>
<path d="M145.082 111.889C145.082 112.716 144.922 113.155 143.913 113.577C142.925 113.954 141.876 114.145 140.818 114.139C137.46 114.139 134.737 112.172 134.737 108.286C134.737 104.139 137.813 102.382 140.908 102.382C141.969 102.382 143.118 102.593 143.93 103.015C144.497 103.315 144.867 103.7 144.867 104.316C144.867 104.966 144.443 105.95 143.56 105.95C143.188 105.95 142.834 105.793 142.409 105.617C141.903 105.39 141.355 105.27 140.8 105.264C139.334 105.264 137.99 106.108 137.99 108.269C137.99 110.379 139.281 111.345 140.818 111.345C141.172 111.349 141.525 111.296 141.862 111.186V110.389C141.862 109.825 141.862 109.44 142.109 109.123C142.357 108.805 142.764 108.648 143.473 108.648C144.182 108.648 144.587 108.807 144.836 109.123C145.085 109.438 145.083 109.825 145.083 110.389L145.082 111.889Z" fill="black"/>
<path d="M150.473 106.71H152.134C152.701 106.71 153.088 106.71 153.408 106.919C153.727 107.129 153.885 107.465 153.885 108.064C153.885 108.662 153.725 108.977 153.408 109.187C153.09 109.396 152.701 109.398 152.134 109.398H150.473V111.279H153.124C153.69 111.279 154.08 111.279 154.397 111.49C154.715 111.701 154.874 112.034 154.874 112.633C154.874 113.231 154.715 113.546 154.397 113.757C154.08 113.968 153.69 113.968 153.124 113.968H148.916C147.82 113.968 147.413 113.564 147.413 112.474V104.105C147.413 103.015 147.82 102.61 148.916 102.61H152.812C153.379 102.61 153.766 102.61 154.086 102.821C154.405 103.032 154.563 103.367 154.563 103.963C154.563 104.56 154.403 104.877 154.086 105.088C153.768 105.299 153.379 105.299 152.812 105.299H150.475L150.473 106.71Z" fill="black"/>
<path d="M160.036 112.311C160.036 112.875 160.036 113.26 159.806 113.577C159.576 113.895 159.187 114.052 158.515 114.052C157.843 114.052 157.453 113.893 157.223 113.577C156.994 113.262 156.994 112.875 156.994 112.311V104.457C156.994 103.824 156.994 103.067 158.125 102.715C158.639 102.556 159.399 102.451 160.583 102.451C161.557 102.451 162.634 102.521 163.624 102.978C164.845 103.541 165.571 104.577 165.571 106.089C165.571 107.494 164.934 108.584 163.768 109.235L166.212 112.453C166.777 113.208 166.424 114.052 164.903 114.052C163.735 114.052 163.294 113.56 162.745 112.733L161.526 110.906C161.208 110.414 160.961 109.938 160.961 109.938H160.042L160.036 112.311ZM160.036 107.514C160.036 107.514 160.283 107.531 160.531 107.531C161.84 107.531 162.352 107.022 162.352 106.267C162.352 105.388 161.662 105.105 160.743 105.105C160.506 105.106 160.27 105.124 160.036 105.16V107.514Z" fill="black"/>
<path d="M56.5157 30.4171C56.5468 30.6632 56.6043 30.9053 56.6871 31.1392C56.6871 34.3065 56.6676 35.9134 56.652 36.6994C56.652 36.8639 56.652 36.9917 56.652 37.0866C56.652 37.3189 56.6403 37.3905 56.6403 37.3905C56.3482 38.254 56.5936 39.9325 56.6403 40.0835C56.6556 40.2393 56.6998 40.3909 56.7708 40.5307C56.9013 40.8249 57.1273 40.8772 57.5051 41.1908C57.883 41.5045 58.8977 41.669 58.8977 41.669H60.9058C60.9058 41.669 61.9206 41.5045 62.2984 41.1908C62.6763 40.8772 62.9041 40.8249 63.0346 40.5307C63.1047 40.3907 63.1482 40.2391 63.1632 40.0835C63.2099 39.9325 63.4553 38.254 63.1632 37.3905C63.1632 37.3905 63.1632 37.3227 63.1515 37.0866C63.1515 36.9878 63.1515 36.86 63.1418 36.6994C63.1281 35.925 63.1106 34.32 63.1106 31.1373C63.5177 30.0163 63.3521 27.4221 62.9704 27.0717C62.6908 26.8448 62.3773 26.6626 62.0413 26.5316C61.6329 26.4251 61.2145 26.3602 60.7928 26.338C59.2639 26.3128 57.7447 26.216 56.8351 27.0736C56.6111 27.2827 56.6404 27.6428 56.5157 28.2101C56.4352 28.9436 56.4352 29.6836 56.5157 30.4171ZM62.7483 36.5755C62.6495 36.345 62.5726 36.1058 62.5185 35.8611C62.2419 34.6646 62.2887 34.4478 62.2887 33.5379C62.2881 33.5209 62.2922 33.5041 62.3005 33.4893C62.3088 33.4745 62.3211 33.4622 62.336 33.4538C62.3508 33.4455 62.3677 33.4413 62.3848 33.4418C62.4018 33.4423 62.4185 33.4474 62.4328 33.4566L62.7074 33.6502C62.7204 33.6594 62.7309 33.6716 62.7381 33.6858C62.7452 33.7 62.7487 33.7156 62.7483 33.7315V36.5755ZM62.7483 30.5061V32.9494C62.7495 32.9627 62.7475 32.9761 62.7425 32.9886C62.7376 33.001 62.7298 33.0122 62.7198 33.0212C62.7098 33.0302 62.6979 33.0368 62.6849 33.0404C62.672 33.0441 62.6584 33.0447 62.6451 33.0423L62.353 32.9668C62.3333 32.9612 62.316 32.9491 62.304 32.9327C62.292 32.9162 62.2859 32.8961 62.2867 32.8758C62.2711 31.2147 62.2341 30.3338 62.4815 30.4093C62.6042 30.4093 62.7444 30.3803 62.7444 30.5061H62.7483ZM62.2361 28.8973C62.2367 28.7152 62.2931 28.5376 62.3977 28.3882C62.5789 28.1307 62.5925 28.847 62.6685 29.7782L62.2322 30.239C62.2322 30.239 62.2166 29.1432 62.2322 28.8973H62.2361ZM57.8577 27.1182C58.068 26.9846 58.6095 26.671 58.9912 26.6651C59.2717 26.6651 60.5942 26.6651 60.8045 26.6651C61.1941 26.6651 61.7277 26.9846 61.9381 27.1182C62.0725 27.2014 62.016 27.3505 61.9926 27.699C61.9903 27.7237 61.9828 27.7476 61.9708 27.7694C61.9588 27.7911 61.9425 27.8102 61.9228 27.8254C61.9031 27.8406 61.8804 27.8517 61.8563 27.8579C61.8321 27.8641 61.8069 27.8654 61.7823 27.8616C60.7279 27.7309 59.663 27.7063 58.6036 27.788L58.0193 27.8616C57.9948 27.8654 57.9697 27.8641 57.9456 27.8579C57.9216 27.8517 57.8991 27.8406 57.8796 27.8253C57.86 27.8101 57.8438 27.791 57.832 27.7692C57.8202 27.7475 57.813 27.7236 57.8109 27.699L57.7817 27.2789C57.7776 27.2481 57.7822 27.2168 57.795 27.1884C57.8077 27.1601 57.828 27.1358 57.8538 27.1182H57.8577ZM57.9882 35.2493C58.6621 35.4313 60.1423 35.4429 61.2019 35.35C61.4064 35.3349 61.6092 35.3012 61.8076 35.2493C61.8492 35.2385 61.8926 35.2362 61.9351 35.2426C61.9777 35.249 62.0184 35.264 62.0549 35.2867C62.0914 35.3094 62.1228 35.3392 62.1473 35.3744C62.1718 35.4096 62.1887 35.4494 62.1971 35.4913L62.5633 37.6209C60.8323 38.2211 58.9479 38.2211 57.2169 37.6209L57.583 35.4913C57.5908 35.4477 57.6078 35.4062 57.6328 35.3696C57.6577 35.3329 57.6902 35.3019 57.7281 35.2785C57.7659 35.2551 57.8083 35.2399 57.8524 35.2339C57.8966 35.2279 57.9415 35.2311 57.9843 35.2435L57.9882 35.2493ZM57.0474 36.5813V33.7238C57.0475 33.708 57.0512 33.6925 57.0583 33.6783C57.0654 33.6642 57.0757 33.652 57.0883 33.6424L57.3629 33.4488C57.3773 33.4391 57.3941 33.4335 57.4115 33.4328C57.4289 33.432 57.4461 33.4361 57.4613 33.4445C57.4765 33.453 57.489 33.4655 57.4974 33.4806C57.5059 33.4957 57.5099 33.5129 57.509 33.5302C57.509 33.5747 57.509 34.5775 57.509 34.6221C57.3824 35.3713 57.2539 36.1244 57.0435 36.5755L57.0474 36.5813ZM57.398 28.394C57.5928 28.667 57.5811 28.8199 57.5616 30.2506L57.1273 29.784C57.1974 28.847 57.2149 28.1307 57.3941 28.3882L57.398 28.394ZM57.1331 30.4152H57.3143C57.5616 30.3397 57.5246 31.2205 57.509 32.8816C57.5102 32.902 57.5042 32.9222 57.4922 32.9388C57.4801 32.9553 57.4627 32.9673 57.4428 32.9726L57.1506 33.0481C57.1374 33.0505 57.1238 33.0499 57.1108 33.0462C57.0978 33.0426 57.0859 33.036 57.0759 33.027C57.0659 33.018 57.0582 33.0068 57.0532 32.9944C57.0483 32.9819 57.0463 32.9685 57.0474 32.9552C57.0435 30.4907 56.9909 30.4093 57.1292 30.4093L57.1331 30.4152Z" fill="#FFB940"/>
<path d="M61.7259 41.5006C62.0523 41.4159 62.3484 41.2422 62.5809 40.9992C62.5891 40.9923 62.5956 40.9836 62.5999 40.9739C62.6043 40.9642 62.6065 40.9537 62.6062 40.943C62.6062 40.8695 62.6062 40.7107 62.4913 40.7746C61.794 41.1773 61.5662 41.2373 61.5837 41.3399C61.6012 41.4425 61.6324 41.5335 61.7259 41.5006Z" fill="#242424"/>
<path d="M58.1791 41.4464C58.1752 41.4575 58.1691 41.4677 58.1612 41.4764C58.1533 41.4851 58.1437 41.4922 58.133 41.4973C58.1223 41.5023 58.1107 41.5052 58.0989 41.5058C58.0871 41.5063 58.0753 41.5046 58.0642 41.5006C57.7374 41.4154 57.4407 41.2419 57.2072 40.9992C57.1923 40.984 57.1833 40.9641 57.1819 40.943C57.1819 40.8695 57.1819 40.7107 57.2968 40.7746C58.2434 41.3205 58.2512 41.2121 58.1791 41.4464Z" fill="#242424"/>
<path d="M62.6743 36.8523L62.7191 37.0575C63.243 37.1794 63.6345 36.9858 63.6423 36.8348C63.6501 36.6838 63.73 36.5193 62.945 36.7535L62.6743 36.8523Z" fill="#242424"/>
<path d="M62.9178 33.7876C62.9096 33.7874 62.9014 33.7887 62.8938 33.7916C62.8861 33.7945 62.8791 33.7988 62.8731 33.8044C62.8672 33.81 62.8624 33.8167 62.859 33.8241C62.8556 33.8315 62.8538 33.8395 62.8535 33.8476V34.3045C62.8538 34.3124 62.8556 34.3202 62.8589 34.3274C62.8621 34.3345 62.8668 34.341 62.8726 34.3464C62.8784 34.3518 62.8852 34.356 62.8926 34.3588C62.9 34.3616 62.9079 34.3629 62.9158 34.3626C62.9239 34.3631 62.932 34.362 62.9397 34.3594C62.9473 34.3567 62.9544 34.3526 62.9604 34.3471C62.9664 34.3417 62.9712 34.3352 62.9746 34.3278C62.978 34.3205 62.9799 34.3126 62.9801 34.3045V33.8496C62.9801 33.8415 62.9785 33.8336 62.9753 33.8262C62.9722 33.8187 62.9676 33.812 62.9618 33.8064C62.9559 33.8008 62.949 33.7965 62.9415 33.7936C62.9339 33.7907 62.9259 33.7893 62.9178 33.7896V33.7876Z" fill="#242424"/>
<path d="M62.9178 30.783C62.9096 30.7827 62.9014 30.7841 62.8938 30.787C62.8861 30.7898 62.8791 30.7942 62.8731 30.7998C62.8672 30.8053 62.8624 30.812 62.859 30.8194C62.8556 30.8269 62.8538 30.8349 62.8535 30.843V31.296C62.8535 31.3041 62.8551 31.312 62.8583 31.3195C62.8614 31.3269 62.8661 31.3336 62.8719 31.3392C62.8777 31.3448 62.8846 31.3491 62.8921 31.352C62.8997 31.3549 62.9078 31.3563 62.9158 31.356C62.924 31.3563 62.9322 31.355 62.9399 31.3521C62.9475 31.3492 62.9545 31.3448 62.9605 31.3393C62.9665 31.3337 62.9713 31.327 62.9746 31.3196C62.978 31.3122 62.9799 31.3042 62.9801 31.296V30.843C62.9801 30.835 62.9785 30.827 62.9753 30.8196C62.9722 30.8122 62.9676 30.8055 62.9618 30.7999C62.9559 30.7943 62.949 30.7899 62.9415 30.787C62.9339 30.7841 62.9259 30.7827 62.9178 30.783Z" fill="#242424"/>
<path d="M57.1137 36.8523L57.0709 37.0575C56.545 37.1794 56.1555 36.9858 56.1477 36.8348C56.1399 36.6838 56.06 36.5193 56.845 36.7535L57.1137 36.8523Z" fill="#242424"/>
<path d="M61.6888 28.6011C61.4746 28.6011 61.5388 28.3688 61.5388 34.5794C61.5393 34.5984 61.5436 34.6171 61.5515 34.6344C61.5593 34.6518 61.5705 34.6674 61.5845 34.6803C61.5984 34.6933 61.6148 34.7034 61.6327 34.71C61.6507 34.7166 61.6697 34.7196 61.6888 34.7188C61.7272 34.7199 61.7645 34.7058 61.7926 34.6797C61.8207 34.6536 61.8372 34.6176 61.8388 34.5794C61.8388 28.2836 61.9011 28.6011 61.6888 28.6011Z" fill="#242424"/>
<path d="M58.1011 28.6011C58.3154 28.6011 58.2511 28.3688 58.2511 34.5794C58.2496 34.6176 58.233 34.6536 58.2049 34.6797C58.1769 34.7058 58.1396 34.7199 58.1011 34.7188C58.0821 34.7196 58.063 34.7166 58.0451 34.71C58.0272 34.7034 58.0108 34.6933 57.9968 34.6803C57.9829 34.6674 57.9716 34.6518 57.9638 34.6344C57.956 34.6171 57.9517 34.5984 57.9512 34.5794C57.9512 28.2836 57.8869 28.6011 58.1011 28.6011Z" fill="#242424"/>
<path d="M56.8721 33.7876C56.8802 33.7874 56.8883 33.7887 56.8958 33.7916C56.9034 33.7945 56.9103 33.7989 56.9161 33.8045C56.9219 33.8101 56.9265 33.8168 56.9297 33.8242C56.9328 33.8316 56.9345 33.8396 56.9345 33.8476V34.3045C56.9342 34.3126 56.9323 34.3205 56.9289 34.3278C56.9256 34.3352 56.9207 34.3417 56.9147 34.3471C56.9087 34.3526 56.9017 34.3567 56.894 34.3594C56.8864 34.362 56.8783 34.3631 56.8702 34.3626C56.8623 34.3629 56.8543 34.3616 56.8469 34.3588C56.8395 34.356 56.8327 34.3518 56.8269 34.3464C56.8211 34.341 56.8165 34.3345 56.8132 34.3274C56.8099 34.3202 56.8081 34.3124 56.8079 34.3045V33.8496C56.8081 33.8414 56.81 33.8334 56.8133 33.826C56.8167 33.8186 56.8215 33.8119 56.8275 33.8063C56.8335 33.8008 56.8405 33.7964 56.8481 33.7935C56.8558 33.7907 56.8639 33.7893 56.8721 33.7896V33.7876Z" fill="#242424"/>
<path d="M56.8721 30.783C56.8802 30.7827 56.8883 30.7841 56.8958 30.787C56.9034 30.7899 56.9103 30.7943 56.9161 30.7999C56.9219 30.8055 56.9265 30.8122 56.9297 30.8196C56.9328 30.827 56.9345 30.835 56.9345 30.843V31.296C56.9342 31.3042 56.9323 31.3122 56.929 31.3196C56.9256 31.327 56.9208 31.3337 56.9148 31.3393C56.9089 31.3448 56.9019 31.3492 56.8942 31.3521C56.8865 31.355 56.8784 31.3563 56.8702 31.356C56.8621 31.3563 56.854 31.3549 56.8465 31.352C56.8389 31.3491 56.832 31.3448 56.8262 31.3392C56.8204 31.3336 56.8158 31.3269 56.8126 31.3195C56.8095 31.312 56.8079 31.3041 56.8079 31.296V30.843C56.8081 30.8349 56.81 30.8269 56.8133 30.8194C56.8167 30.812 56.8215 30.8053 56.8275 30.7998C56.8335 30.7942 56.8405 30.7898 56.8481 30.787C56.8558 30.7841 56.8639 30.7827 56.8721 30.783Z" fill="#242424"/>
<path d="M57.398 26.9188C57.4126 26.9314 57.4313 26.9384 57.4506 26.9384C57.47 26.9384 57.4886 26.9314 57.5032 26.9188C57.7194 26.7252 57.7155 26.7484 57.6064 26.5819C57.4843 26.6402 57.3653 26.7048 57.25 26.7755L57.398 26.9188Z" fill="#BE1E2D"/>
<path d="M62.1446 26.7948C62.3666 26.9884 62.316 26.9884 62.5341 26.7716C62.4188 26.7009 62.2998 26.6363 62.1777 26.578C62.1309 26.6651 62.0706 26.729 62.1446 26.7948Z" fill="#BE1E2D"/>
<path d="M110.403 37.5725C110.371 37.3264 110.313 37.0844 110.229 36.8504C110.229 33.6831 110.249 32.0762 110.265 31.2902C110.265 31.1257 110.265 30.996 110.265 30.903C110.265 30.6707 110.276 30.5972 110.276 30.5972C110.568 29.7337 110.323 28.0571 110.276 27.9061C110.261 27.7503 110.217 27.5987 110.146 27.4589C110.017 27.1627 109.789 27.1124 109.411 26.7987C109.034 26.4851 108.019 26.3206 108.019 26.3206H106.028C106.028 26.3206 105.014 26.4832 104.636 26.7987C104.258 27.1143 104.03 27.1627 103.899 27.4589C103.829 27.5989 103.786 27.7505 103.771 27.9061C103.724 28.0571 103.479 29.7337 103.771 30.5972C103.771 30.5972 103.771 30.6668 103.783 30.903C103.783 31.0018 103.783 31.1295 103.792 31.2902C103.806 32.0646 103.825 33.6696 103.825 36.8523C103.418 37.9733 103.582 40.5655 103.966 40.9179C104.244 41.1446 104.557 41.3262 104.893 41.4561C105.301 41.5635 105.719 41.6284 106.141 41.6497C107.67 41.6749 109.189 41.7717 110.099 40.916C110.323 40.7069 110.294 40.3448 110.418 39.7776C110.494 39.0442 110.489 38.3048 110.403 37.5725ZM104.17 31.4141C104.269 31.6446 104.346 31.8838 104.4 32.1285C104.677 33.325 104.63 33.5418 104.63 34.4517C104.63 34.4687 104.626 34.4855 104.618 34.5003C104.61 34.5151 104.597 34.5274 104.583 34.5357C104.568 34.5441 104.551 34.5483 104.534 34.5478C104.517 34.5473 104.5 34.5422 104.486 34.533L104.211 34.3394C104.198 34.3303 104.187 34.3181 104.18 34.3039C104.173 34.2897 104.17 34.274 104.17 34.2581V31.4141ZM104.17 37.4834V35.0402C104.169 35.0269 104.171 35.0135 104.176 35.001C104.181 34.9886 104.189 34.9774 104.199 34.9684C104.209 34.9594 104.221 34.9528 104.234 34.9492C104.247 34.9455 104.26 34.9449 104.273 34.9473L104.566 35.0228C104.585 35.0283 104.602 35.0401 104.614 35.0562C104.626 35.0723 104.632 35.0918 104.632 35.1119C104.647 36.7749 104.684 37.6558 104.437 37.5783C104.312 37.5783 104.172 37.6074 104.172 37.4834H104.17ZM104.682 39.0923C104.683 39.2746 104.627 39.4526 104.521 39.6014C104.34 39.8589 104.326 39.1426 104.25 38.2094L104.682 37.7448C104.682 37.7448 104.7 38.8444 104.684 39.0923H104.682ZM109.061 40.8695C108.851 41.0031 108.309 41.3167 107.927 41.3244C107.647 41.3244 106.324 41.3244 106.114 41.3244C105.724 41.3244 105.191 41.0031 104.98 40.8695C104.846 40.7862 104.903 40.6391 104.926 40.2887C104.929 40.2642 104.936 40.2404 104.948 40.2189C104.96 40.1974 104.977 40.1785 104.996 40.1635C105.016 40.1485 105.039 40.1376 105.063 40.1315C105.087 40.1254 105.112 40.1242 105.136 40.128C106.191 40.2565 107.257 40.2812 108.317 40.2016L108.901 40.128C108.926 40.1242 108.95 40.1254 108.974 40.1315C108.998 40.1376 109.021 40.1486 109.04 40.1636C109.06 40.1787 109.076 40.1975 109.088 40.219C109.1 40.2405 109.107 40.2642 109.11 40.2887L109.139 40.7107C109.142 40.7416 109.137 40.7729 109.124 40.801C109.11 40.8291 109.089 40.8529 109.063 40.8695H109.061ZM108.93 32.7383C108.256 32.5583 106.776 32.5448 105.717 32.6377C105.512 32.6537 105.31 32.6874 105.111 32.7383C105.069 32.7489 105.026 32.7511 104.984 32.7446C104.942 32.7382 104.901 32.7233 104.865 32.7009C104.828 32.6785 104.797 32.649 104.772 32.6141C104.748 32.5793 104.73 32.5399 104.721 32.4983L104.355 30.3687C106.087 29.7705 107.97 29.7705 109.702 30.3687L109.335 32.4983C109.327 32.5419 109.31 32.5834 109.285 32.62C109.26 32.6566 109.227 32.6876 109.189 32.7108C109.151 32.734 109.109 32.7489 109.064 32.7547C109.02 32.7604 108.975 32.7569 108.932 32.7442L108.93 32.7383ZM109.871 31.4083V34.2581C109.871 34.2739 109.868 34.2896 109.861 34.3037C109.854 34.3179 109.843 34.3301 109.83 34.3394L109.556 34.533C109.541 34.5428 109.524 34.5483 109.507 34.5491C109.49 34.5499 109.472 34.5458 109.457 34.5373C109.442 34.5289 109.43 34.5164 109.421 34.5013C109.413 34.4861 109.409 34.469 109.409 34.4517C109.409 34.4072 109.409 33.4043 109.409 33.3598C109.534 32.6183 109.663 31.8633 109.873 31.4141L109.871 31.4083ZM109.521 39.5956C109.326 39.3207 109.337 39.1697 109.359 37.739L109.791 38.2036C109.729 39.1445 109.702 39.8589 109.522 39.6014L109.521 39.5956ZM109.785 37.5725H109.604C109.357 37.6499 109.394 36.7691 109.409 35.1061C109.409 35.086 109.415 35.0665 109.427 35.0504C109.439 35.0343 109.456 35.0225 109.476 35.017L109.768 34.9415C109.781 34.9391 109.795 34.9397 109.808 34.9434C109.821 34.947 109.833 34.9536 109.843 34.9626C109.853 34.9716 109.86 34.9827 109.865 34.9952C109.87 35.0077 109.872 35.0211 109.871 35.0344C109.873 37.4989 109.924 37.5783 109.787 37.5783L109.785 37.5725Z" fill="#FFB940"/>
<path d="M105.191 26.4871C104.864 26.5732 104.568 26.7474 104.336 26.9904C104.328 26.9976 104.322 27.0063 104.317 27.0159C104.313 27.0256 104.311 27.036 104.31 27.0466C104.31 27.1201 104.31 27.2789 104.425 27.215C105.122 26.8123 105.35 26.7503 105.333 26.6497C105.315 26.549 105.286 26.4541 105.191 26.4871Z" fill="#242424"/>
<path d="M108.738 26.5432C108.746 26.5207 108.762 26.5023 108.784 26.4918C108.805 26.4813 108.83 26.4796 108.852 26.487C109.179 26.5737 109.476 26.7478 109.709 26.9904C109.717 26.9976 109.723 27.0063 109.728 27.0159C109.732 27.0256 109.735 27.036 109.735 27.0465C109.735 27.1201 109.735 27.2789 109.62 27.215C108.673 26.6671 108.666 26.7774 108.738 26.5432Z" fill="#242424"/>
<path d="M104.242 31.1373L104.199 30.9321C103.673 30.8101 103.282 31.0037 103.276 31.1528C103.27 31.3018 103.186 31.4683 103.971 31.236L104.242 31.1373Z" fill="#242424"/>
<path d="M103.999 34.2C104.007 34.2002 104.015 34.1989 104.023 34.196C104.031 34.1931 104.038 34.1888 104.044 34.1832C104.049 34.1776 104.054 34.1709 104.058 34.1635C104.061 34.1561 104.063 34.1481 104.063 34.14V33.6869C104.063 33.6789 104.062 33.6709 104.058 33.6635C104.055 33.6561 104.051 33.6494 104.045 33.6438C104.039 33.6382 104.032 33.6338 104.025 33.6309C104.017 33.628 104.009 33.6267 104.001 33.6269C103.993 33.6267 103.984 33.628 103.977 33.6309C103.969 33.6338 103.962 33.6381 103.956 33.6437C103.95 33.6493 103.945 33.656 103.942 33.6634C103.939 33.6708 103.937 33.6788 103.937 33.6869V34.14C103.937 34.148 103.938 34.156 103.941 34.1634C103.944 34.1708 103.949 34.1775 103.955 34.1831C103.961 34.1887 103.968 34.1931 103.975 34.196C103.983 34.1989 103.991 34.2002 103.999 34.2Z" fill="#242424"/>
<path d="M103.999 37.2085C104.007 37.2088 104.015 37.2074 104.023 37.2046C104.031 37.2017 104.038 37.1973 104.044 37.1918C104.049 37.1862 104.054 37.1795 104.058 37.1721C104.061 37.1647 104.063 37.1566 104.063 37.1485V36.6955C104.063 36.6874 104.062 36.6795 104.058 36.6721C104.055 36.6647 104.051 36.6579 104.045 36.6523C104.039 36.6467 104.032 36.6424 104.025 36.6395C104.017 36.6366 104.009 36.6352 104.001 36.6355C103.993 36.6352 103.984 36.6366 103.977 36.6394C103.969 36.6423 103.962 36.6467 103.956 36.6522C103.95 36.6578 103.945 36.6645 103.942 36.6719C103.939 36.6793 103.937 36.6873 103.937 36.6955V37.1485C103.937 37.1566 103.938 37.1645 103.941 37.1719C103.944 37.1793 103.949 37.186 103.955 37.1916C103.961 37.1972 103.968 37.2016 103.975 37.2045C103.983 37.2074 103.991 37.2088 103.999 37.2085Z" fill="#242424"/>
<path d="M109.803 31.1373L109.846 30.9321C110.372 30.8101 110.761 31.0037 110.769 31.1528C110.777 31.3018 110.859 31.4683 110.074 31.236L109.803 31.1373Z" fill="#242424"/>
<path d="M105.228 39.3884C105.442 39.3884 105.378 39.6188 105.378 33.4101C105.377 33.391 105.373 33.3723 105.365 33.3548C105.357 33.3374 105.346 33.3217 105.332 33.3086C105.318 33.2954 105.302 33.2852 105.284 33.2784C105.266 33.2715 105.247 33.2683 105.228 33.2688C105.189 33.2683 105.152 33.2827 105.124 33.3091C105.096 33.3355 105.079 33.3718 105.078 33.4101C105.078 39.704 105.016 39.3884 105.228 39.3884Z" fill="#242424"/>
<path d="M108.815 39.3884C108.603 39.3884 108.666 39.6188 108.666 33.4101C108.667 33.3718 108.684 33.3355 108.712 33.3091C108.74 33.2827 108.777 33.2683 108.815 33.2688C108.835 33.2683 108.854 33.2715 108.872 33.2784C108.89 33.2852 108.906 33.2954 108.92 33.3086C108.934 33.3217 108.945 33.3374 108.953 33.3548C108.961 33.3723 108.965 33.391 108.965 33.4101C108.965 39.704 109.03 39.3884 108.815 39.3884Z" fill="#242424"/>
<path d="M110.045 34.2C110.036 34.2002 110.028 34.1989 110.021 34.196C110.013 34.1931 110.006 34.1887 110.001 34.1831C109.995 34.1775 109.99 34.1708 109.987 34.1634C109.984 34.156 109.982 34.148 109.982 34.14V33.6869C109.982 33.6788 109.984 33.6708 109.988 33.6634C109.991 33.656 109.996 33.6493 110.002 33.6437C110.008 33.6381 110.015 33.6338 110.022 33.6309C110.03 33.628 110.038 33.6267 110.046 33.6269C110.055 33.6267 110.063 33.628 110.07 33.6309C110.078 33.6338 110.085 33.6382 110.09 33.6438C110.096 33.6494 110.101 33.6561 110.104 33.6635C110.107 33.6709 110.109 33.6789 110.109 33.6869V34.14C110.109 34.1481 110.107 34.1561 110.103 34.1635C110.1 34.1709 110.095 34.1776 110.089 34.1832C110.083 34.1888 110.076 34.1931 110.069 34.196C110.061 34.1989 110.053 34.2002 110.045 34.2Z" fill="#242424"/>
<path d="M110.045 37.2085C110.036 37.2088 110.028 37.2074 110.021 37.2045C110.013 37.2016 110.006 37.1972 110.001 37.1916C109.995 37.186 109.99 37.1793 109.987 37.1719C109.984 37.1645 109.982 37.1566 109.982 37.1485V36.6955C109.982 36.6873 109.984 36.6793 109.988 36.6719C109.991 36.6645 109.996 36.6578 110.002 36.6522C110.008 36.6467 110.015 36.6423 110.022 36.6394C110.03 36.6366 110.038 36.6352 110.046 36.6355C110.055 36.6352 110.063 36.6366 110.07 36.6395C110.078 36.6424 110.085 36.6467 110.09 36.6523C110.096 36.6579 110.101 36.6647 110.104 36.6721C110.107 36.6795 110.109 36.6874 110.109 36.6955V37.1485C110.109 37.1566 110.107 37.1647 110.103 37.1721C110.1 37.1795 110.095 37.1862 110.089 37.1918C110.083 37.1973 110.076 37.2017 110.069 37.2046C110.061 37.2074 110.053 37.2088 110.045 37.2085Z" fill="#242424"/>
<path d="M109.518 41.0805C109.504 41.0674 109.485 41.0602 109.466 41.0602C109.446 41.0602 109.428 41.0674 109.413 41.0805C109.197 41.2741 109.201 41.2489 109.31 41.4173C109.413 41.3689 109.542 41.3012 109.667 41.2237L109.518 41.0805Z" fill="#BE1E2D"/>
<path d="M104.772 41.1947C104.55 41.0011 104.6 41.0011 104.382 41.216C104.507 41.2896 104.636 41.3573 104.741 41.4096C104.787 41.3244 104.846 41.2586 104.772 41.1947Z" fill="#BE1E2D"/>
</g>
<defs>
<linearGradient id="paint0_linear_1055_2044" x1="92.8113" y1="38.1204" x2="99.1121" y2="38.1204" gradientUnits="userSpaceOnUse">
<stop/>
<stop offset="1" stop-color="#000001"/>
</linearGradient>
<linearGradient id="paint1_linear_1055_2044" x1="90.5986" y1="16.7006" x2="95.7016" y2="16.7006" gradientUnits="userSpaceOnUse">
<stop/>
<stop offset="1" stop-color="#000001"/>
</linearGradient>
<linearGradient id="paint2_linear_1055_2044" x1="89.1047" y1="28.5779" x2="97.1955" y2="28.5779" gradientUnits="userSpaceOnUse">
<stop/>
<stop offset="1" stop-color="#000001"/>
</linearGradient>
<linearGradient id="paint3_linear_1055_2044" x1="74.2457" y1="47.4654" x2="84.9328" y2="47.4654" gradientUnits="userSpaceOnUse">
<stop/>
<stop offset="1" stop-color="#000001"/>
</linearGradient>
<clipPath id="clip0_1055_2044">
<rect width="165.607" height="115.925" fill="white" transform="translate(0.852539 0.0375977)"/>
</clipPath>
</defs>
</svg>
