<svg width="28" height="18" viewBox="0 0 28 18" fill="none" xmlns="http://www.w3.org/2000/svg">
<path d="M26.6875 7.25C26.5234 6.97656 24.9041 6.27711 24.9041 6.27711C25.1858 6.13164 25.3783 6.10156 25.3783 5.5C25.3783 4.84375 25.375 4.625 24.9375 4.625H23.4533C23.4473 4.61188 23.4407 4.5982 23.4347 4.58453C22.4766 2.49219 22.348 1.96336 20.9191 1.25133C19.0023 0.298125 15.4087 0.25 14 0.25C12.5913 0.25 8.99773 0.298125 7.08258 1.25133C5.65195 1.96227 5.6875 2.32812 4.56695 4.58453C4.56695 4.59055 4.55547 4.60641 4.54508 4.625H3.05922C2.625 4.625 2.62172 4.84375 2.62172 5.5C2.62172 6.10156 2.81422 6.13164 3.09586 6.27711C3.09586 6.27711 1.53125 7.03125 1.3125 7.25C1.09375 7.46875 0.875 9 0.875 11.625C0.875 14.25 1.09375 16.875 1.09375 16.875H1.74672C1.74672 17.6406 1.85938 17.75 2.1875 17.75H6.5625C6.89062 17.75 7 17.6406 7 16.875H21C21 17.6406 21.1094 17.75 21.4375 17.75H25.9219C26.1406 17.75 26.25 17.5859 26.25 16.875H26.9062C26.9062 16.875 27.125 14.1953 27.125 11.625C27.125 9.05469 26.8516 7.52344 26.6875 7.25ZM6.85016 9.70766C5.85414 9.81654 4.85304 9.8724 3.85109 9.875C2.73437 9.875 2.69609 9.94664 2.61734 9.24937C2.58772 8.93023 2.59708 8.60867 2.64523 8.2918L2.67969 8.125H2.84375C3.5 8.125 4.11633 8.15289 5.28008 8.49578C5.87197 8.67339 6.42869 8.95203 6.92562 9.31938C7.16406 9.49219 7.21875 9.65625 7.21875 9.65625L6.85016 9.70766ZM20.3667 13.6452L20.125 14.25H7.875C7.875 14.25 7.89633 14.2166 7.60156 13.6386C7.38281 13.2109 7.65625 12.9375 8.08883 12.7822C8.92664 12.4803 11.375 11.625 14 11.625C16.625 11.625 19.122 12.3622 19.9336 12.7822C20.2344 12.9375 20.6079 13.0469 20.3667 13.6484V13.6452ZM6.31203 6.17867C6.13539 6.18887 5.95834 6.19014 5.78156 6.1825C5.9243 5.92875 6.00359 5.64602 6.14305 5.3507C6.58055 4.42102 7.08094 3.36883 7.9718 2.92531C9.25914 2.28437 11.9273 1.99562 14 1.99562C16.0727 1.99562 18.7409 2.28219 20.0282 2.92531C20.9191 3.36883 21.4173 4.42156 21.857 5.3507C21.9975 5.64875 22.0757 5.93367 22.2223 6.18906C22.1129 6.19508 21.9871 6.18906 21.6869 6.17867H6.31203ZM25.328 9.24719C25.2109 9.92969 25.3203 9.875 24.1489 9.875C23.147 9.8724 22.1459 9.81654 21.1498 9.70766C20.994 9.67977 20.9497 9.41672 21.0744 9.31938C21.5688 8.94794 22.1263 8.66893 22.7199 8.49578C23.8837 8.15289 24.5388 8.10695 25.1858 8.12992C25.2292 8.13158 25.2705 8.14925 25.3017 8.17954C25.3329 8.20984 25.3518 8.2506 25.3548 8.29398C25.3857 8.61232 25.3767 8.93327 25.328 9.24937V9.24719Z" fill="white"/>
</svg>
