<svg width="12" height="14" viewBox="0 0 12 14" fill="none" xmlns="http://www.w3.org/2000/svg">
<path d="M10.1046 10.2545L9.31328 11.0371C8.73001 11.6095 7.97328 12.3455 7.04268 13.2452C6.46121 13.8074 5.53868 13.8074 4.95728 13.245L2.62985 10.9811C2.33735 10.6939 2.0925 10.4517 1.89527 10.2545C-0.371667 7.98758 -0.371667 4.31212 1.89527 2.04518C4.16221 -0.221764 7.83768 -0.221764 10.1046 2.04518C12.3715 4.31212 12.3715 7.98758 10.1046 10.2545ZM7.66675 6.33298C7.66675 5.41242 6.92048 4.66616 5.99995 4.66616C5.07941 4.66616 4.33313 5.41242 4.33313 6.33298C4.33313 7.25352 5.07941 7.99978 5.99995 7.99978C6.92048 7.99978 7.66675 7.25352 7.66675 6.33298Z" fill="#F1F1F1"/>
</svg>
